<?xml version="1.0" encoding="utf-8" ?><svg xmlns="http://www.w3.org/2000/svg" xmlns:xlink="http://www.w3.org/1999/xlink" width="1344" height="768" viewBox="0 0 1344 768"><path fill="#03A980" d="M374.983 364.948C386.882 369.387 388.984 375.722 394.949 386.649C399.01 392.452 401.182 395.755 406.775 400.308C407.369 400.77 407.97 401.222 408.578 401.665C419.797 409.575 457.564 429.069 470.923 429.808C505.277 431.709 546.291 416.463 580.804 415.932C583.335 415.654 586.375 415.788 588.994 415.76C595.16 415.752 607.488 415.845 613.564 416.658C616.653 416.633 619.356 415.623 622.824 415.231C648.844 411.679 670.334 420.532 679.055 447.155C682.378 449.191 685.728 451.214 688.884 453.506C720.999 476.831 725.129 518.097 704.759 550.952C701.621 555.971 697.954 560.639 693.82 564.875L691.289 562.656C695.547 554.311 697.777 545.078 697.797 535.709C697.9 518.269 690.344 499.87 678.087 487.516C673.215 497.364 653.836 525.162 647.06 535.199C655.116 547.278 659.697 555.316 663.718 569.248C676.379 613.122 645.363 657.635 603.254 670.089L601.131 667.214C617.684 654.977 628.939 636.878 632.596 616.617C634.649 605.218 633.184 586.492 626.654 577.044C616.43 590.729 606.293 603.184 595.993 616.644L531.889 700.908C516.594 720.959 495.986 747.233 482.319 768L395.109 768L174.03 768C193.236 752.487 212.622 735.3 232.158 720.418C235.264 717.653 239.649 714.318 242.962 711.645C210.082 702.924 184.249 683.825 175.37 649.877C172.627 639.386 173.097 630.794 173.456 620.098C154.95 598.315 161.136 567.123 181.607 549.108C185.856 545.368 190.193 543.069 195.118 540.375C195.866 540.109 196.58 539.839 197.343 539.617C202.74 537.537 209.323 532.808 214.307 529.507C215.933 528.118 217.85 526.507 219.75 525.534C225.946 521.747 231.695 517.242 237.346 512.704C238.813 511.644 239.579 511.141 241.119 510.258L245.076 507.325C246.399 505.934 247.122 505.109 248.638 503.886C252.054 499.777 255.607 495.783 259.291 491.911C260.198 490.932 261.128 489.974 262.078 489.037L265.326 485.609C267.039 483.216 268.276 481.486 270.382 479.421C272.499 469.054 270.154 457.331 268.143 447.174C266.958 440.716 265.008 433.514 263.656 426.917C273.186 417.768 280.006 415.576 289.28 408.352C305.183 395.965 310.524 383.035 331.512 376.06C342.955 372.257 348.422 374.706 357.835 372.265C363.733 370.735 364.625 366.714 374.983 364.948ZM435.973 522.023C440.841 525.402 445.279 529.025 449.892 532.727C453.287 529.742 457.174 526.162 460.697 523.463C463.384 520.459 465.383 518.156 467.83 514.908C454.965 515.987 437.508 511.79 423.771 510.421L433.229 519.627C434.139 520.431 435.054 521.229 435.973 522.023ZM312.766 541.504C301.102 553.006 272.642 579.645 264.226 592.025C261.77 619.669 243.777 635.217 216.112 632.299C214.601 632.138 213.091 631.964 211.582 631.778C210.473 653.816 213.833 670.266 228.817 687.646C234.39 694.11 243.608 701.485 251.796 704.044L252.345 704.22C252.456 704.253 252.566 704.286 252.677 704.318C261.057 698.438 275.191 685.756 283.683 678.712L346.007 627.019C353.918 620.427 370.88 605.654 378.708 600.772C377.685 599.305 376.118 597.2 375.294 595.692C367.009 577.389 355.482 557.196 346.565 538.725C336.768 543.184 323.132 543.557 312.766 541.504Z"/><path fill="#151515" d="M403.29 418.855L404.484 419.219C391.154 440.378 394.111 454.617 406.37 474.942C406.943 463.114 407.304 455.77 416.001 446.564L417.043 447.832C412.434 455.063 410.907 463.838 412.801 472.202C413.757 476.396 415.992 480.99 420.066 482.889L420.787 482.511C422.791 470.081 421.807 465.681 433.37 456.506C426.499 469.365 421.402 489.133 438.888 495.667C440.123 482.191 443.186 471.659 454.127 462.541C454.454 462.265 454.787 461.996 455.125 461.734L455.715 462.904C448.933 471.078 444.751 480.061 445.342 490.914C445.509 493.983 446.957 497.922 449.835 499.381L450.547 498.968C451.204 484.823 450.935 483.908 461.296 472.977C456.922 480.44 453.397 487.105 455.665 496.004C456.61 499.708 460.989 503.062 464.83 502.554C468.521 500.284 470.404 477.914 482.521 473.524C482.196 474.847 479.35 478.132 478.292 479.613C473.741 485.984 468.575 508.602 482.008 508.621C483.496 506.686 481.752 504.289 482.997 500.717C484.712 495.796 487.098 492.094 489.892 487.826C485.885 500.837 484.998 507.068 498.702 513.523C503.62 499.941 505.771 492.12 517.568 482.658C517.464 483.358 517.353 484.056 517.234 484.753C509.865 492.126 505.097 503.085 508.999 513.427L509.986 514.351C514.308 513.127 516.62 505.566 519.731 501.928C521.818 499.487 523.325 498.169 525.772 496.08C522.064 502.396 516.175 512.449 522.58 519.303C523.474 519.413 524.041 519.694 524.635 518.991C530.553 511.975 531.558 504.156 539.48 497.871L540.867 498.508C536.245 505.004 530.979 515.161 535.919 522.855L537.178 523.528C542.601 521.058 544.365 509.386 554.319 503.802C545.648 514.829 541.493 520.982 550.443 533.552C556.124 521.364 560.377 514.961 570.959 506.231L570.915 508.042C560.211 518.726 553.845 528.788 553.93 544.794C553.904 555.736 558.32 566.219 566.167 573.842C573.873 581.332 584.3 585.356 595.039 584.984C607.143 584.608 615.224 579.736 623.88 572.022L626.654 577.044C616.43 590.729 606.293 603.184 595.993 616.644L531.889 700.908C516.594 720.959 495.986 747.233 482.319 768L395.109 768C411.189 757.586 422.456 748.162 437.205 736.191C421.8 738.968 406.425 739.01 391.244 734.985L391.685 733.774C430.817 734.943 472.532 717.612 479.328 674.96C480.381 674.852 480.265 674.976 480.667 675.914C479.974 687.759 476.82 694.388 471.525 704.584C482.844 693.125 494.878 677.832 505.967 665.543C526.67 642.777 547.675 620.288 568.976 598.082C550.588 585.077 544.607 568.302 537.719 547.817C515.548 540.688 481.587 523.583 460.697 523.463C463.384 520.459 465.383 518.156 467.83 514.908C454.965 515.987 437.508 511.79 423.771 510.421C420.952 509.033 415.234 508.59 411.951 508.21C412.823 508.133 413.64 508.073 414.514 508.138C415.84 507.421 416.24 508.589 416.47 507.772C415.7 506.418 411.076 508.261 408.047 506.254C410.858 505.351 414.008 505.49 416.982 505.454C412.696 498.458 409.182 491.504 402.884 486.281L404.901 484.581C404.386 482.031 401.302 475.079 400.168 472.335C392.746 454.373 391.048 451.46 377.483 439.042C381.877 441.611 385.92 444.322 390.158 447.136C391.822 433.757 395.366 429.103 403.29 418.855Z"/><path fill="#151515" d="M374.983 364.948C386.882 369.387 388.984 375.722 394.949 386.649C384.567 386.705 379.493 386.985 370.062 392.459C367.93 393.697 362.945 396.424 360.703 397.125C356.163 398.544 350.473 397.936 345.575 398.803C330.658 401.443 318.187 411.379 307.847 421.897C296.235 433.708 287.487 447.083 268.915 447.175L268.143 447.174C266.958 440.716 265.008 433.514 263.656 426.917C273.186 417.768 280.006 415.576 289.28 408.352C305.183 395.965 310.524 383.035 331.512 376.06C342.955 372.257 348.422 374.706 357.835 372.265C363.733 370.735 364.625 366.714 374.983 364.948Z"/><path fill="#151515" d="M560.189 432.143C560.077 433.06 559.957 433.976 559.829 434.891C555.471 441.084 550.027 455.799 557.769 461.668C558.684 462.362 559.576 462.678 560.704 462.541C564.63 457.5 564.53 448.15 573.585 438.045L574.17 439.132C571.014 446.538 569.981 459.245 578.685 463.25C579.73 462.972 580.197 462.975 580.605 461.425C583.368 450.929 583.934 444.365 590.035 435.041L590.706 435.876C585.507 447.17 580.815 460.965 593.748 468.748C592.964 458.022 593.292 446.794 601.775 438.73C598.595 446.521 594.11 458.827 600.218 466.429L601.402 466.746C603.795 464.337 602.835 456.633 604.499 452.282C606.951 445.873 609.172 442.195 613.164 436.756L613.807 437.983C589.688 473.73 621.463 505.934 659.215 497.018C669.208 494.658 670.056 492.318 678.087 487.516C673.215 497.364 653.836 525.162 647.06 535.199C643.522 531.361 640.241 528.102 636.486 524.469C635.504 517.837 633.825 512.19 630.73 506.297C626.724 498.497 620.881 494.56 612.766 491.825C602.315 488.302 591.842 485.162 581.288 482C580.218 481.633 579.142 481.284 578.061 480.951C572.115 478.922 560.456 474.588 554.755 474.433C553.256 473.604 553.027 473.435 551.376 472.932L552.151 472.527L552.096 471.842C527.826 460.798 507.872 452.936 486.765 475.138C487.353 474.025 487.99 472.939 488.674 471.883C494.516 463.052 501.994 459.873 511.751 457.84L511.86 456.856C507.797 455.566 505.138 454.76 501.248 452.882L503.193 452.108C503.945 449.607 504.569 445.713 504.402 443.104L504.96 441.966L506.977 443.139C507.006 452.803 510.626 453.398 518.779 455.515C517.896 447.236 519.764 443.634 523.486 436.483L525.529 435.58C522.223 442.041 522.031 454.721 529.967 457.33C531.361 455.737 531.4 454.16 531.763 452.048C533.048 444.566 536.643 438.836 541.242 432.948L542.406 433.478C538.018 440.772 532.426 457.811 543.71 461.908C544.541 461.769 546.196 461.427 546.311 460.337C547.652 447.699 550.624 440.612 560.189 432.143Z"/><path fill="#077F61" d="M511.86 456.856C512.475 456.954 513.625 456.919 513.759 457.677C513.332 458.206 512.298 457.898 511.751 457.84L511.86 456.856Z"/><path fill="#151515" d="M242.962 711.645C257.722 713.61 267.414 715.451 282.214 713.858L283.146 715.093C268.37 720.388 247.629 723.073 232.158 720.418C235.264 717.653 239.649 714.318 242.962 711.645Z"/><defs><linearGradient id="gradient_0" gradientUnits="userSpaceOnUse" x1="383.27777" y1="477.19934" x2="383.23398" y2="484.97992"><stop offset="0" stop-color="#010809"/><stop offset="1" stop-color="#051F1B"/></linearGradient></defs><path fill="url(#gradient_0)" d="M359.002 481.377C374.057 474.453 391.492 473.745 404.901 484.581L402.884 486.281C388.322 477.36 374.966 478.034 359.002 481.377Z"/><path fill="#010D0A" d="M492.83 440.125L493.681 441.525C492.91 445.754 495.2 448.646 498.912 450.567C500.769 450.674 500.452 450.943 501.763 450.143C502.482 447.988 503.358 445.035 504.402 443.104C504.569 445.713 503.945 449.607 503.193 452.108L501.248 452.882C497.28 451.208 488.973 446.943 485.484 447.43C477.321 448.571 471.295 455.133 466.348 460.869C466.098 455.422 475.893 448.377 480.243 446.019C483.965 444.002 486.111 446.302 489.511 446.593C491.991 444.811 491.744 443.534 492.83 440.125Z"/><path fill="#010D0A" d="M219.75 525.534C234.666 526.252 241.322 529.673 251.836 539.494C234.213 529.812 233.222 529.284 214.307 529.507C215.933 528.118 217.85 526.507 219.75 525.534Z"/><defs><linearGradient id="gradient_1" gradientUnits="userSpaceOnUse" x1="265.02438" y1="504.46143" x2="263.9982" y2="509.02277"><stop offset="0" stop-color="#000808"/><stop offset="1" stop-color="#021D1A"/></linearGradient></defs><path fill="url(#gradient_1)" d="M248.638 503.886C260.142 501.2 272.553 504.02 281.329 512.131L280.194 512.712C269.581 505.365 257.383 505.403 245.076 507.325C246.399 505.934 247.122 505.109 248.638 503.886Z"/><path fill="#010D0A" d="M197.343 539.617C211.467 538.741 218.213 537.559 231.447 546.395L229.707 546.795C221.492 542.86 214.927 540.746 205.735 540.948C202.5 541.019 198.204 541.047 195.118 540.375C195.866 540.109 196.58 539.839 197.343 539.617Z"/><path fill="#010D0A" d="M407.112 527.705C409.559 526.722 410.791 525.252 413.018 524.175C418.343 521.602 427.286 520.176 433.229 519.627C434.139 520.431 435.054 521.229 435.973 522.023C427.933 521.72 413.389 524.013 407.146 529.244L407.112 527.705Z"/><path fill="#010D0A" d="M578.061 480.951C579.142 481.284 580.218 481.633 581.288 482C563.751 490.515 569.151 490.108 556.621 499.85C564.431 488.987 566.579 487.417 578.061 480.951Z"/><path fill="#010D0A" d="M241.119 510.258C249.727 511.32 255.066 514.901 261.809 520.308C251.679 515.491 248.606 513.237 237.346 512.704C238.813 511.644 239.579 511.141 241.119 510.258Z"/><path fill="#010D0A" d="M262.078 489.037C269.541 488.611 274.105 488.997 279.986 494.186C281.011 495.104 282.047 496.011 283.093 496.906C272.926 491.688 271.382 490.512 259.291 491.911C260.198 490.932 261.128 489.974 262.078 489.037Z"/><path fill="#010D0A" d="M613.564 416.658C616.653 416.633 619.356 415.623 622.824 415.231C614.66 420.69 613.981 417.818 606.909 428.439L606.19 427.133C609.006 422.075 609.197 420.859 613.564 416.658Z"/><path fill="#010D0A" d="M270.382 479.421C274.839 477.097 280.225 474.87 285.252 474.371L285.709 475.483C275.359 477.2 272.618 481.541 265.326 485.609C267.039 483.216 268.276 481.486 270.382 479.421Z"/><path fill="#010D0A" d="M535.053 479.793C540.653 475.167 544.113 473.782 551.376 472.932C553.027 473.435 553.256 473.604 554.755 474.433C545.531 475.483 544.817 475.931 536.768 479.897L535.053 479.793Z"/><path fill="#010D0A" d="M580.804 415.932C583.335 415.654 586.375 415.788 588.994 415.76C583.829 417.426 582.19 417.863 577.372 420.576L576.109 419.55C577.559 418.497 579.43 417.076 580.804 415.932Z"/><path fill="#010D0A" d="M403.47 506.97C405.199 506.661 406.296 506.298 408.047 506.254C411.076 508.261 415.7 506.418 416.47 507.772C416.24 508.589 415.84 507.421 414.514 508.138C413.64 508.073 412.823 508.133 411.951 508.21C408.641 508.209 406.314 508.02 402.932 508.245L403.47 506.97Z"/><path fill="#041E16" d="M548.501 490.069C548.363 490.638 548.221 491.206 548.075 491.773C545.181 493.921 543.318 495.915 540.867 498.508L539.48 497.871C542.994 493.867 544.239 492.949 548.501 490.069Z"/><path fill="#033C2E" d="M480.881 662.307C480.842 665.541 481.561 673.452 480.667 675.914C480.265 674.976 480.381 674.852 479.328 674.96C479.579 671.534 479.833 668.19 480.03 664.746C480.848 663.838 480.791 663.506 480.881 662.307Z"/><path fill="#06664E" d="M560.189 432.143C560.898 431.449 566.162 426.452 566.954 427.62C566.709 428.517 560.963 433.808 559.829 434.891C559.957 433.976 560.077 433.06 560.189 432.143Z"/><path fill="#06664E" d="M536.768 479.897C535.956 480.763 529.905 486.283 529.245 485.872C528.753 484.23 533.726 480.551 535.053 479.793L536.768 479.897Z"/><path fill="#06664E" d="M548.501 490.069C551.901 487.615 554.426 486.799 558.348 485.604C555.062 487.637 551.502 490.037 548.075 491.773C548.221 491.206 548.363 490.638 548.501 490.069Z"/><path fill="#06664E" d="M613.164 436.756C613.912 435.523 616.924 431.006 618.339 431C619.002 431.626 614.523 437.218 613.807 437.983L613.164 436.756Z"/><path fill="#033C2E" d="M576.109 419.55L577.372 420.576C576.637 421.306 571.849 426.264 571.259 426.187C570.652 424.884 575.144 420.476 576.109 419.55Z"/><path fill="#077F61" d="M591.565 432.572C592.696 431.005 593.392 428.388 595.465 428.393C596.175 429.018 592.77 433.313 592.286 434.178C592.025 434.636 591.757 435.09 591.482 435.54C591.52 434.551 591.548 433.562 591.565 432.572Z"/><path fill="#06664E" d="M231.447 546.395C233.402 547.548 236.793 550.616 238.502 552.238C235.266 550.421 232.664 549.138 229.707 546.795L231.447 546.395Z"/><path fill="#06664E" d="M570.959 506.231C572.059 504.889 573.537 503.959 575.157 503.335L575.417 503.612C575.271 505.038 572.047 507.184 570.915 508.042L570.959 506.231Z"/><path fill="#010D0A" d="M504.96 441.966C506.284 440.006 506.888 439.245 508.453 437.482L508.638 439.195C508.034 440.503 507.526 441.809 506.977 443.139L504.96 441.966Z"/><path fill="#06664E" d="M517.568 482.658C518.618 481.617 519.811 480.647 521.317 480.361C522.512 481.066 517.908 484.26 517.234 484.753C517.353 484.056 517.464 483.358 517.568 482.658Z"/><path fill="#06664E" d="M403.29 418.855C403.736 418.072 406.39 414.734 407.251 415.351C407.735 416.435 405.195 418.608 404.484 419.219L403.29 418.855Z"/><path fill="#033C2E" d="M606.909 428.439C606.643 429.123 605.088 432.898 604.147 432.73C603.457 431.693 605.647 428.079 606.19 427.133L606.909 428.439Z"/><path fill="#033C2E" d="M416.001 446.564C416.516 445.863 418.897 443.125 419.783 443.506C420.226 444.16 417.511 447.291 417.043 447.832L416.001 446.564Z"/><path fill="#06664E" d="M523.486 436.483C524.357 435.293 526.837 431.216 528.535 431.546L528.31 431.675C528.21 432.527 526.234 434.93 525.529 435.58L523.486 436.483Z"/><path fill="#06664E" d="M508.453 437.482C509.633 436.096 510.22 435.228 511.946 434.758L512.024 434.934L512.069 434.831C513.099 435.272 509.065 438.79 508.638 439.195L508.453 437.482Z"/><path fill="#06664E" d="M402.932 508.245C401.501 508.626 400.478 508.682 399.053 508.905L398.461 508.189L398.321 508.959L397.834 508.398C397.666 508.458 397.499 508.519 397.332 508.58L397.334 508.548C398.139 507.79 401.775 507.321 402.975 507.075L403.47 506.97L402.932 508.245Z"/><path fill="#033C2E" d="M391.244 734.985C390.47 734.807 387.097 734.2 387.045 733.363C387.77 732.603 390.838 733.554 391.685 733.774L391.244 734.985Z"/><path fill="#033C2E" d="M455.125 461.734C455.777 461.099 457.943 458.945 458.88 459.199C459.019 459.956 456.295 462.344 455.715 462.904L455.125 461.734Z"/><path fill="#06664E" d="M573.585 438.045C574.084 437.405 575.613 435.067 576.41 435.076C577.153 435.993 574.723 438.487 574.17 439.132L573.585 438.045Z"/><path fill="#06664E" d="M285.252 474.371C286.491 473.882 288.261 473.483 289.46 474.266C288.929 475.209 286.658 475.35 285.709 475.483L285.252 474.371Z"/><path fill="#033C2E" d="M282.214 713.858C282.938 713.573 285.11 712.604 285.816 713.117C285.905 713.787 283.712 714.746 283.146 715.093L282.214 713.858Z"/><path fill="#033C2E" d="M281.329 512.131C282.061 512.919 283.208 514.401 283.285 515.5C282.836 516.394 280.552 513.149 280.194 512.712L281.329 512.131Z"/><path fill="#033C2E" d="M541.242 432.948C541.97 432.211 543.714 430.091 544.797 430.25C545.262 430.847 542.832 433.112 542.406 433.478L541.242 432.948Z"/><path fill="#2AA58B" d="M480.03 664.746C479.853 663.606 479.692 662.352 480.418 661.334C480.494 661.324 480.57 661.313 480.646 661.303C480.872 661.583 480.832 661.936 480.881 662.307C480.791 663.506 480.848 663.838 480.03 664.746Z"/><path fill="#077F61" d="M407.112 527.705L407.146 529.244C402.806 531.496 403.995 529.394 407.112 527.705Z"/><path fill="#06664E" d="M492.83 440.125C495.421 435.704 494.637 439.084 493.681 441.525L492.83 440.125Z"/><path fill="#033C2E" d="M591.565 432.572C591.548 433.562 591.52 434.551 591.482 435.54L590.706 435.876L590.035 435.041C590.539 434.205 591.027 433.389 591.565 432.572Z"/><path fill="#B6B5B4" fill-opacity="0.89019608" d="M312.023 600.358C307.267 599.079 274.187 588.743 272.734 584.927C277.765 586.216 285.941 590.049 291.087 592.103C299.519 595.468 305.62 597.329 314.416 599.433L312.023 600.358Z"/><path fill="#949294" fill-opacity="0.86274511" d="M349.237 560.922C349.766 557.664 349.616 555.566 350.272 552.331C351.101 561.78 350.74 570.666 350.355 580.106C349.644 584.274 349.593 590.746 349.808 594.979C349.601 598.227 349.551 599.504 349.954 602.711L349.178 602.781C349.08 588.828 349.1 574.875 349.237 560.922Z"/><path fill="#A7A6A7" fill-opacity="0.90588236" d="M319.248 601.748C320.746 601.344 321.538 601.085 323.083 600.915C328.896 601.789 335.985 602.868 341.814 603.431L337.376 604.215C331.07 603.292 325.693 602.94 319.248 601.748Z"/><path fill="#C6C4C5" fill-opacity="0.54509807" d="M349.178 602.781L349.954 602.711L350.462 603.743C347.089 603.877 344.884 603.836 341.547 604.44C339.711 604.601 339.145 604.469 337.376 604.215L341.814 603.431C344.774 603.16 346.223 603.598 349.178 602.781Z"/><path fill="#B6B5B4" fill-opacity="0.55686277" d="M350.355 580.106C350.548 585.002 350.358 589.855 350.459 594.777L349.808 594.979C349.593 590.746 349.644 584.274 350.355 580.106Z"/><path fill="#A7A6A7" fill-opacity="0.53333336" d="M354.242 604.037L354.668 604.011C357.092 604.541 358.548 604.489 360.985 604.675C356.193 605.392 353.751 605.446 348.891 604.776C350.933 604.577 352.216 604.434 354.242 604.037Z"/><path fill="#949294" fill-opacity="0.93725491" d="M350.462 603.743L354.242 604.037C352.216 604.434 350.933 604.577 348.891 604.776C346.61 604.567 343.911 604.569 341.547 604.44C344.884 603.836 347.089 603.877 350.462 603.743Z"/><path fill="#B6B5B4" fill-opacity="0.9137255" d="M357.493 603.819C360.079 603.88 362.632 603.856 365.217 603.909C364.019 604.956 362.713 604.619 360.985 604.675C358.548 604.489 357.092 604.541 354.668 604.011C355.611 603.962 356.553 603.898 357.493 603.819Z"/><path fill="#B6B5B4" fill-opacity="0.3882353" d="M349.808 594.979L350.459 594.777C350.461 597.543 350.638 600.046 349.954 602.711C349.551 599.504 349.601 598.227 349.808 594.979Z"/><path fill="#C6C4C5" fill-opacity="0.32941177" d="M349.237 560.922C349.176 559.497 348.607 551.921 350.125 551.71C350.226 551.897 350.231 552.122 350.272 552.331C349.616 555.566 349.766 557.664 349.237 560.922Z"/><path fill="#B6B5B4" fill-opacity="0.88627452" d="M315.087 599.682C316.844 599.952 318.596 600.262 320.339 600.611L317.938 601.638C316.589 601.257 315.498 600.982 314.114 600.686L315.087 599.682Z"/><path fill="#C6C4C5" fill-opacity="0.30980393" d="M357.493 603.819C360.836 603.193 362.024 602.801 365.217 603.909C362.632 603.856 360.079 603.88 357.493 603.819Z"/><path fill="#B6B5B4" fill-opacity="0.73333335" d="M320.339 600.611C321.59 600.642 321.86 600.646 323.083 600.915C321.538 601.085 320.746 601.344 319.248 601.748C318.75 601.721 318.437 601.705 317.938 601.638L320.339 600.611Z"/><path fill="#C6C4C5" fill-opacity="0.62352943" d="M314.416 599.433C314.639 599.516 314.863 599.599 315.087 599.682L314.114 600.686L312.023 600.358L314.416 599.433Z"/><path fill="#151515" d="M305.858 479.733C311.307 484.676 318.351 493.237 325.817 493.035C329.511 488.918 317.704 474.327 338.149 454.372C325.709 475.906 326.948 492.612 346.63 508.729C350.926 501.094 354.336 498.676 362.787 495.655C351.343 504.417 346.63 512.486 353.043 526.702C360.842 517.418 368.194 508.925 380.62 505.583L381.792 506.823C366.267 516.868 355.079 534.253 364.483 552.493C370.065 538.99 377.464 530.187 390.225 522.848L390.557 523.761C382.013 531.313 375.9 539.037 374.721 551.05C374.519 553.101 374.567 554.188 375.641 555.766C377.988 555.356 384.837 545.928 388.818 542.374L389.348 543.569C382.804 551.102 381.926 554.682 379.79 564.11C391.905 549.642 400.403 540.949 420.071 537.539L420.482 538.582C392.431 547.291 378.529 566.672 375.294 595.692C367.009 577.389 355.482 557.196 346.565 538.725C336.768 543.184 323.132 543.557 312.766 541.504C301.102 553.006 272.642 579.645 264.226 592.025C262.621 584.119 261.84 581.188 258.037 574.06L258.74 571.78C259.681 564.405 253.373 557.573 248.483 552.793L248.994 551.641C256.24 556.489 259.509 561.349 263.766 568.581C273.074 557.235 264.794 547.287 256.296 538.424L256.905 536.974C266.082 543.376 268.926 546.696 275.891 555.343C279.514 549.323 281.333 544.869 279.936 537.711C280.686 537.191 281.443 536.682 282.208 536.184L281.363 530.409C282.739 529.211 282.745 529.08 283.723 527.569C286.904 530.925 288.178 534.496 291.531 537.793L292.408 537.67C299.126 529.738 295.299 524.332 289.61 517.329C296.181 522.201 297.163 522.857 300.831 530.21C302.311 521.917 302.608 512.923 295.427 506.938C292.156 504.212 288.176 504.457 284.231 503.326C288.934 500.328 299.308 507.084 303.833 509.206L304.476 507.573C302.111 503.76 301.038 502.636 297.682 499.67L298.111 498.091C304.878 502.121 308.676 506.536 314.065 512.199C321.806 499.416 316.17 493.741 307.459 483.718C306.698 482.214 305.553 481.254 305.858 479.733Z"/><path fill="#151515" d="M455.651 535.88C481.669 554.637 487.97 590.074 477.345 619.141C473.581 601.94 467.234 585.114 453.117 573.71C445.684 573.515 439.604 574.201 433.796 579.827C428.148 585.297 418.57 600.576 423.947 608.383C429.993 617.161 435.633 624.099 440.836 633.742C429.922 633.047 418.503 630.071 411.101 621.527C398.179 606.613 401.46 580.286 416.412 567.857C437.249 550.537 462.388 556.899 475.391 579.487C475.746 561.675 469.904 548.874 455.815 537.757L455.651 535.88Z"/><path fill="#151515" d="M378.29 601.786C379.182 602.767 380.921 607.971 381.541 609.519C391.468 634.314 418.131 644.705 442.13 636.163C443.838 642.198 445.034 648.365 445.705 654.601C447.789 675.163 442.44 692.948 429.419 708.964C424.936 714.032 421.086 717.577 415.79 721.697C421.622 714.598 425.578 707.471 427.124 698.144C428.652 688.921 428.935 673.101 422.81 665.607C419.548 661.925 414.295 659.625 410.094 657.257C388.749 645.228 373.403 627.948 378.29 601.786Z"/><path fill="#151515" d="M200.097 563.349C239.979 560.578 252.82 609.742 213.296 623.059C219.344 608.112 221.74 603.694 216.802 587.895C214.279 582.738 212.792 580.588 208.713 576.572C191.159 572.906 186.351 579.446 180.479 594.692C178.55 599.699 176.907 604.118 175.384 609.331C174.412 606.961 173.646 604.96 173.07 602.45C171.151 594.236 172.643 585.596 177.204 578.501C182.772 569.719 190.229 565.554 200.097 563.349Z"/><path fill="#151515" d="M611.991 504.257C626.484 503.563 630.756 508.705 634.805 522.619C630.719 519.039 625.876 514.122 620.121 514.49C611.732 515.186 603.687 521.72 597.97 527.503C592.618 532.241 590.137 546.063 596.904 550.524C603.628 554.957 609.347 557.784 615.855 563.194L621.422 568.875C619.253 570.469 615.648 572.645 613.172 573.575C607.283 575.764 600.766 575.528 595.05 572.919C572.964 562.789 577.748 530.423 592.617 516.281C599.639 509.602 602.953 507.223 611.991 504.257Z"/><path fill="#151515" d="M651.749 432.717C663.006 432.045 667.057 435.32 672.872 444.451C663.017 440.016 655.186 434.36 648.394 446.071C641.394 458.142 641.64 471.772 656.777 476.444C660.934 477.727 665.327 479.711 669.127 481.76C670.192 482.367 671.197 483.048 672.224 483.717C673.032 487.314 668.609 488.869 665.756 489.612C658.412 491.487 650.623 490.337 644.134 486.419C623.604 473.882 624.387 438.883 651.749 432.717Z"/><path fill="#010D0A" d="M448.734 448.451C455.031 443.633 461.38 439.024 469.852 439.42C470.495 439.45 471.994 439.765 472.347 440.434C472.066 441.292 468.692 441.892 467.713 442.134C461.387 443.698 455.926 445.867 450.261 449.082L448.734 448.451Z"/><path fill="#010D0A" d="M444.444 423.684C444.882 423.938 448.607 426.697 448.992 427.019C440.907 428.417 434.392 429.964 428.535 436.297C428.231 436.663 426.084 439.497 425.665 439.268C425.595 438.6 425.971 438.17 426.235 437.613C430.471 428.671 438.419 427.997 444.444 423.684Z"/><path fill="#010D0A" d="M235.208 554.958C248.717 559.414 250.144 562.173 258.74 571.78L258.037 574.06C251.811 566.134 244.563 559.525 234.79 556.089L235.208 554.958Z"/><path fill="#033C2E" d="M279.936 537.711C276.995 532.805 275.686 530.122 270.684 526.973C270.096 526.603 268.648 526.178 269.13 525.208C271.853 524.486 280.599 533.567 282.208 536.184C281.443 536.682 280.686 537.191 279.936 537.711Z"/><path fill="#033C2E" d="M307.459 483.718C303.551 479.866 299.003 473.603 296.618 468.684C299.219 471.699 303.789 476.634 305.858 479.733C305.553 481.254 306.698 482.214 307.459 483.718Z"/><path fill="#041E16" d="M277.431 520.824C279.616 523.038 281.575 525.317 283.723 527.569C282.745 529.08 282.739 529.211 281.363 530.409C280.33 527.384 279.458 523.989 276.663 522.232L277.431 520.824Z"/><path fill="#06664E" d="M234.79 556.089C232.716 555.459 228.288 554.445 226.884 552.993C228.032 552.675 233.751 554.377 235.208 554.958L234.79 556.089Z"/><path fill="#06664E" d="M420.071 537.539C421.091 537.222 426.818 535.872 427.346 536.702C426.932 537.76 421.704 538.444 420.482 538.582L420.071 537.539Z"/><path fill="#06664E" d="M390.225 522.848C391.138 522.145 394.036 520.247 395.179 520.913C395.234 522.063 391.469 523.401 390.557 523.761L390.225 522.848Z"/><path fill="#077F61" d="M276.663 522.232C276.046 522.201 276.112 522.295 275.776 522.008C275.787 521.912 275.797 521.815 275.807 521.719C272.756 518.199 271.693 516.47 277.431 520.824L276.663 522.232Z"/><path fill="#06664E" d="M388.818 542.374C389.336 541.767 391.666 539.311 392.544 540.02C392.709 541.354 390.262 542.913 389.348 543.569L388.818 542.374Z"/><path fill="#033C2E" d="M248.483 552.793C246.143 550.9 243.738 549.063 241.437 547.188C243.843 548.425 247.048 549.872 248.994 551.641L248.483 552.793Z"/><path fill="#06664E" d="M455.815 537.757C455.041 537.114 454.25 536.493 453.461 535.87C453.369 535.797 451.395 534.236 451.914 533.917L451.989 533.972L452.441 533.824L452.118 533.784C453.653 534.255 454.394 534.826 455.651 535.88L455.815 537.757Z"/><path fill="#033C2E" d="M253.158 534.415C254.131 535.111 256.187 536.372 256.905 536.974L256.296 538.424C255.499 537.836 254.705 537.244 253.915 536.647C253.377 536.309 253.315 536.287 252.842 535.858L253.158 534.415Z"/><path fill="#033C2E" d="M448.734 448.451L450.261 449.082C446.537 452.294 444.503 452.299 448.734 448.451Z"/><path fill="#010D0A" d="M384.274 504.416L384.781 505.773C383.663 506.107 382.872 506.395 381.792 506.823L380.62 505.583C381.879 505.117 382.993 504.793 384.274 504.416Z"/><path fill="#033C2E" d="M297.682 499.67C297.018 499.282 294.597 497.923 294.413 497.254C295.094 496.585 297.401 497.772 298.111 498.091L297.682 499.67Z"/><path fill="#06664E" d="M384.274 504.416C385.171 504.074 387.022 503.314 387.944 503.796C387.173 504.625 385.812 505.293 384.781 505.773L384.274 504.416Z"/><path fill="#077F61" d="M252.842 535.858C248.324 532.258 250.826 532.21 253.158 534.415L252.842 535.858Z"/><path fill="#949294" fill-opacity="0.82745099" d="M236.739 368.105C237.005 370.471 235.016 375.948 234.104 378.266C233.355 375.295 235.542 370.91 236.739 368.105Z"/><path fill="#03A980" d="M0 0L180.491 0C179.918 67.3268 218.717 139.152 250.817 196.718C255.593 205.283 268.667 228.514 274.106 235.782C293.144 266.664 315.228 299.596 337.691 328.123C350.281 344.111 365.415 346.963 374.983 364.948C364.625 366.714 363.733 370.735 357.835 372.265C348.422 374.706 342.955 372.257 331.512 376.06C310.524 383.035 305.183 395.965 289.28 408.352C280.006 415.576 273.186 417.768 263.656 426.917L263.219 426.681C259.018 425.968 252.455 423.539 251.033 419.07C250.652 417.873 245.707 421.819 245.263 422.22C243.316 423.981 241.346 425.308 239.112 426.662C236.064 427.455 235.302 427.59 232.161 427.71C230.359 428.099 228.851 428.107 227.035 428.227C225.877 440.52 228.213 451.383 238.883 458.656C240.565 460.951 240.114 460.377 238.955 463.066C219.3 459.159 202.339 445.05 205.559 422.96C206.4 417.186 207.201 411.425 208.253 405.669L209.155 403.103C215.207 390.636 232.263 381.835 243.991 374.712C238.222 363.995 228.379 350.868 221.148 340.674C201.359 312.777 194.742 278.833 170.282 254.113C165.502 249.283 160.172 244.686 154.473 240.958C125.358 231.386 137.199 228.536 137.495 200.695C134.604 197.608 126.759 191.483 123.349 188.7C122.89 188.208 122.542 187.844 122.054 187.371C119.799 185.139 112.569 175.511 110.736 175.493C108.733 178.096 116.65 187.446 118.752 189.252L120.134 191.138C120.643 191.581 120.599 191.718 120.934 192.38C109.537 193.426 83.2795 176.118 75.1405 167.136C74.006 165.08 70.8668 160.865 69.4105 158.889C70.5505 161.872 71.7897 166.643 74.3252 168.232C77.7594 174.754 83.5256 179.933 89.2018 184.499L87.4864 186.25C71.0734 181.788 52.8447 175.326 40.3333 163.221C36.3342 159.352 31.44 151.846 27.2079 148.89C28.7429 147.36 25.4048 142.8 24.3587 140.81C24.4916 142.769 24.9618 148.457 27.2079 148.89C28.4854 160.329 41.2524 171.763 49.456 178.909C30.4326 175.197 13.0995 165.484 0 151.195L0 77.3796L0 48.4753L0 0Z"/><path fill="#151515" d="M19.8373 45.7884C20.3484 44.1411 20.6004 43.4969 21.3069 41.9555C32.0839 67.9188 47.1835 86.1118 73.1354 98.3246C55.5901 83.4412 47.3277 71.3766 42.7098 48.288C61.3909 73.7082 76.9931 89.8582 105.618 103.806C93.4094 89.3188 86.9327 80.7438 78.8451 63.7106C94.344 77.6775 106.385 97.6269 123.357 110.593C125.302 112.079 128.538 114.806 130.309 116.514L131.311 115.4C124.452 106.669 117.099 95.3039 110.151 87.4016C114.871 90.2375 122.225 94.5057 126.234 97.8514C147.355 115.479 161.409 143.516 175.789 166.55C180.396 173.93 189.394 181.017 195.2 189.428C204.341 202.669 213.525 221.212 222.811 233.722L221.767 234.393C213.727 222.997 201.152 207.484 192.184 196.689C210.151 238.432 225.56 261.27 256.613 293.583C239.911 282.991 235.325 279.545 223.403 264.28L221.805 266.694C231.769 289.953 249.63 314.526 271.403 327.955L269.604 329.031C251.285 319.858 241.577 308.627 230.089 292.207C239.484 324.811 255.187 346.209 287.627 359.383L287.622 360.903C286.696 360.626 285.774 360.334 284.857 360.026C226.577 340.34 218.182 299.731 192.158 249.241C178.996 223.705 162.628 190.61 142.069 170.463C102.264 131.455 42.288 113.214 0 77.3796L0 48.4753C14.6334 67.3788 23.699 79.0876 44.5346 92.16C30.7375 76.8565 22.6347 66.5936 19.8373 45.7884Z"/><path fill="#2AA58B" d="M218.173 256.883C219.53 258.591 222.542 262.357 223.403 264.28L221.805 266.694C220.519 263.229 219.41 260.423 218.173 256.883Z"/><path fill="#06664E" d="M131.311 115.4C131.813 115.976 133.972 118.208 133.427 119.012C132.344 119.021 130.931 117.324 130.309 116.514L131.311 115.4Z"/><defs><linearGradient id="gradient_2" gradientUnits="userSpaceOnUse" x1="250.46945" y1="403.61774" x2="244.38112" y2="422.77908"><stop offset="0" stop-color="#091513"/><stop offset="1" stop-color="#19171B"/></linearGradient></defs><path fill="url(#gradient_2)" d="M234.746 399.915L235.737 398.591C238.374 400.235 248.186 410.062 248.367 410.089C249.144 409.678 249.33 404.463 249.412 403.433L251.404 404.122C252.012 405.901 252.753 411.581 255.227 410.009C255.394 409.903 255.843 410.001 255.962 410.164C257.603 414.554 261.546 422.822 263.219 426.681C259.018 425.968 252.455 423.539 251.033 419.07C250.652 417.873 245.707 421.819 245.263 422.22C243.316 423.981 241.346 425.308 239.112 426.662C244.174 415.955 241.732 409.001 234.746 399.915Z"/><path fill="#151515" d="M207.497 415.946C210.816 410.788 218.014 400.851 224.435 402.346C239.348 405.818 242.806 417.566 232.161 427.71C230.359 428.099 228.851 428.107 227.035 428.227C228.935 423.272 238.206 407.182 227.051 406.298C219.298 405.684 213.012 411.113 207.497 415.946Z"/><path fill="#033C2E" d="M271.403 327.955C272.65 328.727 274.076 329.567 275.283 330.382L275.262 330.338C277.982 333.374 270.002 329.201 269.604 329.031L271.403 327.955Z"/><path fill="#041E16" d="M250.217 398.579C250.607 400.593 250.894 402.129 251.404 404.122L249.412 403.433C249.341 402.475 249.235 401.613 249.118 400.661L250.217 398.579Z"/><path fill="#033C2E" d="M287.627 359.383C290.666 360.777 293.633 362.32 296.519 364.007C294.369 363.298 289.357 361.842 287.622 360.903L287.627 359.383Z"/><path fill="#010D0A" d="M19.8373 45.7884C19.7809 44.8311 19.2828 39.476 20.0062 39.1348C20.5933 39.5367 21.077 41.2688 21.3069 41.9555C20.6004 43.4969 20.3484 44.1411 19.8373 45.7884Z"/><path fill="#033C2E" d="M234.746 399.915C233.961 399.372 231.094 397.537 230.922 396.813C231.667 396.265 234.961 398.122 235.737 398.591L234.746 399.915Z"/><path fill="#06664E" d="M249.118 400.661C248.48 395.312 249.854 391.354 250.217 398.579L249.118 400.661Z"/><path fill="#06664E" d="M222.811 233.722C223.4 234.376 224.718 235.758 224.246 236.692C223.27 237.082 222.162 235.011 221.767 234.393L222.811 233.722Z"/><defs><linearGradient id="gradient_3" gradientUnits="userSpaceOnUse" x1="171.63033" y1="140.56281" x2="175.504" y2="137.55762"><stop offset="0" stop-color="#001911"/><stop offset="1" stop-color="#0D1215"/></linearGradient></defs><path fill="url(#gradient_3)" d="M193.872 169.31C180.169 148.554 165.094 128.737 148.749 109.991C173.663 127.624 181.853 143.025 195.335 169.364L193.872 169.31Z"/><path fill="#DFF0EB" d="M105.752 164.014C106.913 165.403 110.906 173.265 111.578 175.117C111.075 175.205 109.553 175.585 109.342 175.223C107.756 172.509 106.225 166.795 105.752 164.014Z"/><path fill="#06664E" d="M193.872 169.31L195.335 169.364C197.033 173.522 194.942 171.657 193.872 169.31Z"/><path fill="#B6B5B4" fill-opacity="0.94117647" d="M348.828 218.06L350.178 218.069C353.876 218.851 357.493 218.628 361.255 218.471C409.078 221.339 453.716 243.404 485.044 279.66C515.439 314.281 530.638 359.674 527.221 405.622C526.885 410.525 526.455 414.212 525.456 419.002L524.801 414.715L526.098 401.247C505.798 400.601 480.192 400.867 460.142 401.708C460.201 411.559 459.113 416.24 455.269 425.214C456.194 417.656 457.56 409.515 458.572 401.812L458.227 401.769C443.583 400.089 424.988 401.65 409.781 400.778C412.199 400.367 434.372 400.407 438.292 400.423C442.723 400.5 447.155 400.402 451.587 400.454C454.006 400.414 454.682 400.324 457.064 399.867C458.011 399.649 457.556 399.814 458.353 399.091C458.54 396.615 458.372 395.69 458.169 393.287C455.317 359.586 441.103 335.218 415.082 314.015L415.469 312.779C439.949 328.531 456.651 359.656 459.528 388.267C459.776 390.734 459.96 398.151 460.949 399.665L461.843 399.896C467.999 400.938 520.912 401.016 526.025 399.935C529.607 298.011 443.592 216.351 342.692 219.358C340.691 219.231 338.168 218.595 336.832 219.684C331.611 220.006 326.057 220.434 320.904 221.371L320.932 220.511C324.819 219.941 328.921 219.535 332.837 219.083L333.153 219.143C333.802 219.274 333.991 219.256 334.513 218.853L340.446 218.514C344.133 218.65 345.254 218.751 348.828 218.06Z"/><path fill="#B6B5B4" fill-opacity="0.95294118" d="M157.432 405.675C157.244 446.417 168.801 485.408 194.563 517.157C196.964 520.115 204.066 526.481 204.54 529.665L203.998 530.129C203.245 529.574 202.47 528.96 201.837 528.283C171.003 495.21 154.718 453.177 155.959 407.616C156.976 370.282 171.289 330.339 193.42 299.887C193.81 299.35 195.127 299.068 195.775 299.096C194.654 303.147 185.594 314.363 182.744 319.442C169.463 343.363 161.179 369.733 158.394 396.953L157.486 404.98L157.432 405.675Z"/><path fill="#B6B5B4" fill-opacity="0.96862745" d="M349.231 219.14C350.94 224.789 350.579 279.993 349.505 287.822L349.778 288.904C350.51 299.446 351.157 328.526 349.178 338.005C347.61 336.178 348.43 294.807 348.497 288.897L348.683 287.346C348.118 267.722 347.979 243.355 348.666 223.69C349.431 222.288 349.178 220.825 349.231 219.14Z"/><path fill="#B6B5B4" fill-opacity="0.80784315" d="M349.505 287.822C369.099 288.448 402.295 299.152 415.469 312.779L415.082 314.015C395.276 298.83 374.807 290.586 349.778 288.904L349.505 287.822Z"/><path fill="#C6C4C5" fill-opacity="0.06666667" d="M158.394 396.953C158.575 398.733 158.648 402.263 159.517 403.476C166.402 404.565 208.418 402.773 209.155 403.103L208.253 405.669C204.237 405.729 201.173 405.555 197.214 405.275C194.544 404.609 170.514 405.045 165.782 405.115C162.775 404.964 160.501 404.885 157.486 404.98L158.394 396.953Z"/><path fill="#C6C4C5" fill-opacity="0.49411765" d="M461.843 399.896C483.236 399.613 504.632 399.626 526.025 399.935C520.912 401.016 467.999 400.938 461.843 399.896Z"/><path fill="#2AA58B" fill-opacity="0.98823529" d="M238.883 458.656C243.866 461.005 245.214 460.691 250.005 462.2L249.851 463.275C245.987 463.573 242.84 463.568 238.955 463.066C240.114 460.377 240.565 460.951 238.883 458.656Z"/><path fill="#C6C4C5" fill-opacity="0.1882353" d="M406.775 400.308C409.158 399.681 434.966 399.575 438.146 399.786L438.292 400.423C434.372 400.407 412.199 400.367 409.781 400.778L408.578 401.665C407.97 401.222 407.369 400.77 406.775 400.308Z"/><path fill="#949294" fill-opacity="0.67843139" d="M326.607 289.573C333.514 288.591 341.742 287.478 348.683 287.346L348.497 288.897C339.207 288.696 336.205 289.21 327.047 290.336L326.607 289.573Z"/><path fill="#949294" fill-opacity="0.58823532" d="M275.967 233.955C282.092 231.073 289.536 227.83 296.126 226.256L296.055 227.171C290.883 228.862 281.692 231.868 277.153 234.688L275.967 233.955Z"/><path fill="#949294" fill-opacity="0.59215689" d="M165.782 405.115C170.514 405.045 194.544 404.609 197.214 405.275C193.255 406.019 171.29 405.634 165.949 405.619L165.782 405.115Z"/><path fill="#2AA58B" fill-opacity="0.98039216" d="M591.914 672.283C594.413 671.028 599.233 668.042 601.131 667.214L603.254 670.089C599.389 670.823 595.89 671.605 591.914 672.283Z"/><path fill="#949294" fill-opacity="0.69803923" d="M301.424 224.551C307.391 223.145 314.887 221.122 320.932 220.511L320.904 221.371C315.475 222.712 307.489 223.424 302.535 225.488L301.424 224.551Z"/><path fill="#10B981" fill-opacity="0.97647059" d="M686.407 571.749C687.885 568.965 689.7 565.326 691.289 562.656L693.82 564.875C691.321 567.483 689.114 569.39 686.407 571.749Z"/><path fill="#98D6C6" fill-opacity="0.98431373" d="M27.2079 148.89C24.9618 148.457 24.4916 142.769 24.3587 140.81C25.4048 142.8 28.7429 147.36 27.2079 148.89Z"/><path fill="#98D6C6" fill-opacity="0.98039216" d="M69.4105 158.889C70.8668 160.865 74.006 165.08 75.1405 167.136L74.3252 168.232C71.7897 166.643 70.5505 161.872 69.4105 158.889Z"/><path fill="#DFF0EB" fill-opacity="0.06666667" d="M122.054 187.371C122.542 187.844 122.89 188.208 123.349 188.7C122.024 189.902 121.645 190.161 120.134 191.138L118.752 189.252C119.956 188.503 120.796 188.022 122.054 187.371Z"/><path fill="#C6C4C5" fill-opacity="0.33333334" d="M438.146 399.786C442.596 399.772 447.304 399.672 451.724 399.831L451.587 400.454C447.155 400.402 442.723 400.5 438.292 400.423L438.146 399.786Z"/><path fill="#2AA58B" fill-opacity="0.97647059" d="M89.2018 184.499C89.4241 184.615 95.02 187.189 93.293 187.43C92.365 187.559 88.6984 186.502 87.4864 186.25L89.2018 184.499Z"/><path fill="#949294" fill-opacity="0.41960785" d="M318.426 291.469C321.033 290.755 323.949 289.976 326.607 289.573L327.047 290.336C324.49 291.116 322.088 291.443 319.562 292.417L318.426 291.469Z"/><path fill="#C6C4C5" fill-opacity="0.4509804" d="M524.801 414.715L525.456 419.002C525.349 419.502 525.114 421.587 524.628 421.807L524.506 421.744C523.941 420.758 524.624 416.035 524.801 414.715Z"/><path fill="#949294" fill-opacity="0.79607844" d="M157.486 404.98C160.501 404.885 162.775 404.964 165.782 405.115L165.949 405.619C163.019 405.64 160.378 405.809 157.432 405.675L157.486 404.98Z"/><path fill="#C6C4C5" fill-opacity="0.51764709" d="M350.178 218.069C354.205 217.888 357.28 217.738 361.255 218.471C357.493 218.628 353.876 218.851 350.178 218.069Z"/><path fill="#C6C4C5" fill-opacity="0.35686275" d="M336.832 219.684C338.168 218.595 340.691 219.231 342.692 219.358C340.226 219.811 339.355 220.064 336.832 219.684Z"/><path fill="#B6B5B4" fill-opacity="0.48235294" d="M317.491 291.692L317.784 292.961C312.665 294.219 312.586 293.274 317.491 291.692Z"/><path fill="#C6C4C5" fill-opacity="0.49411765" d="M340.446 218.514C344.164 217.767 345.077 217.89 348.828 218.06C345.254 218.751 344.133 218.65 340.446 218.514Z"/><path fill="#949294" fill-opacity="0.53333336" d="M296.786 225.783C298.099 225.471 299.419 225.191 300.746 224.942L300.653 225.961C299.753 226.239 298.963 226.563 298.092 226.91L296.786 225.783Z"/><path fill="#C6C4C5" fill-opacity="0.53333336" d="M348.666 223.69C348.374 221.436 348.532 221.335 349.231 219.14C349.178 220.825 349.431 222.288 348.666 223.69Z"/><path fill="#C6C4C5" fill-opacity="0.52941179" d="M451.724 399.831C453.616 399.766 455.173 399.804 457.064 399.867C454.682 400.324 454.006 400.414 451.587 400.454L451.724 399.831Z"/><path fill="#C6C4C5" fill-opacity="0.36862746" d="M275.967 233.955L277.153 234.688C275.762 235.314 275.552 235.428 274.106 235.782C274.875 234.717 274.85 234.733 275.967 233.955Z"/><path fill="#C6C4C5" fill-opacity="0.42352942" d="M332.837 219.083C333.62 218.685 333.614 218.752 334.513 218.853C333.991 219.256 333.802 219.274 333.153 219.143L332.837 219.083Z"/><path fill="#98D6C6" fill-opacity="0.67843139" d="M250.005 462.2C250.465 462.256 251.353 462.172 251.616 462.646C251.621 463.241 250.176 463.241 249.851 463.275L250.005 462.2Z"/><path fill="#B6B5B4" fill-opacity="0.25098041" d="M317.491 291.692L318.426 291.469L319.562 292.417L317.784 292.961L317.491 291.692Z"/><path fill="#A7A6A7" fill-opacity="0.3882353" d="M296.126 226.256L296.786 225.783L298.092 226.91C297.414 227.006 296.735 227.093 296.055 227.171L296.126 226.256Z"/><path fill="#B6B5B4" fill-opacity="0.39607844" d="M300.746 224.942L301.424 224.551L302.535 225.488L300.653 225.961L300.746 224.942Z"/></svg>