<?xml version="1.0" encoding="utf-8" ?><svg xmlns="http://www.w3.org/2000/svg" xmlns:xlink="http://www.w3.org/1999/xlink" width="1344" height="768" viewBox="0 0 1344 768"><path fill="#9FCDF3" d="M689.804 59.3645C738.154 56.7236 797.56 69.986 842.337 88.3108C935.602 126.751 1018.5 198.62 1058.31 292.203C1105.6 403.356 1082.55 528.141 988.474 606.463C980.355 613.223 970.695 621.582 960.86 625.704C993.624 600.199 1020.97 576.223 1042.45 539.894C1079.46 477.286 1087.22 406.302 1068.94 336.371C1043.43 238.772 974.419 166.256 889.567 116.078C803.327 66.4151 690.406 45.4506 595.255 80.374C522.699 107.475 463.808 162.186 431.438 232.565C416.926 264.716 407.73 299.011 404.208 334.111C403.7 339.307 403.849 344.764 403.481 350.006C400.303 390.257 403.346 430.757 412.504 470.08C419.499 500.366 428.645 524.801 439.267 553.731C435.165 548.867 431.143 536.266 428.695 530.004C378.192 400.832 387.49 243.844 491.001 142.82C547.865 87.3223 612.149 63.1357 689.804 59.3645Z"/><path fill="#9FCDF3" d="M713.064 134.863C785.325 132.163 857.45 164.993 911.715 211.973C1000.86 289.15 1032.25 427.141 947.842 520.013C943.406 524.894 906.534 560.664 901.655 555.58C902.29 553.819 910.477 548.051 912.376 546.726C967.498 508.266 996.76 446.749 992.576 379.638C988.353 311.898 956.268 258.982 906.559 214.48C852.113 167.85 780.772 136.241 708.177 139.265C649.567 141.602 594.351 167.387 554.927 210.831C498.607 272.215 484.297 350.549 497.572 429.343C497.787 430.618 497.797 432.913 496.901 433.855C488.693 418.395 489.619 357.715 492.012 338.724C498.25 289.233 519.885 242.956 553.857 206.438C597.448 160.265 649.584 136.725 713.064 134.863Z"/><path fill="#9FCDF3" d="M730.751 205.734C817.784 202.665 901.395 263.733 917.38 350.813C927.427 405.538 906.502 456.074 858.619 485.126C855.816 486.826 850.647 490.332 847.496 490.892C845.619 489.812 845.986 490.392 845.342 488.711C846.092 487.609 868.618 473.224 871.955 470.567C896.522 451.009 911.36 422.347 914.789 391.31C919.31 350.387 903.93 310.298 878.604 278.723C832.078 221.442 741.776 191.087 673.24 224.762C626.106 247.974 592.939 292.365 584.036 344.156C582.606 352.271 582.169 360.343 581.526 368.528C581.235 372.24 581.998 379.1 580.97 382.132C579.282 382.612 579.764 382.748 578.419 382.217C578.204 381.135 578.054 380.185 577.996 379.084C575.902 335.284 590.982 292.397 620.026 259.551C649.96 225.534 685.839 208.64 730.751 205.734Z"/><path fill="#9FCDF3" d="M747.359 270.062C800.483 266.957 849.528 301.739 854.457 356.922C857.775 394.076 834.261 430.153 797.746 439.303C793.9 440.267 789.298 442.317 786.104 439.56L786.413 438.685C787.96 437.771 799.23 435.449 804.603 433.195C822.649 425.79 836.99 411.482 844.439 393.451C852.515 373.593 851.51 350.17 843.284 330.513C836.901 312.879 818.618 295.827 802.056 286.677C742.939 254.014 671.179 289.229 663.959 356.979C663.541 360.898 663.906 369.055 662.179 372.419L660.991 371.921C660.789 370.851 660.645 369.831 660.584 368.742C657.74 318.286 697.523 274.124 747.359 270.062Z"/><path fill="#C0DAF0" fill-opacity="0.95294118" d="M1003.07 3.60087C1026.29 17.647 1048.43 33.3951 1069.32 50.7159C1168.47 131.458 1243.46 241.467 1264.85 369.02C1265.91 375.334 1265.56 379.121 1267.42 385.746C1266.88 391.162 1267.52 398.591 1266.71 402.75L1262.2 369.279C1246.39 252.386 1172.56 142.889 1085.19 66.6323C1070.18 53.534 1054.6 41.0971 1038.5 29.3571C1028.57 22.2141 1017.62 15.4514 1008.09 8.2096C1007.68 7.82918 1007.76 7.84195 1007.25 7.67135L1002.72 4.56049L1003.07 3.60087Z"/><path fill="#C0DAF0" fill-opacity="0.93725491" d="M397.67 104.962L398.841 106.005C386.512 121.051 374.589 135.669 364.183 152.164C320.136 221.98 300.644 304.581 301.747 386.645C302.194 419.887 303.545 449.753 312.007 482.121C313.797 488.968 314.016 496.867 316.613 503.662L315.774 505.554C301.367 448.336 296.181 400.618 301.59 341.404C308.111 270.014 327.857 204.022 367.755 143.995C376.855 130.305 387.291 117.632 397.67 104.962Z"/><path fill="#C0DAF0" fill-opacity="0.92156863" d="M453.817 52.8779C476.904 35.0336 518.186 11.9233 545.952 3.07562L546.025 4.01062C511.968 17.7115 485.593 31.5583 455.731 53.4175L453.817 52.8779Z"/><path fill="#C0DAF0" fill-opacity="0.92156863" d="M424.246 77.6577L424.914 78.9372C417.282 86.1968 409.96 94.8012 402.902 101.516C400.984 102.99 400.774 103.797 398.636 104.211C403.898 97.3545 417.89 83.3852 424.246 77.6577Z"/><path fill="#9FCDF3" fill-opacity="0.8392157" d="M437.32 66.131C441.699 62.3073 449.148 56.0609 453.817 52.8779L455.731 53.4175C450.211 57.7334 444.448 61.7781 439.195 66.5069L437.32 66.131Z"/><path fill="#F7F9FA" fill-opacity="0.57647061" d="M317.956 510.588C318.224 511.349 318.271 511.536 318.466 512.318L322.911 529.48C322.987 529.81 323.064 530.139 323.141 530.468L322.598 532.739C320.939 525.562 318.638 518.557 317.062 511.322L317.956 510.588Z"/><path fill="#F7F9FA" fill-opacity="0.81176472" d="M1268.06 407.139C1269.61 410.589 1269.23 427.709 1269.12 432.272C1268.37 427.989 1268.54 422.853 1267.92 418.118C1267.72 414.785 1267.29 410.881 1267.17 407.774L1268.06 407.139Z"/><path fill="#F7F9FA" fill-opacity="0.47450981" d="M1267.92 418.118C1268.54 422.853 1268.37 427.989 1269.12 432.272C1269.27 433.272 1269.54 438.173 1268.87 438.686C1267.75 437.765 1267.82 420.287 1267.92 418.118Z"/><path fill="#F7F9FA" fill-opacity="0.74117649" d="M1267.42 385.746C1267.84 389.325 1267.81 399.809 1268.04 404.362L1266.9 406.718C1266.7 405.066 1266.56 404.414 1266.71 402.75C1267.52 398.591 1266.88 391.162 1267.42 385.746Z"/><path fill="#C0DAF0" fill-opacity="0.91764706" d="M435.204 67.6674L436.449 68.8545C434.22 70.5434 432.116 72.5401 429.98 74.3798L428.572 73.7623C430.673 71.6889 433.455 69.5797 435.204 67.6674Z"/><path fill="#F7F9FA" fill-opacity="0.29019609" d="M325.908 540.45C326.644 542.196 329.244 549.866 328.602 551.548C327.938 551.763 327.163 548.19 326.995 547.546C326.425 545.366 325.794 543.096 325.322 540.901L325.908 540.45Z"/><path fill="#9FCDF3" fill-opacity="0.80392158" d="M424.246 77.6577C425.239 76.5298 427.346 74.8511 428.572 73.7623L429.98 74.3798C428.134 76.1937 426.955 77.3656 424.914 78.9372L424.246 77.6577Z"/><path fill="#F7F9FA" fill-opacity="0.68627453" d="M316.613 503.662C316.979 505.438 317.154 507.014 317.568 508.79L316.648 510.312C316.319 508.733 316.027 507.147 315.774 505.554L316.613 503.662Z"/><path fill="#F7F9FA" fill-opacity="0.14901961" d="M324.49 535.448C325.296 537.149 325.561 538.63 325.908 540.45L325.322 540.901C324.674 539.022 324.11 537.669 323.53 535.716L324.49 535.448Z"/><path fill="#C0DAF0" fill-opacity="0.61960787" d="M545.952 3.07562C546.739 2.67675 550.052 0.79494 550.793 1.50182C550.83 2.23179 546.785 3.70426 546.025 4.01062L545.952 3.07562Z"/><path fill="#9FCDF3" fill-opacity="0.76078433" d="M402.902 101.516C401.611 103.215 400.479 104.584 398.841 106.005L397.67 104.962C397.988 104.707 398.31 104.457 398.636 104.211C400.774 103.797 400.984 102.99 402.902 101.516Z"/><path fill="#9FCDF3" fill-opacity="0.74901962" d="M437.32 66.131L439.195 66.5069C438.154 67.4905 437.579 67.9808 436.449 68.8545L435.204 67.6674C435.939 67.1075 436.541 66.6419 437.32 66.131Z"/><path fill="#F7F9FA" fill-opacity="0.51764709" d="M323.141 530.468C323.576 532.349 323.889 533.603 324.49 535.448L323.53 535.716L322.598 532.739L323.141 530.468Z"/><path fill="#9FCDF3" fill-opacity="0.52156866" d="M1000.49 2.07327C1001.54 2.61518 1002.1 2.94651 1003.07 3.60087L1002.72 4.56049L1001.49 4.5578L1000.49 2.07327Z"/><path fill="#F7F9FA" fill-opacity="0.33725491" d="M1001.49 4.5578C1001.06 4.16093 999.26 2.86902 999.53 2.2766C999.813 2.13037 1000.15 2.12484 1000.49 2.07327L1001.49 4.5578Z"/><path fill="#F7F9FA" fill-opacity="0.98823529" d="M1266.9 406.718L1268.04 404.362L1268.06 407.139L1267.17 407.774L1266.9 406.718Z"/><path fill="#F7F9FA" fill-opacity="0.85882354" d="M317.568 508.79L317.956 510.588L317.062 511.322L316.648 510.312L317.568 508.79Z"/><path fill="#0580DE" d="M661.599 415.841C658.207 416.786 649.833 417.481 646.762 415.89L646.627 415.042C654.742 406.919 661.176 395.912 666.919 385.952C687.445 350.352 702.589 331.978 742.825 320.145C743.371 320.56 743.915 320.979 744.455 321.402C751.94 325.69 756.874 331.494 759.916 339.656C760.091 339.918 759.961 339.763 760.376 340.128C761.066 344.488 761.067 345.73 761.39 350.036C760.525 355.27 760.391 356.799 758.344 361.755C757.637 363.278 757.628 363.073 757.434 364.686C756.149 365.399 755.155 365.893 753.833 366.496C752.094 369.756 751.667 370.531 749.277 373.416L750.204 374.936C750.861 374.1 755.499 367.697 755.465 367.709C758.485 366.669 760.094 364.641 762.641 362.367C763.919 363.473 767.255 366.832 768.343 367.1C768.93 367.223 769.527 367.343 770.111 367.474L769.816 368.854C769.082 369.79 771.214 372.222 771.902 373.036C787.981 419.584 742.768 435.308 757.698 478.881C762.239 492.134 771.622 504.81 771.199 519.707C770.799 522.56 771.219 527.785 768.485 528.387C768.707 530.883 769.407 542.161 771.959 541.516C787.822 532.773 805.208 522.15 821.927 515.911C831.27 512.424 842.887 517.918 847.194 526.672C851.778 535.989 851.621 546.854 848.343 556.817C844.235 567.079 838.064 585.178 833.051 594.6C830.134 604.239 820.955 624.201 816.593 634.551C812.579 647.369 800.074 673.987 794.211 687.739L774.846 732.812C770.13 744.086 765.147 757.079 760.02 768L735.576 768L733.874 768L708.901 768L707.63 768L685.042 768L683.263 768L664.381 768L662.467 768L660.574 768C657.6 764 656.527 762.523 654.3 757.996C655.641 753.872 659.674 746.751 661.787 742.36L661.421 741.498L659.616 740.644C652.759 737.5 650.928 735.514 647.133 728.973C648.743 726.11 652.47 720.103 653.001 717.188C651.366 716.842 648.599 718.395 646.756 719.17C646.58 718.967 646.356 718.737 646.286 718.488C643.613 708.878 642.541 700.673 646.33 691.705L645.709 690.559L645.268 690.568C641.093 694.564 635.081 699.895 631.363 704.003L623.562 711.249C622.234 712.464 620.932 713.706 619.655 714.975C618.561 716.093 617.644 716.969 616.412 717.93L616.42 718.659C614.524 720.555 612.339 722.636 610.538 724.582L602.19 732.544C597.512 736.697 593.91 740.676 589.571 744.924C589.073 745.402 588.716 745.758 588.257 746.29C586.756 747.5 583.718 750.099 582.596 751.562C579.463 753.903 577.165 756.166 574.278 758.776C574.344 761.277 574.527 763.722 574.584 766.328L574.261 768L558.545 768L542.324 768L530.789 768C531.229 763.465 531.485 761.375 531.53 756.752C531.685 754.428 531.772 752.099 531.792 749.77C532.701 742.822 533.637 733.576 534.37 726.48C534.924 724.655 535.112 721.314 535.293 719.3C536.887 713.977 541.295 696.47 541.795 691.598L542.375 689.369L544.796 682.36C544.962 679.825 547.066 672.561 547.746 669.523C546.091 666.504 544.642 658.633 542.52 653.607C541.367 648.828 541.431 644.784 541.635 639.972C534.139 637.332 532.209 635.886 527.755 629.279L527.011 628.541C527.941 626.463 526.239 621.848 526.181 617.77C521.442 615.73 518.211 614.274 514.434 610.758L513.719 610.142C507.637 604.666 508.951 598.395 509.671 591.059C505.632 589.602 504.156 589.104 500.423 586.796L499.615 586.246C491.058 580.812 492.397 568.71 492.911 560.132C487.855 554.934 486.577 553.156 486.515 545.975C486.837 544.719 490.545 538.413 491.411 536.882C491.403 506.366 503.303 492.84 519.66 467.803C537.126 440.874 554.921 404.689 591.616 403.165C600.725 402.787 604.39 412.896 601.86 420.099C598.958 441.595 596.846 465.892 619.124 477.98C622.929 473.725 627.553 467.663 631.237 463.117C635.976 456.835 641.12 452.847 647.572 448.548C651.888 438.314 657.8 425.984 661.599 415.841ZM715.087 521.716L716.282 520.937L718.335 522.762C712.522 534.644 708.25 542.821 701.013 554.13C700.35 555.225 699.667 556.307 698.965 557.376C698.055 559.182 698.008 558.585 698.44 560.11C700.982 560.898 707.3 560.108 710.455 559.937C718.714 547.151 721.88 540.373 727.195 526.395L728.848 529.419C725.545 541.277 723.054 548.203 718.351 559.362C726.404 558.042 732.528 556.964 740.503 554.959C742.281 544.105 744.247 534.705 745.476 523.565C745.725 522.888 746.288 520.737 746.742 520.367C746.807 520.375 746.873 520.383 746.938 520.391C747.141 520.722 747.348 527.437 747.479 528.671C747.52 533.477 745.806 548.011 745.271 553.487C751.62 551.063 756.512 548.94 762.669 546.048C762.467 539.792 762.831 533.677 763.126 527.434C763.458 523.788 761.989 518.948 765.811 518.818L768.485 528.387C771.219 527.785 770.799 522.56 771.199 519.707C771.622 504.81 762.239 492.134 757.698 478.881C742.768 435.308 787.981 419.584 771.902 373.036C771.214 372.222 769.082 369.79 769.816 368.854L770.111 367.474C769.527 367.343 768.93 367.223 768.343 367.1C767.255 366.832 763.919 363.473 762.641 362.367C760.094 364.641 758.485 366.669 755.465 367.709C755.499 367.697 750.861 374.1 750.204 374.936L749.277 373.416C751.667 370.531 752.094 369.756 753.833 366.496C755.155 365.893 756.149 365.399 757.434 364.686C757.628 363.073 757.637 363.278 758.344 361.755C760.391 356.799 760.525 355.27 761.39 350.036C761.067 345.73 761.066 344.488 760.376 340.128C759.961 339.763 760.091 339.918 759.916 339.656C756.874 331.494 751.94 325.69 744.455 321.402C743.915 320.979 743.371 320.56 742.825 320.145C702.589 331.978 687.445 350.352 666.919 385.952C661.176 395.912 654.742 406.919 646.627 415.042L646.762 415.89C649.833 417.481 658.207 416.786 661.599 415.841C657.8 425.984 651.888 438.314 647.572 448.548C641.12 452.847 635.976 456.835 631.237 463.117C654.304 454.397 687.407 451.474 710.622 459.64C708.446 459.86 703.877 460.197 701.987 460.758C706.223 460.998 711.718 459.072 708.121 464.32C706.863 465.779 706.228 466.365 704.268 467.063C698.301 470.203 692.238 473.159 686.088 475.925C695.754 476.869 704.954 476.68 714.652 476.433C712.017 478.939 709.35 481.411 706.652 483.849C703.213 486.64 699.363 489.566 696.089 492.468C701.333 491.063 705.029 489.714 710.062 487.657L712.04 487.988C711.91 489.981 709.983 491.166 708.245 492.977C705.168 496.049 702.841 498.416 700.066 501.781C704.344 500.091 706.589 499.175 710.841 497.322C714.775 495.5 718.692 493.606 722.75 492.087C720.006 500.641 716.534 508.513 712.713 516.634C713.452 517.759 714.113 518.756 714.913 519.838C714.661 519.838 710.879 519.702 711.037 519.486C708.004 523.644 705.445 528.144 702.873 532.6C707.269 529.286 711.631 526.074 715.087 521.716Z"/><path fill="#F6A734" fill-opacity="0.98039216" d="M702.873 532.6C705.445 528.144 708.004 523.644 711.037 519.486C710.879 519.702 714.661 519.838 714.913 519.838C714.958 520.465 715.016 521.091 715.087 521.716C711.631 526.074 707.269 529.286 702.873 532.6Z"/><path fill="#F6A734" fill-opacity="0.97647059" d="M706.652 483.849C710.07 484.699 708.454 485.014 710.062 487.657C705.029 489.714 701.333 491.063 696.089 492.468C699.363 489.566 703.213 486.64 706.652 483.849Z"/><path fill="#F6A734" fill-opacity="0.82352942" d="M700.066 501.781C702.841 498.416 705.168 496.049 708.245 492.977C709.052 494.53 709.949 495.82 710.841 497.322C706.589 499.175 704.344 500.091 700.066 501.781Z"/><path fill="#FAB135" fill-opacity="0.8509804" d="M701.013 554.13C704.863 558.369 703.138 561.603 698.965 557.376C699.667 556.307 700.35 555.225 701.013 554.13Z"/><path fill="#FAB135" d="M661.599 415.841C658.207 416.786 649.833 417.481 646.762 415.89L646.627 415.042C654.742 406.919 661.176 395.912 666.919 385.952C687.445 350.352 702.589 331.978 742.825 320.145C743.371 320.56 743.915 320.979 744.455 321.402C751.94 325.69 756.874 331.494 759.916 339.656C760.091 339.918 759.961 339.763 760.376 340.128C761.066 344.488 761.067 345.73 761.39 350.036C760.525 355.27 760.391 356.799 758.344 361.755C757.637 363.278 757.628 363.073 757.434 364.686C756.149 365.399 755.155 365.893 753.833 366.496C752.094 369.756 751.667 370.531 749.277 373.416L750.204 374.936C750.861 374.1 755.499 367.697 755.465 367.709C758.485 366.669 760.094 364.641 762.641 362.367C763.919 363.473 767.255 366.832 768.343 367.1C768.93 367.223 769.527 367.343 770.111 367.474L769.816 368.854C769.082 369.79 771.214 372.222 771.902 373.036C787.981 419.584 742.768 435.308 757.698 478.881C762.239 492.134 771.622 504.81 771.199 519.707C770.799 522.56 771.219 527.785 768.485 528.387L765.811 518.818C761.989 518.948 763.458 523.788 763.126 527.434C762.831 533.677 762.467 539.792 762.669 546.048C756.512 548.94 751.62 551.063 745.271 553.487C745.806 548.011 747.52 533.477 747.479 528.671C747.348 527.437 747.141 520.722 746.938 520.391C746.873 520.383 746.807 520.375 746.742 520.367C746.288 520.737 745.725 522.888 745.476 523.565C744.247 534.705 742.281 544.105 740.503 554.959C732.528 556.964 726.404 558.042 718.351 559.362C723.054 548.203 725.545 541.277 728.848 529.419L727.195 526.395C721.88 540.373 718.714 547.151 710.455 559.937C707.3 560.108 700.982 560.898 698.44 560.11C698.008 558.585 698.055 559.182 698.965 557.376C703.138 561.603 704.863 558.369 701.013 554.13C708.25 542.821 712.522 534.644 718.335 522.762L716.282 520.937L715.087 521.716C715.016 521.091 714.958 520.465 714.913 519.838C714.113 518.756 713.452 517.759 712.713 516.634C716.534 508.513 720.006 500.641 722.75 492.087C718.692 493.606 714.775 495.5 710.841 497.322C709.949 495.82 709.052 494.53 708.245 492.977C709.983 491.166 711.91 489.981 712.04 487.988L710.062 487.657C708.454 485.014 710.07 484.699 706.652 483.849C709.35 481.411 712.017 478.939 714.652 476.433C704.954 476.68 695.754 476.869 686.088 475.925C692.238 473.159 698.301 470.203 704.268 467.063C706.228 466.365 706.863 465.779 708.121 464.32C711.718 459.072 706.223 460.998 701.987 460.758C703.877 460.197 708.446 459.86 710.622 459.64C687.407 451.474 654.304 454.397 631.237 463.117C635.976 456.835 641.12 452.847 647.572 448.548C651.888 438.314 657.8 425.984 661.599 415.841ZM730.236 378.81C738.626 380.979 743.252 379.177 749.277 373.416C751.667 370.531 752.094 369.756 753.833 366.496C755.155 365.893 756.149 365.399 757.434 364.686C757.628 363.073 757.637 363.278 758.344 361.755C755.323 359.703 756.472 359.913 754.995 356.206C752.98 351.219 751.648 349.126 746.659 346.427C743.53 346.725 742.55 346.666 739.332 346.474C735.327 347.268 728.444 350.867 725.234 353.447L725.823 354.316C720.713 359.587 716.657 363.244 720.927 371.016C722.04 373.977 724.348 375.402 726.539 377.338C728.097 378.117 728.517 378.353 730.236 378.81ZM683.384 406.307C682.778 406.848 678.355 412.876 677.518 413.995C682.146 412.279 684.791 411.542 689.404 409.26C685.622 406.537 684.61 409.099 683.384 406.307Z"/><path fill="#F7F9FA" fill-opacity="0.33333334" d="M725.823 354.316C726.627 353.954 727.489 353.334 728.396 353.372L728.567 353.559C726.326 359.278 725.932 357.64 725.955 365.019C723.138 363.852 723.364 363.041 722.155 362.442C719.223 363.049 720.911 369.175 720.927 371.016C716.657 363.244 720.713 359.587 725.823 354.316Z"/><path fill="#0580DE" fill-opacity="0.96078432" d="M683.384 406.307C684.61 409.099 685.622 406.537 689.404 409.26C684.791 411.542 682.146 412.279 677.518 413.995C678.355 412.876 682.778 406.848 683.384 406.307Z"/><path fill="#F7F9FA" fill-opacity="0.21960784" d="M736.327 376.429C737.968 376.122 739.563 375.942 741.213 376.199L741.273 376.321L741.355 376.371C741.682 377.066 738.998 377.568 738.615 377.601C736.862 377.757 735.105 377.87 733.351 378.022L736.327 376.429Z"/><path fill="#0580DE" d="M661.599 415.841C658.207 416.786 649.833 417.481 646.762 415.89L646.627 415.042C654.742 406.919 661.176 395.912 666.919 385.952C687.445 350.352 702.589 331.978 742.825 320.145C743.371 320.56 743.915 320.979 744.455 321.402C751.94 325.69 756.874 331.494 759.916 339.656C760.091 339.918 759.961 339.763 760.376 340.128C761.066 344.488 761.067 345.73 761.39 350.036C760.525 355.27 760.391 356.799 758.344 361.755C757.637 363.278 757.628 363.073 757.434 364.686C756.149 365.399 755.155 365.893 753.833 366.496C752.094 369.756 751.667 370.531 749.277 373.416C743.252 379.177 738.626 380.979 730.236 378.81C731.325 378.505 732.245 378.269 733.351 378.022C735.105 377.87 736.862 377.757 738.615 377.601C738.998 377.568 741.682 377.066 741.355 376.371L741.273 376.321L741.213 376.199C739.563 375.942 737.968 376.122 736.327 376.429C735.685 375.722 735.052 375.034 734.431 374.308C728.31 369.978 729.784 372.284 725.955 365.019C725.932 357.64 726.326 359.278 728.567 353.559L728.396 353.372C727.489 353.334 726.627 353.954 725.823 354.316C720.713 359.587 716.657 363.244 720.927 371.016C722.04 373.977 724.348 375.402 726.539 377.338L725.998 378.449L727.003 379.427C725.306 385.797 696.265 405.73 689.404 409.26C685.622 406.537 684.61 409.099 683.384 406.307L685.37 402.027C685.841 401.944 661.244 416.174 661.599 415.841ZM725.823 354.316C726.627 353.954 727.489 353.334 728.396 353.372L728.567 353.559C726.326 359.278 725.932 357.64 725.955 365.019C729.784 372.284 728.31 369.978 734.431 374.308C735.052 375.034 735.685 375.722 736.327 376.429C737.968 376.122 739.563 375.942 741.213 376.199L741.273 376.321L741.355 376.371C741.682 377.066 738.998 377.568 738.615 377.601C736.862 377.757 735.105 377.87 733.351 378.022C732.245 378.269 731.325 378.505 730.236 378.81C738.626 380.979 743.252 379.177 749.277 373.416C751.667 370.531 752.094 369.756 753.833 366.496C755.155 365.893 756.149 365.399 757.434 364.686C757.628 363.073 757.637 363.278 758.344 361.755C755.323 359.703 756.472 359.913 754.995 356.206C752.98 351.219 751.648 349.126 746.659 346.427C743.53 346.725 742.55 346.666 739.332 346.474C735.327 347.268 728.444 350.867 725.234 353.447L725.823 354.316Z"/><path fill="#181519" d="M725.234 353.447C728.444 350.867 735.327 347.268 739.332 346.474C742.55 346.666 743.53 346.725 746.659 346.427C751.648 349.126 752.98 351.219 754.995 356.206C756.472 359.913 755.323 359.703 758.344 361.755C757.637 363.278 757.628 363.073 757.434 364.686C756.149 365.399 755.155 365.893 753.833 366.496C752.094 369.756 751.667 370.531 749.277 373.416C743.252 379.177 738.626 380.979 730.236 378.81C731.325 378.505 732.245 378.269 733.351 378.022C735.105 377.87 736.862 377.757 738.615 377.601C738.998 377.568 741.682 377.066 741.355 376.371L741.273 376.321L741.213 376.199C739.563 375.942 737.968 376.122 736.327 376.429C735.685 375.722 735.052 375.034 734.431 374.308C728.31 369.978 729.784 372.284 725.955 365.019C725.932 357.64 726.326 359.278 728.567 353.559L728.396 353.372C727.489 353.334 726.627 353.954 725.823 354.316L725.234 353.447ZM749.508 350.217L749.108 349.963C746.152 348.051 745.356 347.25 741.448 347.89C738.892 348.308 746.238 351.293 748.431 353.474C748.813 352.397 749.173 351.311 749.508 350.217ZM743.928 357.801C745.881 356.519 749.943 353.492 745.071 352.186C739.882 355.01 737.973 354.714 743.928 357.801Z"/><path fill="#F7F9FA" fill-opacity="0.039215688" d="M748.431 353.474C746.238 351.293 738.892 348.308 741.448 347.89C745.356 347.25 746.152 348.051 749.108 349.963L749.508 350.217C749.173 351.311 748.813 352.397 748.431 353.474Z"/><path fill="#F7F9FA" d="M749.508 350.217C751.441 352.444 751.991 353.191 753.288 355.906L754.995 356.206C756.472 359.913 755.323 359.703 758.344 361.755C757.637 363.278 757.628 363.073 757.434 364.686C756.149 365.399 755.155 365.893 753.833 366.496C752.094 369.756 751.667 370.531 749.277 373.416C743.252 379.177 738.626 380.979 730.236 378.81C731.325 378.505 732.245 378.269 733.351 378.022C735.105 377.87 736.862 377.757 738.615 377.601C738.998 377.568 741.682 377.066 741.355 376.371L741.273 376.321L741.213 376.199C739.563 375.942 737.968 376.122 736.327 376.429C735.685 375.722 735.052 375.034 734.431 374.308C748.997 374.581 753.779 366.628 748.431 353.474C748.813 352.397 749.173 351.311 749.508 350.217Z"/><path fill="#06305D" d="M754.995 356.206C756.472 359.913 755.323 359.703 758.344 361.755C757.637 363.278 757.628 363.073 757.434 364.686C756.149 365.399 755.155 365.893 753.833 366.496C754.389 361.825 754.467 360.497 753.288 355.906L754.995 356.206Z"/><path fill="#181519" d="M725.234 353.447L725.823 354.316C720.713 359.587 716.657 363.244 720.927 371.016C722.04 373.977 724.348 375.402 726.539 377.338L725.998 378.449C714.787 372.377 715.396 360.892 725.234 353.447Z"/><path fill="#06305D" d="M739.332 346.474C742.604 345.784 743.364 345.656 746.659 346.427C743.53 346.725 742.55 346.666 739.332 346.474Z"/><path fill="#181519" d="M749.277 373.416L750.204 374.936C741.753 382.254 721.566 414.169 715.56 424.618L727.06 418.173C716.127 430.455 710.005 435.808 696.714 445.82C718.456 453.077 726.561 456.64 745.245 470.312L743.234 470.792C734.147 465.796 720.773 461.504 710.622 459.64C687.407 451.474 654.304 454.397 631.237 463.117C635.976 456.835 641.12 452.847 647.572 448.548C651.888 438.314 657.8 425.984 661.599 415.841C661.244 416.174 685.841 401.944 685.37 402.027L683.384 406.307C682.778 406.848 678.355 412.876 677.518 413.995C682.146 412.279 684.791 411.542 689.404 409.26C696.265 405.73 725.306 385.797 727.003 379.427L725.998 378.449L726.539 377.338C728.097 378.117 728.517 378.353 730.236 378.81C738.626 380.979 743.252 379.177 749.277 373.416Z"/><path fill="#2D6DA3" d="M763.126 527.434C762.543 522.609 761.57 510.123 761.375 505.32C763.423 510.665 764.366 512.983 765.811 518.818C761.989 518.948 763.458 523.788 763.126 527.434Z"/><path fill="#2D6DA3" d="M746.251 509.973C746.441 509.731 746.949 509.092 747.131 508.959L747.135 509.031C747.334 509.223 747.89 513.186 748.066 513.999C747.952 519.273 748.531 523.373 747.479 528.671C747.348 527.437 747.141 520.722 746.938 520.391C746.873 520.383 746.807 520.375 746.742 520.367C746.288 520.737 745.725 522.888 745.476 523.565C745.672 518.667 746.281 515.107 746.251 509.973Z"/><path fill="#B8872F" d="M746.251 509.973C746.179 508.502 746.212 498.012 747.159 497.734C747.858 498.597 748.177 512.104 748.066 513.999C747.89 513.186 747.334 509.223 747.135 509.031L747.131 508.959C746.949 509.092 746.441 509.731 746.251 509.973Z"/><path fill="#2D6DA3" d="M728.96 520.502L730.448 520.566C730.086 523.888 729.464 526.236 728.848 529.419L727.195 526.395C727.455 524.558 728.193 522.186 728.96 520.502Z"/><path fill="#1A73E8" d="M716.282 520.937C717.788 518.876 719.628 517.225 721.468 515.481C720.388 518 719.492 520.255 718.335 522.762L716.282 520.937Z"/><path fill="#543F26" d="M730.757 513.131C730.932 514.504 731.181 515.834 731.424 517.196C731.033 518.401 730.76 519.338 730.448 520.566L728.96 520.502C729.626 518.062 730.226 515.604 730.757 513.131Z"/><path fill="#543F26" d="M745.245 470.312C746.003 470.851 747.944 472.121 748.296 472.882C747.902 473.912 743.905 471.173 743.234 470.792L745.245 470.312Z"/><path fill="#B8872F" d="M730.757 513.131C730.908 512.222 731.126 510.649 731.697 509.904C731.801 509.893 731.905 509.882 732.009 509.871C732.399 510.455 731.596 516.258 731.424 517.196C731.181 515.834 730.932 514.504 730.757 513.131Z"/><path fill="#0580DE" d="M491.411 536.882C491.403 506.366 503.303 492.84 519.66 467.803C537.126 440.874 554.921 404.689 591.616 403.165C600.725 402.787 604.39 412.896 601.86 420.099C598.958 441.595 596.846 465.892 619.124 477.98C611.158 488.908 600.755 507.729 593.906 519.801L593.463 519.716C592.423 521.28 591.509 522.436 590.753 524.163L591.357 525.24C570.215 565.628 552.729 624.212 547.746 669.523C546.091 666.504 544.642 658.633 542.52 653.607C541.367 648.828 541.431 644.784 541.635 639.972C534.139 637.332 532.209 635.886 527.755 629.279L527.011 628.541C527.941 626.463 526.239 621.848 526.181 617.77C521.442 615.73 518.211 614.274 514.434 610.758L513.719 610.142C507.637 604.666 508.951 598.395 509.671 591.059C505.632 589.602 504.156 589.104 500.423 586.796L499.615 586.246C491.058 580.812 492.397 568.71 492.911 560.132C487.855 554.934 486.577 553.156 486.515 545.975C486.837 544.719 490.545 538.413 491.411 536.882Z"/><path fill="#181519" d="M590.753 524.163L591.357 525.24C570.215 565.628 552.729 624.212 547.746 669.523C546.091 666.504 544.642 658.633 542.52 653.607C541.367 648.828 541.431 644.784 541.635 639.972C534.139 637.332 532.209 635.886 527.755 629.279L527.011 628.541C527.941 626.463 526.239 621.848 526.181 617.77C521.442 615.73 518.211 614.274 514.434 610.758L513.719 610.142C507.637 604.666 508.951 598.395 509.671 591.059C505.632 589.602 504.156 589.104 500.423 586.796L499.615 586.246C491.058 580.812 492.397 568.71 492.911 560.132C487.855 554.934 486.577 553.156 486.515 545.975C486.837 544.719 490.545 538.413 491.411 536.882C491.885 544.732 493.219 549.521 499.665 554.416L501.029 554.039C498.136 566.317 501.041 581.847 516.776 580.906C517.282 581.285 517.746 581.53 518.062 582.007C517.166 592.162 519.749 608.749 533.424 607.67L535.542 608.592C536.703 618.681 537.659 624.97 547.231 629.803C554.54 593.524 571.837 555.887 590.753 524.163Z"/><path fill="#181519" d="M601.86 420.099C598.958 441.595 596.846 465.892 619.124 477.98C611.158 488.908 600.755 507.729 593.906 519.801L593.463 519.716C568.699 498.222 587.211 442.709 601.86 420.099Z"/><path fill="#181519" d="M558.591 539.637L559.266 541.013C544.541 561.194 536.041 583.474 535.542 608.592L533.424 607.67C533.268 580.962 542.088 560.113 558.591 539.637Z"/><path fill="#181519" d="M547.999 511.566L548.622 512.513C534.312 527.146 521.172 562.05 518.062 582.007C517.746 581.53 517.282 581.285 516.776 580.906C516.496 577.073 517.823 571.754 518.727 567.996C523.774 547.093 533.819 527.729 547.999 511.566Z"/><path fill="#031225" d="M499.665 554.416C505.358 528.926 513.799 510.169 532.559 490.937C535.729 487.687 539.366 485.389 542.823 482.349L543.737 482.342C543.588 482.754 540.881 485.416 540.372 485.85C520.872 502.464 505.599 528.547 501.029 554.039L499.665 554.416Z"/><path fill="#06305D" d="M558.591 539.637C559.332 538.692 562.016 535.376 562.954 535.156C564.88 534.703 559.416 540.848 559.266 541.013L558.591 539.637Z"/><path fill="#2D6DA3" d="M547.999 511.566C550.671 505.516 553.973 507.711 548.622 512.513L547.999 511.566Z"/><path fill="#0580DE" d="M710.264 696.189C713.916 692.758 718.368 696.675 725.732 686.951C729.762 689.977 731.597 690.727 736.498 691.849C736.217 693.053 735.978 693.897 735.606 695.078C729.632 710.772 723.571 726.432 717.421 742.057C714.927 748.421 709.25 761.937 707.63 768L685.042 768L683.263 768L664.381 768L662.467 768L660.574 768C657.6 764 656.527 762.523 654.3 757.996C655.641 753.872 659.674 746.751 661.787 742.36L661.421 741.498L659.616 740.644C652.759 737.5 650.928 735.514 647.133 728.973C648.743 726.11 652.47 720.103 653.001 717.188C651.366 716.842 648.599 718.395 646.756 719.17C646.58 718.967 646.356 718.737 646.286 718.488C643.613 708.878 642.541 700.673 646.33 691.705C655.328 697.011 659.75 695.028 667.436 688.716C672.853 698.156 676.355 696.323 685.672 697.645L686.548 697.897C687.304 696.782 694.323 690.922 697.15 687.425L697.519 687.865C702.292 693.504 702.245 692.812 709.494 695.557L710.264 696.189Z"/><path fill="#0580DE" d="M667.436 688.716C672.853 698.156 676.355 696.323 685.672 697.645L686.548 697.897L664.381 768L662.467 768L660.574 768C657.6 764 656.527 762.523 654.3 757.996C655.641 753.872 659.674 746.751 661.787 742.36L661.421 741.498L659.616 740.644C652.759 737.5 650.928 735.514 647.133 728.973C648.743 726.11 652.47 720.103 653.001 717.188C651.366 716.842 648.599 718.395 646.756 719.17C646.58 718.967 646.356 718.737 646.286 718.488C643.613 708.878 642.541 700.673 646.33 691.705C655.328 697.011 659.75 695.028 667.436 688.716Z"/><path fill="#181519" d="M685.672 697.645L686.548 697.897L664.381 768L662.467 768C665.509 760.106 669.323 745.912 671.945 737.362C676.081 723.975 680.66 710.729 685.672 697.645Z"/><path fill="#F7F9FA" d="M659.616 740.644C662.424 737.443 664.749 734.322 667.534 731.074C666.08 734.014 663.867 740.204 661.421 741.498L659.616 740.644Z"/><path fill="#0580DE" d="M697.15 687.425L697.519 687.865C702.292 693.504 702.245 692.812 709.494 695.557L710.264 696.189C708.435 704.016 703.755 716.162 700.936 723.988L685.042 768L683.263 768L664.381 768L686.548 697.897C687.304 696.782 694.323 690.922 697.15 687.425Z"/><path fill="#181519" d="M709.494 695.557L710.264 696.189C708.435 704.016 703.755 716.162 700.936 723.988L685.042 768L683.263 768C685.776 762.33 689.621 750.241 691.955 743.854C697.919 727.798 703.766 711.699 709.494 695.557Z"/><path fill="#0580DE" d="M766.212 686.583C769.815 684.968 774.483 685.103 778.918 682.608C792.434 675.003 800.963 659.873 808.898 647.131C811.373 643.158 813.532 638.341 816.258 634.959L816.593 634.551C812.579 647.369 800.074 673.987 794.211 687.739L774.846 732.812C770.13 744.086 765.147 757.079 760.02 768L735.576 768L733.874 768L708.901 768L707.63 768C709.25 761.937 714.927 748.421 717.421 742.057C723.571 726.432 729.632 710.772 735.606 695.078C735.978 693.897 736.217 693.053 736.498 691.849C737.006 691.906 737.515 691.949 738.016 692.037C745.412 691.554 749.346 689.798 754.627 684.585C758.284 685.436 761.992 685.871 765.711 686.377L766.212 686.583Z"/><path fill="#0580DE" d="M738.016 692.037C745.412 691.554 749.346 689.798 754.627 684.585C758.284 685.436 761.992 685.871 765.711 686.377L766.212 686.583C765.169 693.513 756.793 713.359 753.704 721.208L735.576 768L733.874 768L708.901 768L707.63 768C709.25 761.937 714.927 748.421 717.421 742.057C723.571 726.432 729.632 710.772 735.606 695.078C735.978 693.897 736.217 693.053 736.498 691.849C737.006 691.906 737.515 691.949 738.016 692.037Z"/><path fill="#031225" d="M765.711 686.377L766.212 686.583C765.169 693.513 756.793 713.359 753.704 721.208L735.576 768L733.874 768C743.396 741.047 755.857 713.59 765.711 686.377Z"/><path fill="#031225" d="M735.606 695.078L736.523 695.94C728.113 718.431 718.515 746.343 708.901 768L707.63 768C709.25 761.937 714.927 748.421 717.421 742.057C723.571 726.432 729.632 710.772 735.606 695.078Z"/><path fill="#06305D" d="M736.498 691.849C737.006 691.906 737.515 691.949 738.016 692.037C737.354 693.535 737.011 694.377 736.523 695.94L735.606 695.078C735.978 693.897 736.217 693.053 736.498 691.849Z"/><path fill="#181519" d="M547.563 689.425C556.547 653.085 583.782 593.195 605.654 562.057C600.178 574.918 594.083 588.538 589.108 601.507C568.219 655.954 554.007 711.009 542.324 768L530.789 768C531.229 763.465 531.485 761.375 531.53 756.752C531.685 754.428 531.772 752.099 531.792 749.77C532.701 742.822 533.637 733.576 534.37 726.48C534.924 724.655 535.112 721.314 535.293 719.3C536.887 713.977 541.295 696.47 541.795 691.598L542.375 689.369L544.796 682.36C545.443 685.794 545.41 686.493 545.156 690L547.563 689.425Z"/><path fill="#2D6DA3" d="M543.927 701.881C544.014 699.085 543.9 692.092 545.156 690L547.563 689.425C546.164 693.542 545.14 697.709 543.927 701.881Z"/><path fill="#181519" d="M774.614 671.89C791.829 665.388 813.62 633.17 821.417 617.185C824.153 611.576 829.762 599.717 832.766 595.037L833.051 594.6C830.134 604.239 820.955 624.201 816.593 634.551L816.258 634.959C813.532 638.341 811.373 643.158 808.898 647.131C800.963 659.873 792.434 675.003 778.918 682.608C774.483 685.103 769.815 684.968 766.212 686.583L765.711 686.377C761.992 685.871 758.284 685.436 754.627 684.585C749.346 689.798 745.412 691.554 738.016 692.037C737.515 691.949 737.006 691.906 736.498 691.849C731.597 690.727 729.762 689.977 725.732 686.951C718.368 696.675 713.916 692.758 710.264 696.189L709.494 695.557C702.245 692.812 702.292 693.504 697.519 687.865L697.15 687.425C694.323 690.922 687.304 696.782 686.548 697.897L685.672 697.645C676.355 696.323 672.853 698.156 667.436 688.716C659.75 695.028 655.328 697.011 646.33 691.705L645.709 690.559L645.983 688.064C647.103 688.579 648.267 688.993 649.46 689.302C658.677 691.773 668.434 683.501 674.17 677.132C688.988 660.677 700.556 640.995 706.154 619.5L707.065 620.743C699.138 650.483 690.996 662.492 670.666 685.107C685.109 692.276 690.454 687.63 700.813 677.107L703.058 678.503C702.829 679.616 702.939 679.466 703.215 680.653C704.633 682.336 706.434 683.306 708.623 683.778C729.141 688.2 740.695 653.923 747.509 640.058C751.663 631.607 755.586 618.075 757.599 609.204L758.781 609.033C754.64 630.875 749.141 646.656 737.748 666.031C735.639 669.617 732.191 673.362 734.1 676.349C743.181 681.984 750.818 678.145 756.617 670.427L758.87 671.053C762.902 673.904 766.384 673.884 771.04 672.642C772.949 672.804 773.031 672.842 774.614 671.89Z"/><path fill="#031225" d="M558.545 768C570.036 757.592 583.565 747.538 595.187 736.793C598.307 733.91 613.909 719.474 616.412 717.93L616.42 718.659C614.524 720.555 612.339 722.636 610.538 724.582L602.19 732.544C597.512 736.697 593.91 740.676 589.571 744.924C589.073 745.402 588.716 745.758 588.257 746.29C586.756 747.5 583.718 750.099 582.596 751.562C579.463 753.903 577.165 756.166 574.278 758.776C574.344 761.277 574.527 763.722 574.584 766.328L574.261 768L558.545 768Z"/><path fill="#181519" d="M681.225 623.57L682.058 624.511C675.19 646.089 661.459 673.028 640.387 683.868C642.524 685.699 643.578 686.62 645.983 688.064L645.709 690.559L645.268 690.568C643.564 688.572 639.763 685.097 637.751 683.14C658.127 669.584 672.991 646.264 681.225 623.57Z"/><path fill="#181519" d="M732.528 615.438C732.705 616.217 732.91 616.98 733.11 617.753C727.976 638.533 717.334 662.372 703.058 678.503L700.813 677.107C714.975 661.286 726.611 635.664 732.528 615.438Z"/><path fill="#181519" d="M779.631 605.176L781.095 603.72C778.1 625.647 771.972 652.761 758.87 671.053L756.617 670.427C766.125 656.185 778.45 621.825 779.631 605.176Z"/><path fill="#031225" d="M811.867 583.068C813.328 584.744 811.992 587.873 812.567 591.267C811.878 614.774 798.115 649.45 780.712 665.786C779.361 667.054 775.17 670.564 774.614 671.89C773.031 672.842 772.949 672.804 771.04 672.642C795.689 654.005 811.839 613.342 811.867 583.068Z"/><path fill="#F6A734" d="M697.098 464.349C696.376 464.26 691.455 463.971 691.445 463.2C692.069 462.592 700.762 460.827 701.987 460.758C706.223 460.998 711.718 459.072 708.121 464.32C706.863 465.779 706.228 466.365 704.268 467.063C700.924 462.687 700.375 466.448 697.098 464.349Z"/><path fill="#1A73E8" d="M697.098 464.349C700.051 463.979 705.122 464.132 708.121 464.32C706.863 465.779 706.228 466.365 704.268 467.063C700.924 462.687 700.375 466.448 697.098 464.349Z"/><path fill="#074E97" d="M811.867 583.068C811.765 581.612 811.289 569.816 811.779 569.427C812.557 569.756 814.169 588.885 812.567 591.267C811.992 587.873 813.328 584.744 811.867 583.068Z"/><path fill="#074E97" d="M779.631 605.176C779.828 603.797 780.326 594.904 781.228 595.025L781.103 595.194C782.15 596.431 781.309 602.002 781.095 603.72L779.631 605.176Z"/><path fill="#074E97" d="M732.528 615.438C732.646 613.822 733.402 607.874 734.293 606.811L734.535 606.774C735.076 608.164 733.664 615.924 733.11 617.753C732.91 616.98 732.705 616.217 732.528 615.438Z"/><path fill="#074E97" d="M759.618 599.082C759.587 602.215 759.616 606.04 758.781 609.033L757.599 609.204C758.057 604.622 758.57 603.51 759.618 599.082Z"/><path fill="#074E97" d="M706.154 619.5C706.396 618.025 706.767 615.575 707.486 614.309L707.697 614.212C708.538 615.104 707.362 619.551 707.065 620.743L706.154 619.5Z"/><path fill="#074E97" d="M593.463 519.716L593.906 519.801C593.152 522.207 592.735 523.133 591.357 525.24L590.753 524.163C591.509 522.436 592.423 521.28 593.463 519.716Z"/><path fill="#06305D" d="M681.225 623.57C681.467 622.83 681.854 620.692 682.693 620.605C683.139 621.128 682.251 623.799 682.058 624.511L681.225 623.57Z"/><path fill="#0580DE" d="M486.515 545.975C486.577 553.156 487.855 554.934 492.911 560.132C492.397 568.71 491.058 580.812 499.615 586.246L500.423 586.796C504.156 589.104 505.632 589.602 509.671 591.059C508.951 598.395 507.637 604.666 513.719 610.142L514.434 610.758C518.211 614.274 521.442 615.73 526.181 617.77C526.239 621.848 527.941 626.463 527.011 628.541L527.755 629.279C532.209 635.886 534.139 637.332 541.635 639.972C541.431 644.784 541.367 648.828 542.52 653.607C538.23 663.697 534.251 675.535 524.645 681.613L523.277 681.64C522.381 679.943 522.355 679.526 522.056 677.617L521.063 677.352C515.079 682.903 511.602 696.213 504.801 703.695C500.049 703.877 495.755 704.581 491.8 701.869L488.928 701.535C482.478 714.338 474.709 728.415 460.854 734.409L457.408 736.42C454.686 737.706 450.545 738.767 447.851 736.999C446.037 735.825 444.741 734 444.231 731.899C443.951 730.774 443.623 729.757 443.291 728.646C439.593 739.755 427.144 760.071 416.803 765.881L413.981 768L405.227 768C405.787 763.527 408.217 757.812 407.658 755.295L406.709 755.433C404.155 756.063 396.818 764.498 391.892 767.505L391.864 768L389.11 768L374.017 768C374.101 764.274 374.482 762.025 376.121 758.609C382.312 745.706 389.253 732.825 395.9 720.151L427.584 659.142L467.075 582.781C473.212 571.001 479.92 557.361 486.515 545.975Z"/><path fill="#0580DE" d="M514.434 610.758C518.211 614.274 521.442 615.73 526.181 617.77C526.239 621.848 527.941 626.463 527.011 628.541L527.755 629.279C532.209 635.886 534.139 637.332 541.635 639.972C541.431 644.784 541.367 648.828 542.52 653.607C538.23 663.697 534.251 675.535 524.645 681.613L523.277 681.64C522.381 679.943 522.355 679.526 522.056 677.617L521.063 677.352C515.079 682.903 511.602 696.213 504.801 703.695C500.049 703.877 495.755 704.581 491.8 701.869L488.928 701.535C482.478 714.338 474.709 728.415 460.854 734.409L457.408 736.42C454.686 737.706 450.545 738.767 447.851 736.999C446.037 735.825 444.741 734 444.231 731.899C443.951 730.774 443.623 729.757 443.291 728.646C443.295 725.055 506.006 625.67 514.434 610.758Z"/><path fill="#0580DE" d="M527.755 629.279C532.209 635.886 534.139 637.332 541.635 639.972C541.431 644.784 541.367 648.828 542.52 653.607C538.23 663.697 534.251 675.535 524.645 681.613L523.277 681.64C522.381 679.943 522.355 679.526 522.056 677.617L521.063 677.352C515.079 682.903 511.602 696.213 504.801 703.695C500.049 703.877 495.755 704.581 491.8 701.869L488.928 701.535C482.478 714.338 474.709 728.415 460.854 734.409C467.625 723.315 475.743 711.531 482.839 700.489L519.428 642.413C521.924 638.952 525.464 633.086 527.755 629.279Z"/><path fill="#F7F9FA" d="M488.928 701.535C491.426 695.872 492.881 692.946 491.8 701.869L488.928 701.535Z"/><path fill="#031225" d="M518.104 642.046L519.428 642.413L482.839 700.489C475.743 711.531 467.625 723.315 460.854 734.409L457.408 736.42C462.59 729.14 468.35 719.644 473.334 711.986L518.104 642.046Z"/><path fill="#06305D" d="M518.104 642.046C519.005 640.016 525.383 630.268 527.011 628.541L527.755 629.279C525.464 633.086 521.924 638.952 519.428 642.413L518.104 642.046Z"/><path fill="#0580DE" d="M391.892 767.505C392.352 765.306 407.963 740.824 410.356 736.796C440.108 686.715 471.392 637.287 500.423 586.796C504.156 589.104 505.632 589.602 509.671 591.059C508.951 598.395 507.637 604.666 513.719 610.142L514.434 610.758C506.006 625.67 443.295 725.055 443.291 728.646C439.593 739.755 427.144 760.071 416.803 765.881L413.981 768L405.227 768C405.787 763.527 408.217 757.812 407.658 755.295L406.709 755.433C404.155 756.063 396.818 764.498 391.892 767.505Z"/><path fill="#031225" d="M513.719 610.142L514.434 610.758C506.006 625.67 443.295 725.055 443.291 728.646C439.593 739.755 427.144 760.071 416.803 765.881C418.097 763.334 420.35 760.372 421.925 757.922C433.435 740.018 444.246 721.725 455.637 703.736L513.719 610.142Z"/><path fill="#F7F9FA" d="M406.709 755.433C406.097 753.077 410.3 748.117 411.926 745.989C410.92 749.05 410.131 753.822 407.658 755.295L406.709 755.433Z"/><path fill="#031225" d="M499.615 586.246L500.423 586.796C471.392 637.287 440.108 686.715 410.356 736.796C407.963 740.824 392.352 765.306 391.892 767.505L391.864 768L389.11 768C398.451 753.749 407.392 738.128 416.358 723.516L478.404 621.662C485.484 609.99 492.274 597.651 499.615 586.246Z"/><path fill="#9FCDF3" d="M812.405 0L822.836 0C826.304 2.56133 848.212 9.60128 853.819 11.8023C970.552 57.6273 1078.72 144.412 1133.92 258.713C1147.91 287.684 1159.31 319.556 1165.69 351.276C1168.21 364.114 1173.22 394.579 1172.63 407.625C1169.21 412.575 1172.37 415.955 1170.43 420.325C1168.66 417.999 1170.1 404.696 1168.39 403.011C1170.08 390.417 1165.17 362.47 1162.25 349.25C1131.44 209.695 1029.41 104.509 906.13 39.7706C887.483 29.9887 868.32 21.2235 848.726 13.5133C840.758 10.383 817.931 3.8947 812.405 0Z"/><path fill="#FAB135" d="M459.08 768C466.452 762.079 473.998 754.011 481.117 747.643C501.461 729.448 522.03 707.128 542.375 689.369L541.795 691.598C541.295 696.47 536.887 713.977 535.293 719.3C535.112 721.314 534.924 724.655 534.37 726.48C531.772 728.877 529.937 731.126 527.752 733.913C526 735.98 524.391 738.245 522.685 740.352C521.933 741.208 521.3 741.963 520.598 742.856C519.351 744.356 518.062 745.821 516.731 747.247L516.08 748.241C515.059 749.46 512.597 752.387 511.768 753.63C507.749 758.885 504.576 762.242 501.152 768L484.326 768C487.643 765.059 490.676 762.012 494.043 759.073C495.528 757.915 498.122 755.321 499.512 753.925C501.78 751.779 504.112 749.772 506.367 747.576C490.851 745.388 505.058 742.61 494.634 740.511C493.154 742.374 491.908 744.115 490.504 746.004C489.242 747.892 487.428 750.417 486.373 752.326C483.328 757.311 479.683 762.396 477.933 768L459.08 768Z"/><path fill="#0580DE" d="M459.08 768C466.452 762.079 473.998 754.011 481.117 747.643C501.461 729.448 522.03 707.128 542.375 689.369L541.795 691.598C529.019 704.017 504.965 726.737 494.634 740.511C493.154 742.374 491.908 744.115 490.504 746.004C489.242 747.892 487.428 750.417 486.373 752.326C483.328 757.311 479.683 762.396 477.933 768L459.08 768Z"/><path fill="#1A73E8" d="M506.367 747.576C515.514 738.227 525.864 728.529 535.293 719.3C535.112 721.314 534.924 724.655 534.37 726.48C531.772 728.877 529.937 731.126 527.752 733.913C526 735.98 524.391 738.245 522.685 740.352C521.933 741.208 521.3 741.963 520.598 742.856C519.351 744.356 518.062 745.821 516.731 747.247L516.08 748.241C515.059 749.46 512.597 752.387 511.768 753.63C507.749 758.885 504.576 762.242 501.152 768L484.326 768C487.643 765.059 490.676 762.012 494.043 759.073C495.528 757.915 498.122 755.321 499.512 753.925C501.78 751.779 504.112 749.772 506.367 747.576Z"/><path fill="#181519" d="M765.601 322.083C773.534 322.853 775.017 328.23 770.311 334.284C762.431 334.021 762.315 327.767 765.601 322.083Z"/><path fill="#FAB135" d="M631.363 704.003C631.396 709.312 631.358 714.621 631.25 719.93C631.378 727.546 631.003 754.044 630.096 761.489C629.847 757.866 631.214 747.375 628.156 746.793C627.553 753.514 626.767 759.408 625.861 766.06C620.993 761.78 624.839 756.705 622.689 751.583C620.722 746.897 613.247 746.166 612.873 751.881L612.669 752.11L612.728 752.063C612.029 751.304 612.372 750.535 612.157 749.225C612.341 743.272 612.83 737.635 613.549 731.733C613.805 729.635 613.347 727.505 613.464 725.306C611.995 726.146 612.34 726.229 610.868 726.23L610.538 724.582C612.339 722.636 614.524 720.555 616.42 718.659C616.573 720.018 615.273 722.356 616.879 722.39C620.054 722.455 620.974 718.513 624.096 716.599C624.304 713.979 624.169 713.743 623.562 711.249L631.363 704.003Z"/><path fill="#1A73E8" d="M631.25 719.93C631.378 727.546 631.003 754.044 630.096 761.489C629.847 757.866 631.214 747.375 628.156 746.793C627.829 743.382 630.317 723.533 631.25 719.93Z"/><path fill="#C0DAF0" fill-opacity="0.96862745" d="M1168.39 403.011C1170.1 404.696 1168.66 417.999 1170.43 420.325C1172.37 415.955 1169.21 412.575 1172.63 407.625C1175.65 497.676 1146.48 576.439 1087.58 644.125L1086.27 643.517C1132.81 589.432 1159.77 531.169 1167.92 459.505C1169.84 442.634 1167.58 420.594 1168.39 403.011Z"/><path fill="#FAB135" fill-opacity="0.96470588" d="M610.538 724.582L610.868 726.23C612.34 726.229 611.995 726.146 613.464 725.306C612.242 728.56 609.516 740.865 609.24 744.158C607.596 751.821 606.375 760.512 604.587 768L589.295 768C589.753 760.539 590.116 753.825 590.427 746.341L590.827 746.221C591.175 746.119 591.596 745.928 591.896 746.09C591.943 746.466 591.881 746.922 592.122 747.236C592.58 747.179 592.851 746.754 592.919 746.306C593.342 743.494 595.765 743.501 597.837 742.442C599.426 741.63 598.663 738.848 600.495 738.184C603.987 736.759 603.568 735.384 602.19 732.544L610.538 724.582Z"/><path fill="#181519" d="M780.858 315.25C797.675 318.448 805.051 329.456 804.109 346.234C802.434 344.066 797.315 335.898 794.196 339.078L793.14 338.302C787.331 336.618 779.205 340.986 775.085 344.933L774.008 343.193C780.097 335.016 785.396 327.876 780.978 317.746L780.858 315.25Z"/><path fill="#FAB135" fill-opacity="0.90980393" d="M612.157 749.225C612.372 750.535 612.029 751.304 612.728 752.063L612.669 752.11L612.873 751.881C613.247 746.166 620.722 746.897 622.689 751.583C624.839 756.705 620.993 761.78 625.861 766.06L625.825 768L625.289 768C621.824 764.339 616.66 757.854 610.704 762.066C611.076 757.537 611.608 753.669 611.786 749.099L612.157 749.225Z"/><path fill="#FAB135" fill-opacity="0.85882354" d="M582.596 751.562C583.718 750.099 586.756 747.5 588.257 746.29C587.769 754.752 586.034 760.036 585.125 768L574.261 768L574.584 766.328C575.484 760.812 588.167 755.398 582.596 751.562Z"/><path fill="#FAB135" fill-opacity="0.85490197" d="M522.685 740.352C524.391 738.245 526 735.98 527.752 733.913C528.085 734.218 528.422 734.518 528.763 734.813C532.563 738.149 529.175 741.188 529.518 743.083C530.86 750.498 524.972 746.713 525.799 755.435C524.735 756.858 522.982 758.655 521.745 760.007C522.588 753.937 527.028 752.185 516.731 747.247C518.062 745.821 519.351 744.356 520.598 742.856C521.293 749.403 526.273 746.599 525.913 744.392C525.715 743.195 525.058 742.123 524.083 741.402C523.69 741.115 523.43 740.946 523.028 740.628L522.685 740.352Z"/><path fill="#0580DE" fill-opacity="0.98823529" d="M531.792 749.77C531.772 752.099 531.685 754.428 531.53 756.752C528.39 760.83 526.635 763.523 524.064 768L515.664 768C517.317 765.601 518.731 763.373 520.769 761.302C521.24 760.766 521.388 760.64 521.745 760.007C522.982 758.655 524.735 756.858 525.799 755.435L531.792 749.77Z"/><path fill="#1A73E8" fill-opacity="0.98431373" d="M609.24 744.158C612.587 745.004 611.386 745.667 611.786 749.099C611.608 753.669 611.076 757.537 610.704 762.066C610.277 763.963 610.217 766.042 610.054 768L604.587 768C606.375 760.512 607.596 751.821 609.24 744.158Z"/><path fill="#FAB135" fill-opacity="0.89411765" d="M494.634 740.511C505.058 742.61 490.851 745.388 506.367 747.576C504.112 749.772 501.78 751.779 499.512 753.925C489.983 750.764 497.766 750.349 490.947 746.272L490.504 746.004C491.908 744.115 493.154 742.374 494.634 740.511Z"/><path fill="#F7F9FA" fill-opacity="0.7647059" d="M774.547 347.914C780.73 351.505 777.468 348.778 778.407 353.923C777.856 356.617 773.172 363.22 772.471 366.603C772.038 368.694 771.514 368.878 769.816 368.854L770.111 367.474C771.068 364.569 775.063 357.846 769.126 357.377C767.683 357.263 764.839 360.707 763.879 361.791C763.916 361.795 762.526 361.716 762.794 361.317C765.427 357.41 768.317 352.927 771.312 349.3L771.737 350.866C770.767 356.764 773.125 357.434 776.753 353.252C778.353 351.408 775.572 350.593 774.326 349.835C774.419 349.199 774.533 348.553 774.547 347.914Z"/><path fill="#FAB135" fill-opacity="0.98823529" d="M527.752 733.913C529.937 731.126 531.772 728.877 534.37 726.48C533.637 733.576 532.701 742.822 531.792 749.77L525.799 755.435C524.972 746.713 530.86 750.498 529.518 743.083C529.175 741.188 532.563 738.149 528.763 734.813C528.422 734.518 528.085 734.218 527.752 733.913Z"/><path fill="#FAB135" fill-opacity="0.56078434" d="M490.504 746.004L490.947 746.272C497.766 750.349 489.983 750.764 499.512 753.925C498.122 755.321 495.528 757.915 494.043 759.073C492.682 757.684 488.214 753.969 486.373 752.326C487.428 750.417 489.242 747.892 490.504 746.004Z"/><path fill="#FAB135" fill-opacity="0.8392157" d="M610.704 762.066C616.66 757.854 621.824 764.339 625.289 768L610.054 768C610.217 766.042 610.277 763.963 610.704 762.066Z"/><path fill="#F7F9FA" d="M772.116 342.585C772.31 342.816 773.496 344.089 773.261 344.405C769.115 349.983 762.582 360.733 757.434 364.686C757.628 363.073 757.637 363.278 758.344 361.755C760.391 356.799 760.525 355.27 761.39 350.036C762.188 350.737 763.875 352.679 764.834 352.693C763.588 353.441 771.298 343.464 772.116 342.585Z"/><path fill="#251F1A" fill-opacity="0.98823529" d="M772.116 342.585C773.009 342.945 773.078 342.972 774.008 343.193L775.085 344.933C774.547 345.745 773.994 346.297 773.344 347.013C772.219 347.778 772.113 348.135 771.312 349.3C768.317 352.927 765.427 357.41 762.794 361.317C762.526 361.716 763.916 361.795 763.879 361.791C765.74 363.531 767.125 364.838 768.343 367.1C767.255 366.832 763.919 363.473 762.641 362.367C760.094 364.641 758.485 366.669 755.465 367.709C755.499 367.697 750.861 374.1 750.204 374.936L749.277 373.416C751.667 370.531 752.094 369.756 753.833 366.496C755.155 365.893 756.149 365.399 757.434 364.686C762.582 360.733 769.115 349.983 773.261 344.405C773.496 344.089 772.31 342.816 772.116 342.585Z"/><path fill="#0580DE" fill-opacity="0.9137255" d="M588.257 746.29C588.716 745.758 589.073 745.402 589.571 744.924C589.798 745.414 590.129 745.884 590.427 746.341C590.116 753.825 589.753 760.539 589.295 768L585.125 768C586.034 760.036 587.769 754.752 588.257 746.29Z"/><path fill="#0580DE" fill-opacity="0.98823529" d="M628.156 746.793C631.214 747.375 629.847 757.866 630.096 761.489C630.25 763.838 630.153 765.673 630.053 768L625.825 768L625.861 766.06C626.767 759.408 627.553 753.514 628.156 746.793Z"/><path fill="#181519" fill-opacity="0.96862745" d="M789.855 341.422L790.764 342.567C780.507 351.74 776.515 360.297 771.902 373.036C771.214 372.222 769.082 369.79 769.816 368.854C771.514 368.878 772.038 368.694 772.471 366.603C773.172 363.22 777.856 356.617 778.407 353.923C782.385 349.135 785.27 345.642 789.855 341.422Z"/><path fill="#FAB135" fill-opacity="0.90980393" d="M589.571 744.924C593.91 740.676 597.512 736.697 602.19 732.544C603.568 735.384 603.987 736.759 600.495 738.184C598.663 738.848 599.426 741.63 597.837 742.442C595.765 743.501 593.342 743.494 592.919 746.306C592.851 746.754 592.58 747.179 592.122 747.236C591.881 746.922 591.943 746.466 591.896 746.09C591.596 745.928 591.175 746.119 590.827 746.221L590.427 746.341C590.129 745.884 589.798 745.414 589.571 744.924Z"/><path fill="#FAB135" fill-opacity="0.52549022" d="M574.278 758.776C577.165 756.166 579.463 753.903 582.596 751.562C588.167 755.398 575.484 760.812 574.584 766.328C574.527 763.722 574.344 761.277 574.278 758.776Z"/><path fill="#F7F9FA" fill-opacity="0.3882353" d="M1055.87 674.875C1054.19 676.489 1051.64 678.668 1049.76 680.066L1030.09 694.789C1029.28 695.384 1027.47 696.88 1026.45 696.451L1026.32 696.096C1026.22 696.292 1051.74 676.814 1054.06 674.828L1055.87 674.875Z"/><path fill="#FAB135" fill-opacity="0.73725492" d="M516.08 748.241L516.731 747.247C527.028 752.185 522.588 753.937 521.745 760.007C521.388 760.64 521.24 760.766 520.769 761.302C519.503 759.213 516.916 757.085 515.056 755.16C517.453 751.643 518.255 755.564 519.592 754.564C523.832 751.394 517.123 748.65 516.08 748.241Z"/><path fill="#C0DAF0" fill-opacity="0.81176472" d="M1062.82 667.152C1070.38 660.323 1079.98 649.008 1086.27 643.517L1087.58 644.125C1078.86 653.313 1072.32 659.258 1063.89 667.745L1062.82 667.152Z"/><path fill="#2D6DA3" fill-opacity="0.98823529" d="M613.464 725.306C613.347 727.505 613.805 729.635 613.549 731.733C612.83 737.635 612.341 743.272 612.157 749.225L611.786 749.099C611.386 745.667 612.587 745.004 609.24 744.158C609.516 740.865 612.242 728.56 613.464 725.306Z"/><path fill="#F6A734" fill-opacity="0.98823529" d="M524.064 768C526.635 763.523 528.39 760.83 531.53 756.752C531.485 761.375 531.229 763.465 530.789 768L524.064 768Z"/><path fill="#F6A734" fill-opacity="0.98039216" d="M771.199 519.707C771.748 523.514 771.989 536.888 771.959 541.516C769.407 542.161 768.707 530.883 768.485 528.387C771.219 527.785 770.799 522.56 771.199 519.707Z"/><path fill="#FAB135" fill-opacity="0.52156866" d="M516.08 748.241C517.123 748.65 523.832 751.394 519.592 754.564C518.255 755.564 517.453 751.643 515.056 755.16C513.582 754.886 513.031 754.411 511.768 753.63C512.597 752.387 515.059 749.46 516.08 748.241Z"/><path fill="#181519" fill-opacity="0.92941177" d="M756.965 317.122C763.702 316.055 774.146 314.163 780.858 315.25L780.978 317.746C774.677 315.014 767.699 316.986 760.665 317.841C759.434 317.588 758.201 317.348 756.965 317.122Z"/><path fill="#FAB135" fill-opacity="0.94117647" d="M619.655 714.975C621.489 717.145 621.226 716.672 624.096 716.599C620.974 718.513 620.054 722.455 616.879 722.39C615.273 722.356 616.573 720.018 616.42 718.659L616.412 717.93C617.644 716.969 618.561 716.093 619.655 714.975Z"/><path fill="#F7F9FA" fill-opacity="0.074509807" d="M771.737 350.866C772.604 350.532 773.467 350.188 774.326 349.835C775.572 350.593 778.353 351.408 776.753 353.252C773.125 357.434 770.767 356.764 771.737 350.866Z"/><path fill="#FAB135" fill-opacity="0.68235296" d="M522.685 740.352L523.028 740.628C523.43 740.946 523.69 741.115 524.083 741.402C525.058 742.123 525.715 743.195 525.913 744.392C526.273 746.599 521.293 749.403 520.598 742.856C521.3 741.963 521.933 741.208 522.685 740.352Z"/><path fill="#F7F9FA" fill-opacity="0.078431375" d="M759.916 339.656C761.696 335.735 761.82 334.662 766.328 335.673C758.598 337.177 762.926 339.886 767.024 336.883C769.517 337.239 768.182 338.174 768.587 339.598L768.578 339.759C766.341 340.682 763.887 338.702 760.376 340.128C759.961 339.763 760.091 339.918 759.916 339.656Z"/><path fill="#181519" fill-opacity="0.91764706" d="M742.825 320.145C747.421 318.971 750.339 318.224 755.132 317.301L758.228 318.215C752.504 319.141 749.833 319.972 744.455 321.402C743.915 320.979 743.371 320.56 742.825 320.145Z"/><path fill="#FAB135" fill-opacity="0.81176472" d="M623.562 711.249C624.169 713.743 624.304 713.979 624.096 716.599C621.226 716.672 621.489 717.145 619.655 714.975C620.932 713.706 622.234 712.464 623.562 711.249Z"/><path fill="#9FCDF3" fill-opacity="0.67450982" d="M1062.82 667.152L1063.89 667.745C1061.76 669.841 1059.53 671.674 1057.35 673.702L1056.03 673.103C1058.39 671.147 1060.53 669.019 1062.82 667.152Z"/><path fill="#F7F9FA" fill-opacity="0.39215687" d="M771.312 349.3C772.113 348.135 772.219 347.778 773.344 347.013C773.915 347.359 774.049 347.473 774.547 347.914C774.533 348.553 774.419 349.199 774.326 349.835C773.467 350.188 772.604 350.532 771.737 350.866L771.312 349.3Z"/><path fill="#F7F9FA" fill-opacity="0.17647059" d="M766.328 335.673L767.024 336.883C762.926 339.886 758.598 337.177 766.328 335.673Z"/><path fill="#251F1A" fill-opacity="0.66666669" d="M755.132 317.301C755.793 317.213 756.3 317.163 756.965 317.122C758.201 317.348 759.434 317.588 760.665 317.841C759.767 318.024 759.126 318.111 758.228 318.215L755.132 317.301Z"/><path fill="#545656" fill-opacity="0.6901961" d="M791.163 340.21L792.944 340.789C792.204 341.441 791.543 341.965 790.764 342.567L789.855 341.422L791.163 340.21Z"/><path fill="#181519" fill-opacity="0.96862745" d="M791.163 340.21C791.889 339.549 792.485 339.039 793.14 338.302L794.196 339.078C793.77 339.641 793.352 340.211 792.944 340.789L791.163 340.21Z"/><path fill="#F7F9FA" fill-opacity="0.56078434" d="M1054.06 674.828C1054.72 674.227 1055.33 673.663 1056.03 673.103L1057.35 673.702L1055.87 674.875L1054.06 674.828Z"/></svg>