<?xml version="1.0" encoding="utf-8" ?><svg xmlns="http://www.w3.org/2000/svg" xmlns:xlink="http://www.w3.org/1999/xlink" width="1344" height="768" viewBox="0 0 1344 768"><path fill="#0986E4" d="M150.736 154.049C158.102 146.329 165.148 138.294 172.467 130.517C232.437 66.7938 313.495 22.9238 402.047 19.8418C482.764 17.0325 555.512 45.9819 613.425 101.98C684.044 170.264 719.097 262.73 713.699 360.501C737.497 364.692 771.018 361.264 791.138 346.801C797.893 341.946 801.887 337.535 807.188 331.246C799.567 368.671 757.253 374.296 725.766 371.902C724.823 371.763 720.186 371.053 719.631 371.903C719.793 372.675 721.35 372.979 722.036 373.151C744.785 380.139 778.025 379.2 800.544 371.599C805.399 369.96 812.671 365.239 817.432 362.604L819.073 361.554C819.537 358.199 819.932 354.835 820.258 351.464C822.646 353.797 822.181 355.389 822.23 359.108C820.678 390.608 813.492 425.09 804.828 455.323C781.853 536.588 742.761 612.397 689.88 678.233C672.646 699.415 654.432 719.779 635.296 739.259C625.813 748.811 614.381 758.785 605.495 768L541.779 768C563.011 751.103 585.032 734.645 605.24 716.737C692.681 639.252 770.734 546.787 804.575 432.944C805.869 428.593 811.096 412.975 810.555 409.077C808.346 408.401 805.094 409.577 803.05 410.511C778.596 421.684 753.116 416.491 729.004 408.388C725.161 407.426 722.156 405.981 718.516 404.513C721.015 406.172 724.681 408.596 727.277 410.047C746.871 420.88 769.658 426.746 791.754 429.686C793.708 429.946 798.297 430.221 799.779 431.02C799.363 433.31 797.632 434.651 795.696 435.917C774.134 450.021 746.827 439.608 726.739 429.033C726.083 428.669 724.235 427.316 723.564 427.787C723.474 428.623 725.621 429.912 726.165 430.308C737.43 437.915 748.847 444.99 761.059 450.963C764.098 452.449 767.131 453.953 770.013 455.729C770.606 460.528 763.045 462.099 759.368 462.122C741.808 462.234 725.937 451.792 711.428 443.091C707.478 440.184 707.113 441.486 710.713 444.347C714.536 447.547 736.626 463.719 737.19 466.646C731.23 472.86 712.604 464.976 705.832 462.124C686.863 542.481 651.324 619.137 601.781 685.179C580.484 713.569 556.547 742.975 531.29 768L415.582 768C430.814 755.534 453.833 730.981 467.527 715.81C537.039 638.794 590.879 559.104 621.876 459.647C617.818 457.109 616.219 455.406 612.845 452.1L612.125 452.47C612.254 455.389 612.757 456.948 610.478 458.939C603.56 460.841 594.621 451.021 592.179 445.06C591.967 444.369 591.737 443.14 590.995 442.812C590.472 443.082 590.4 446.252 590.336 446.935C590.513 450.363 591.084 450.825 589.733 453.469C584.748 456.386 574.64 449.639 570.03 447.11L565.587 450.597C551.847 537.156 512.412 633.679 461.911 705.432C452.089 719.366 441.72 732.906 430.829 746.022C425.432 752.551 417.109 761.48 412.357 768L364.88 768C381.182 752.818 401.002 730.56 415.657 713.826C466.367 655.919 508.643 591.631 537.33 519.985C541.532 509.49 560.501 456.854 556.782 448.382C556.306 449.499 556.043 450.3 555.676 451.458C553.472 453.456 544.33 456.995 542.76 455.644C532.749 447.035 514.857 468.515 514.386 449.884C509.404 453.03 506.986 453.998 501.218 455.123C499.036 464.197 497.214 476.694 495.398 486.111C492.371 501.543 488.814 516.867 484.736 532.055C465.113 605.32 428.567 677.51 383.955 738.575C376.605 748.636 368.552 758.084 361.006 768L319.315 768C334.446 753.047 352.395 731.841 365.7 715.408C421.043 647.058 468.401 567.094 489.984 481.262C492.579 470.943 495.219 459.889 496.626 449.379C491.647 451.738 484.308 455.385 480.03 450.204C478.527 448.384 473.575 452.084 470.656 451.835C463.984 451.268 457.903 447.792 453.248 443.08C449.737 439.472 450.6 435.145 450.881 430.421C446.668 439.785 441.941 473.41 439.697 485.537C442.614 491.536 445.72 497.44 449.012 503.241C451.843 508.119 458.428 518.006 459.719 522.672C458.144 527.965 451.651 525.659 447.731 526.271C446.704 526.432 444.102 528.202 443.124 528.869C437.648 526.974 435.783 525.887 430.806 523.065C429.666 535.689 421.859 561.004 417.89 573.528C394.462 647.442 361.56 706.891 314.545 768L242.036 768C250.894 758.478 264.845 739.826 272.724 729.485C320.106 667.3 355.161 601.096 374.312 525.118C372.75 527.741 369.959 533.092 368.505 535.24C364.253 541.523 343.015 543.505 340.155 534.909C339.284 532.293 338.793 525.569 338.531 522.457C336.09 529.83 335.154 538.903 333.741 546.627C318.675 629.033 285.048 698.949 238.769 768L208.673 768C268.877 697.264 315.828 609.783 334.241 518.35C331.201 518.679 326.999 519.351 324.091 518.476C314.9 515.708 313.654 505.307 316.441 497.349C305.711 494.997 301.894 493.425 295.517 484.472C295.727 481.968 295.814 481.485 294.917 479.007C297.676 475.754 301.014 474.305 304.735 472.336C295.921 471.32 299.185 472.294 290.937 468.63L290.142 468.429C288.141 465.137 284.241 462.522 283.68 458.469C284.379 455.972 283.835 456.896 286.327 455.036L287.276 454.833C303.951 451.298 321.06 447.337 336.466 439.963C336.972 439.633 337.401 439.354 337.923 439.045C345.732 435.213 361.414 423.514 368.607 418.024C368.174 412.209 368.384 410.123 368.882 404.315C365.548 404.685 362.058 405.898 359.997 403.088C360.948 399.701 361.873 396.706 362.855 393.368C360.761 396.508 359.333 398.945 356.952 401.875C350.511 406.176 342.751 401.684 338.022 397.09C335.321 394.465 334.479 392.295 333.002 388.957C332.544 389.58 332.04 390.168 331.494 390.716C329.717 392.492 328.149 392.26 325.684 392.208L324.786 392.354C321.006 385.394 321.681 385.124 314.171 384.605C309.214 384.262 305.561 377.824 302.715 374.009L301.704 374.039L299.698 376.438L298.547 376.496C294.64 375.043 290.04 369.354 288.304 365.637C287.596 358.323 286.927 362.503 285.916 366.114C272.266 364.005 274.598 352.199 270.364 347.501C268.802 348.912 267.773 350.105 265.699 350.572C257.202 348.829 255.548 338.39 254.829 334.084C254.623 332.852 242.639 333.971 239.128 330.127C238.479 327.636 238.735 326.723 239.093 324.247C231.93 323.945 214.412 328.169 219.554 313.678C214.249 313.632 212.173 317.593 204.292 313.846C203.16 313.297 202.034 312.736 200.914 312.161C192.025 314.468 184.453 316.55 175.963 320.281C132.028 339.586 89.8037 385.505 65.5827 426.769C53.5669 447.146 42.8663 468.272 33.5464 490.015C31.6326 494.541 27.981 503.024 26.8998 507.532C25.6701 509.842 25.4186 510.755 24.4863 513.276C23.279 515.151 23.0037 516.854 22.6252 519.005L24.3307 519.279C25.8486 516.683 26.1165 515.902 27.2551 513.168C28.0573 511.778 28.5605 510.919 28.877 509.333C33.0203 503.374 38.0014 492.11 41.7583 485.197C74.7493 424.486 142.171 346.283 219.753 370.92L217.388 372.36C193.259 364.591 164.364 369.873 142.39 381.917C92.6066 409.204 57.3869 461.541 34.0386 512.088C31.6383 517.285 21.5627 539.286 22.1717 543.308L23.0333 543.826C25.6447 541.897 39.0222 516.664 42.7003 510.927C71.3428 466.249 120.737 408.404 180.419 419.739C179.485 420.339 179.012 420.603 178.014 421.084C149.23 417.799 127.325 427.596 104.917 445.308C66.045 476.033 32.8118 529.208 16.0695 575.908C15.5512 577.047 15.0545 578.196 14.5794 579.353C13.7088 581.614 13.2108 582.446 13.0525 584.884L14.2045 586.306C15.131 584.323 16.2982 582.188 17.2844 580.18C17.9172 578.818 18.6179 577.504 19.2827 576.155C21.3128 572.318 23.3963 568.51 25.5326 564.731C47.3582 526.653 80.5467 481.757 125.023 469.33C139.983 465.15 158.234 465.608 171.965 473.544L171.775 475.29C103.869 445.025 41.4753 537.726 17.8289 590.071C16.067 593.971 12.5377 601.592 11.4583 605.663L9.54442 609.792C2.26083 607.646 7.97151 612.465 0 611.892L0 547.399L0.624255 547.243C0.699238 547.161 30.7517 429.477 33.8758 419.076C50.7103 361.911 73.8817 306.808 102.958 254.794C100.47 253.348 94.7399 250.324 96.0314 246.825C97.7892 245.886 114.902 245.85 118.775 245.329C122.872 244.778 126.175 244.355 130.708 243.34C129.532 243.216 128.358 243.08 127.185 242.935C118.262 241.821 78.0228 233.654 80.0511 220.988C85.8967 220.843 102.475 225.005 111.912 225.214C118.457 226.261 123.979 225.685 130.383 225.897L129.04 224.621C127.808 224.448 126.583 224.285 125.357 224.067C105.173 217.415 80.038 213.716 75.8367 187.618C93.5823 196.643 117.224 206.145 136.414 209.536C137.124 209.665 141.609 210.488 142.029 209.733L141.951 209.579C141.091 209.145 140.961 209.123 140.018 208.874C117.244 202.757 79.5695 180.733 83.5587 152.774C86.2114 154.935 89.2016 157.763 91.7446 160.095C111.479 178.197 132.637 191.54 158.821 198.451C138.328 186.643 118.983 179.874 108.086 155.105C103.787 145.332 103.732 134.121 107.877 124.229C108.182 125.111 108.493 125.991 108.812 126.868C119.383 155.913 140.273 173.594 167.943 186.515C168.835 187.053 172.411 189.356 173.323 188.648C173.248 187.748 169.709 186.233 168.858 185.884C143.964 171.827 119.295 142.027 136.009 112.573C136.338 111.988 136.688 111.416 137.058 110.857C137.083 125.665 141.718 142.203 150.736 154.049ZM814.945 371.409C812.697 371.866 804.217 381.047 800.715 383.232C774.167 399.795 741.923 391.351 714.154 386.07C738.526 398.928 786.772 405.832 813.516 399.467C814.943 393.451 818.395 375.473 817.791 370.068L814.945 371.409ZM20.6924 528.053L19.535 526.788C18.7746 528.349 18.4147 529.279 17.8309 530.892L19.2011 531.212C19.7088 530.164 20.2059 529.111 20.6924 528.053ZM14.659 560.564C14.206 561.454 12.7266 563.951 13.5722 564.794C14.855 564.54 15.4753 561.941 15.29 560.749L14.659 560.564ZM157.08 161.707C163.893 168.399 168.817 173.01 176.606 178.511C234.593 122.379 310.594 80.1359 393.056 81.8666C457.209 83.213 519.199 112.003 563.562 157.888C567.093 161.51 570.505 165.245 573.794 169.088C614.254 216.529 636.912 276.595 637.868 338.946C646.65 341.118 656.031 343.435 665.224 342.757C668.781 342.495 674.166 340.524 677.513 340.82C677.924 343.752 669.933 347.732 667.603 348.973C678.659 352.992 690.6 357.174 702.21 359.175C701.742 336.991 701.124 317.616 697.437 295.598C684.383 217.65 644.169 142.779 581.066 94.186C530.421 55.1858 466.134 33.3868 402.201 34.5434C399.674 34.5903 393.6 34.697 391.3 35.0497C374.545 36.6781 357.728 38.6617 341.372 42.7941C267.35 61.4961 207.072 105.583 157.08 161.707ZM167.778 286.73C162.036 286.433 157.987 286.145 152.32 285.292C98.0638 330.972 54.8956 408.029 31.9122 474.24C31.3844 475.517 30.848 476.534 30.3486 477.853C29.0971 480.752 28.9071 481.955 28.6234 484.963C30.4245 482.614 30.9105 481.546 32.0637 478.869C32.6041 477.667 33.1591 476.471 33.7286 475.282C63.7094 413.776 101.309 355.56 163.291 322.18C176.875 314.864 186.513 313.588 199.94 308.39C199.955 307.69 199.872 306.904 200.031 306.221C196.779 305.665 193.505 307.056 190.311 308.071C185.25 305.96 182.438 305.175 180.891 299.544L180.699 298.828C178.675 297.681 174.994 298.4 172.469 298.64C169.324 296.934 165.503 295.317 164.781 291.602C165.484 288.551 165.435 289.313 167.778 286.73ZM145.852 274.533C139.044 274.411 136.048 272.176 130.733 267.935C115.851 283.66 95.5821 317.065 84.484 335.256C76.255 348.744 30.6332 439.565 33.4734 450.299C33.6095 450.246 33.7534 450.209 33.8817 450.138C35.5557 449.22 53.5772 409.636 56.2118 404.556C70.3631 376.857 87.161 350.592 106.371 326.129C112.869 318.012 119.715 310.181 126.891 302.656C129.81 299.573 147.246 282.82 147.694 281.309C146.957 280.308 146.594 279.978 146.349 278.74C148.16 277.373 150.009 276.095 151.867 274.795C150.549 274.205 147.457 274.489 145.852 274.533ZM486.564 325.437C486.263 324.451 485.761 321.744 484.759 321.463C483.777 322.149 484.506 327.072 484.669 328.361C485.124 330.18 486.26 331.492 488.15 330.26C488.491 329.298 488.843 328.34 489.206 327.386C489.664 328.298 490.112 329.398 490.829 330.133C493.427 332.797 551.131 330.293 559.397 329.996C554.175 300.036 546.009 275.717 529.623 249.896C500.939 205.135 453.218 169.562 400.919 158.303C341.074 145.42 282.139 162.705 231.713 194.648C237.635 200.544 246.652 205.361 254.171 208.976C262.355 212.911 270.635 217.98 279.241 220.693C279.241 220.693 281.714 220.023 281.915 219.969C341.95 201.534 400.672 214.802 444.464 260.153C446.771 262.542 450.577 266.248 452.311 268.975C461.426 260.012 466.676 258.705 479.354 257.619C490.877 256.631 508.201 251.714 507.733 269.781C507.693 271.228 507.318 271.878 506.459 273.002C504.864 272.877 504.53 272.6 503.057 271.878C500.177 273 496.577 275.311 493.963 277.089C490.483 285.501 486.171 306.788 484.857 316.205L488.054 323.958C487.53 324.513 487.114 324.914 486.564 325.437ZM127.292 257.621C121.844 257.124 116.383 256.779 110.915 256.589C91.2927 286.54 73.8168 324.613 60.2578 357.568C58.3757 362.142 52.7476 374.993 52.2303 378.999L53.15 380.058C50.429 380.548 50.3199 383.289 49.4438 385.811C49.0663 386.625 48.7553 387.409 48.4218 388.239L50.4818 388.969L51.9991 385.585C53.0921 382.802 53.9773 382.514 53.15 380.058C53.2833 380.024 53.4221 380.007 53.55 379.956C55.991 378.986 69.6209 350.495 72.516 345.068C83.5379 324.408 95.1423 304.647 108.355 285.305C112.212 279.664 116.18 274.1 120.257 268.615C122.478 265.681 126.661 260.968 128.214 258.075L127.292 257.621ZM562.995 330.092C574.495 330.301 588.434 328.434 598.549 329.279C607.271 330.008 622.555 335.732 632.145 337.404C632.161 326.575 629.74 312.126 627.707 301.47C617.907 250.123 592.984 200.211 555.934 163.054C511.96 118.952 450.26 92.402 387.813 92.3934C384.503 92.3929 376.735 92.462 373.843 92.8357C301.787 98.6878 237.076 134.558 185.331 183.815C194.276 188.474 207.481 194.841 216.867 198.075C259.655 162.836 324.787 144 379.935 149.133C429.236 153.722 482.363 181.911 513.629 220.369L513.984 220.811C539.626 250.399 559.188 290.903 562.995 330.092ZM432.265 446.917C430.837 457.431 430.338 465.988 434.714 476.172C436.638 470.345 443.04 446.683 442.947 439.456C442.944 439.223 441.781 437.529 441.511 437.151C438.614 440.999 435.723 443.6 432.265 446.917ZM44.3302 400.748C43.7364 402.208 39.4397 414.275 39.4874 414.917C39.617 415.103 39.5422 415.051 39.6969 415.104C39.7749 415.04 39.8528 414.976 39.9307 414.912L39.8647 414.709L39.9815 414.309L40.3812 414.106C42.2402 409.891 43.6402 405.384 45.4565 401.184L44.3302 400.748ZM419.62 534.44C412.207 534.326 409.729 532.365 403.665 528.06C403.619 531.335 403.821 535.507 402.723 538.495C398.286 542.652 381.754 538.944 378.77 533.874L378.292 533.742C376.208 539.457 375.951 547.51 374.481 553.672C359.954 614.575 336.456 672.767 303.592 726.107C296.084 738.293 285.027 757.188 275.686 768C278.842 766.445 279.258 766.188 281.696 763.664C339.147 700.587 394.736 616.29 419.62 534.44ZM657.983 461.132C652.072 465.436 639.579 459.824 634.741 455.137C631.239 474.298 623.711 500.286 617.661 518.69C593.721 592.695 556.866 661.874 508.803 723.021C502.309 731.323 482.639 755.628 474.921 762.471C473.085 764.539 470.718 767.778 475.374 764.529L477.612 762.274C478.512 761.671 478.577 761.627 479.183 760.764C496.22 746.392 518.805 722.689 533.938 706.562C584.178 653.203 629.404 595.599 662.318 529.838C673.935 506.628 680.163 484.86 690.123 461.784C684.482 458.133 678.414 452.792 672.833 448.574C675.127 453.564 680.306 457.609 680.394 461.981C677.496 466.482 664.159 462.97 660.583 460.617C658.315 456.927 656.163 453.813 653.448 450.46C655.214 454.243 656.767 457.078 657.983 461.132ZM283.447 222.582C289.105 229.755 308.855 229.477 317.574 235.467C327.759 242.465 333.314 250.726 341.732 259.005C361.845 278.782 387.163 305.222 417.213 305.661C423.5 299.92 429.365 293.212 435.286 287.041C440.321 281.795 446.023 276.447 450.631 270.901C417.137 231.667 364.356 208.145 312.859 216.099C302.209 217.744 293.705 218.516 283.447 222.582Z"/><path fill="#F7F9FB" fill-opacity="0.26274511" d="M19.535 526.788L20.6924 528.053C20.2059 529.111 19.7088 530.164 19.2011 531.212L17.8309 530.892C18.4147 529.279 18.7746 528.349 19.535 526.788Z"/><path fill="#C0DCEC" fill-opacity="0.16470589" d="M14.659 560.564L15.29 560.749C15.4753 561.941 14.855 564.54 13.5722 564.794C12.7266 563.951 14.206 561.454 14.659 560.564Z"/><path fill="#F7F9FB" d="M22.1717 543.308L23.0333 543.826C23.5794 545.678 16.8891 559.127 15.29 560.749L14.659 560.564C15.5427 557.435 20.0329 545.293 22.1717 543.308Z"/><path fill="#C0DCEC" d="M5.63381 602.793C7.5963 598.672 10.7674 588.104 13.0525 584.884L14.2045 586.306C12.6906 589.82 7.41797 600.449 6.73962 603.421L5.63381 602.793Z"/><path fill="#F7F9FB" d="M817.432 362.604L819.073 361.554C818.965 363.622 818.728 368.392 817.791 370.068L814.945 371.409C814.005 368.153 817.229 367.899 817.432 362.604Z"/><path fill="#F7F9FB" d="M19.535 526.788C20.1082 524.634 21.2864 520.697 22.6252 519.005L24.3307 519.279C23.1488 522.38 21.9335 525.035 20.6924 528.053L19.535 526.788Z"/><path fill="#C0DCEC" d="M17.8309 530.892L19.2011 531.212C18.6371 532.317 16.0526 539.088 14.9905 538.994C14.4461 538.137 17.1832 531.964 17.8309 530.892Z"/><path fill="#64AAE0" d="M129.04 224.621C131.038 224.484 137.457 224.624 139.015 225.518L139.131 225.472C138.515 225.357 132.326 226.041 130.383 225.897L129.04 224.621Z"/><path fill="#64AAE0" d="M5.63381 602.793L6.73962 603.421C4.84573 606.954 4.29924 606.228 5.63381 602.793Z"/><path fill="#0986E4" d="M281.915 219.969C341.95 201.534 400.672 214.802 444.464 260.153C446.771 262.542 450.577 266.248 452.311 268.975L450.631 270.901C417.137 231.667 364.356 208.145 312.859 216.099C302.209 217.744 293.705 218.516 283.447 222.582C283.233 222.081 282.25 220.525 281.915 219.969Z"/><path fill="#C0DCEC" d="M23.7628 476.201C24.0007 473.329 30.5049 455.146 31.747 451.125C31.8741 450.713 33.076 450.431 33.4734 450.299C34.6028 453.145 25.5539 472.744 23.7628 476.201Z"/><path fill="#F7F9FB" d="M48.4218 388.239L50.4818 388.969C49.2861 391.728 46.1292 398.633 45.4565 401.184L44.3302 400.748C45.5669 396.606 47.0841 392.369 48.4218 388.239Z"/><path fill="#7ABAE3" d="M22.8196 499.371C23.4676 496.771 26.4427 485.826 28.6234 484.963C28.5436 486.996 24.1382 499.043 22.8196 499.371Z"/><path fill="#C0DCEC" fill-opacity="0.9137255" d="M45.4565 401.184C43.6402 405.384 42.2402 409.891 40.3812 414.106L39.9815 414.309L39.8647 414.709L39.9307 414.912C39.8528 414.976 39.7749 415.04 39.6969 415.104C39.5422 415.051 39.617 415.103 39.4874 414.917C39.4397 414.275 43.7364 402.208 44.3302 400.748L45.4565 401.184Z"/><path fill="#C0DCEC" fill-opacity="0.98823529" d="M653.448 450.46C656.163 453.813 658.315 456.927 660.583 460.617L657.983 461.132C656.767 457.078 655.214 454.243 653.448 450.46Z"/><path fill="#F7F9FB" fill-opacity="0.98431373" d="M53.15 380.058C53.9773 382.514 53.0921 382.802 51.9991 385.585L49.4438 385.811C50.3199 383.289 50.429 380.548 53.15 380.058Z"/><path fill="#C0DCEC" fill-opacity="0.98431373" d="M484.669 328.361C484.506 327.072 483.777 322.149 484.759 321.463C485.761 321.744 486.263 324.451 486.564 325.437L486.475 326.062C485.88 326.834 485.278 327.6 484.669 328.361Z"/><path fill="#F7F9FB" fill-opacity="0.043137256" d="M30.3486 477.853L32.0637 478.869C30.9105 481.546 30.4245 482.614 28.6234 484.963C28.9071 481.955 29.0971 480.752 30.3486 477.853Z"/><path fill="#0986E4" fill-opacity="0.72941178" d="M488.054 323.958C488.594 325.192 489.074 326.028 489.206 327.386C488.843 328.34 488.491 329.298 488.15 330.26C487.658 328.11 487.965 327.626 486.475 326.062L486.564 325.437C487.114 324.914 487.53 324.513 488.054 323.958Z"/><path fill="#F7F9FB" fill-opacity="0.65882355" d="M31.9122 474.24L33.7286 475.282C33.1591 476.471 32.6041 477.667 32.0637 478.869L30.3486 477.853C30.848 476.534 31.3844 475.517 31.9122 474.24Z"/><path fill="#F7F9FB" fill-opacity="0.45882353" d="M49.4438 385.811L51.9991 385.585L50.4818 388.969L48.4218 388.239C48.7553 387.409 49.0663 386.625 49.4438 385.811Z"/><path fill="#C0DCEC" fill-opacity="0.070588239" d="M475.374 764.529C470.718 767.778 473.085 764.539 474.921 762.471L475.374 764.529Z"/><path fill="#7ABAE3" fill-opacity="0.16862746" d="M477.612 762.274C477.779 760.894 477.814 760.772 479.183 760.764C478.577 761.627 478.512 761.671 477.612 762.274Z"/><path fill="#0986E4" fill-opacity="0.98823529" d="M1091.26 768C1096.98 763.359 1104.18 759.158 1110.29 754.874C1199.41 692.406 1283.55 615.411 1344 524.32L1344 612.576C1309.76 661.234 1287.01 691.2 1244.39 732.836C1266.01 718.622 1287.21 703.768 1307.95 688.293C1318.96 679.973 1333.2 667.638 1344 660.229L1344 768L1091.26 768Z"/><path fill="#0986E4" d="M1190.01 19.3572C1382.85 240.734 1261.81 582.886 1066.76 756.834C1062.9 760.277 1057.79 764.304 1054.38 768L954.766 768C991.428 743.65 1023.69 720.339 1057.38 691.384C1170.87 593.854 1268.49 456.479 1281.91 303.707C1287.88 235.818 1269.88 154.428 1238.32 94.2593C1224.43 67.776 1207.6 44.0726 1188.29 21.3813L1190.01 19.3572Z"/><path fill="#0986E4" d="M1080.24 80.2428C1092.9 97.7846 1101.51 111.176 1111.36 130.773C1148.38 204.422 1157.31 297.205 1144.27 377.951C1118.04 530.918 1037.7 669.354 917.909 768L825.286 768C843.323 756.984 860.985 745.364 878.241 733.16C1001.63 645.253 1116.07 509.002 1141.84 355.639C1157.18 264.371 1133.68 158.836 1079.46 83.2432L1080.24 80.2428Z"/><path fill="#0986E4" d="M955.84 103.793C1007.49 164.98 1036.36 263.497 1028.34 342.768C1012.02 504.178 930.54 653.046 807.232 756.929C802.761 760.729 798.199 764.42 793.55 768L713.86 768C722.225 762.021 731.474 756.638 740.104 750.819C876.256 659.027 994.828 521.981 1022.13 355.628C1026.99 325.986 1026.48 300.449 1022.56 270.923C1014.25 208.382 993.74 157.727 956.068 107.446L955.84 103.793Z"/><path fill="#0986E4" d="M865.624 153.165C916.383 224.417 928.282 305.314 914.027 390.402C908.061 424.225 899.137 457.458 887.358 489.72C847.684 599.484 780.828 691.791 692.809 768L619.397 768C625.457 763.184 633.847 758.12 640.264 753.584C766.815 664.136 878.447 539.226 909.749 383.281C921.801 323.235 916.583 263.842 893.138 206.809C885.719 188.761 875.669 172.446 864.888 156.049L865.624 153.165Z"/><path fill="#0986E4" d="M292.52 506.021C292.58 508.091 292.531 511.333 293.106 513.205C294.383 510.762 294.289 499.844 294.4 496.249L295.232 496.28C297.386 507.949 295.348 525.837 293.973 538.093C286.623 603.572 262.271 669.395 230.649 726.904C223.088 740.654 213.52 754.948 204.979 768L179.561 768C233.761 697.318 274.564 622.138 291.186 533.318C293.179 522.672 291.328 514.532 292.52 506.021Z"/><path fill="#0986E4" d="M251.168 520.017C258.658 574.787 233.113 659.445 209.044 708.654C199.877 727.395 186.555 750.199 175.418 768L152.158 768C159.833 759.473 173.948 738.244 180.364 728.223C213.382 676.655 240.849 616.92 249.224 555.767C250.344 547.594 249.968 534.429 249.908 525.969C250.126 523.585 250.111 522.216 251.168 520.017Z"/><path fill="#0986E4" d="M213.883 563.318C216.032 617.313 194.311 682.384 169.713 730.01C165.37 738.366 160.753 746.576 155.87 754.628C153.616 758.335 149.452 764.454 147.572 768L128.582 768C134.246 758.102 145.446 743.966 152.279 732.697C183.013 682.01 207.248 629.722 212.058 569.974C212.968 567.408 212.329 565.925 213.883 563.318Z"/><path fill="#0986E4" d="M14.4015 628.294C30.4947 599.847 55.0928 562.76 87.9526 552.569C117.865 543.292 139.837 563.389 146.312 591.488C157.819 641.425 136.451 694.079 115.67 738.84C110.963 748.793 104.775 758.371 99.7326 768L87.1265 768C91.0849 760.803 98.1147 751.197 102.747 743.309C113.84 724.257 123.571 704.443 131.868 684.017C144.808 652.138 154.296 614.458 140.611 581.007C136.539 570.806 127.425 559.034 116.707 555.448C69.5449 539.671 24.2838 611.76 11.5157 644.97C10.7432 646.429 10.1803 647.203 9.63623 648.775C7.74531 648.583 6.30468 648.449 4.41513 648.131C3.0962 650.518 1.62524 653.353 0 655.509L0 653.855C1.00744 651.814 7.1096 636.196 7.74587 633.888C8.49065 633.609 8.88267 632.792 8.63429 632.037L9.9093 629.997C10.2339 627.992 10.4894 627.883 11.6861 626.213L14.4015 628.294Z"/><path fill="#F7F9FB" d="M11.6861 626.213L14.4015 628.294C11.3485 634.405 7.69997 642.249 4.41513 648.131C3.0962 650.518 1.62524 653.353 0 655.509L0 653.855C1.00744 651.814 7.1096 636.196 7.74587 633.888C8.49065 633.609 8.88267 632.792 8.63429 632.037L9.9093 629.997C10.2339 627.992 10.4894 627.883 11.6861 626.213Z"/><path fill="#0986E4" d="M178.923 573.18C188.546 634.887 154.303 715.714 123.029 768L106.226 768C137.59 727.035 169.324 661.394 176.757 610.093C178.311 599.363 178.328 586.551 177.564 575.727L178.923 573.18Z"/><path fill="#0986E4" d="M14.7692 647.589C28.0961 624.09 47.2333 595.431 74.5091 587.076C97.8148 579.938 115.767 597.605 120.477 619.448C128.748 657.807 110.13 701.95 95.0885 736.633C90.4447 746.972 83.9462 757.937 78.911 768L68.4154 768C72.0899 762.859 75.6753 757.063 78.9455 751.567C95.4951 723.737 109.317 693.754 117.018 662.218C118.682 655.404 118.924 648.913 118.755 641.97C118.719 640.504 118.561 637.489 118.691 636.156C121.075 611.816 104.238 581.642 76.0264 589.574C49.2053 597.466 30.3167 627.776 17.3367 650.554C15.1041 650.484 15.081 649.585 14.7692 647.589Z"/><path fill="#0986E4" d="M30.0049 657.613C40.5792 646.608 53.953 635.788 68.8933 648.426C74.9789 653.574 76.6724 664.746 76.7438 672.193C76.0662 698.3 55.8609 747.425 40.6112 768L36.1006 768C50.9217 744.423 63.3966 719.259 70.7884 692.244C74.0157 680.323 75.8141 665.389 69.5021 654.239C63.9556 644.442 51.97 643.911 43.3089 649.559C37.6902 653.223 27.1936 662.776 25.6417 669.171L27.4582 670.224C26.9966 675.274 19.1129 682.799 16.4517 687.526C11.8387 695.721 3.87274 721.383 0 726.135L0 722.874L0 704.924L1.23198 703.945C3.44923 695.619 7.10847 687.077 11.078 679.422C12.198 680.967 12.7677 681.454 13.5396 683.219C14.0107 682.706 20.8116 670.705 21.3078 669.616C23.765 666.065 26.9946 661.67 29.2654 658.172L30.0049 657.613Z"/><path fill="#F7F9FB" d="M0 722.874C4.76012 708.501 14.5885 683.778 24.172 670.979C25.0455 669.812 26.026 670.161 27.4582 670.224C26.9966 675.274 19.1129 682.799 16.4517 687.526C11.8387 695.721 3.87274 721.383 0 726.135L0 722.874Z"/><path fill="#F7F9FB" d="M1.23198 703.945C3.44923 695.619 7.10847 687.077 11.078 679.422C12.198 680.967 12.7677 681.454 13.5396 683.219C11.2372 687.632 5.26031 704.164 1.23198 703.945Z"/><path fill="#0986E4" d="M20.4655 656.461C29.5921 641.74 44.2845 623.026 61.6744 618.559C85.1657 612.524 94.8836 632.445 98.823 651.599C100.575 660.116 98.5491 662.293 96.827 670.45C90.9525 706.688 76.7757 736.242 59.117 768L51.7683 768C68.8922 743.554 82.3152 711.42 90.9772 682.985C96.5953 664.542 99.2327 634.384 79.4773 623.26C58.267 611.317 33.4636 639.668 24.7185 656.202C22.5104 657.812 23.3284 657.765 20.8598 656.638L20.4655 656.461Z"/><path fill="#0986E4" d="M14.2986 607.758C18.5927 600.72 22.2405 593.085 26.7682 585.848C45.4202 556.036 72.311 520.437 108.194 511.649C122.58 508.125 135.503 510.207 148.038 517.979L146.193 519.352C132.552 512.239 121.091 510.271 106.012 515.18C66.533 528.029 38.5907 571.764 20.0349 606.691C17.6948 611.096 12.5453 621.468 11.5415 625.787L11.6861 626.213C10.4894 627.883 10.2339 627.992 9.9093 629.997C6.88972 628.6 5.95281 628.256 2.86494 629.605C2.96636 628.036 3.14554 627.534 3.5585 626.007C4.75982 622.309 6.42793 618.618 7.41924 614.871L7.55364 614.381C8.49094 612.572 8.85505 611.754 9.54442 609.792L11.4583 605.663L14.2986 607.758Z"/><path fill="#F7F9FB" d="M11.4583 605.663L14.2986 607.758C13.054 610.612 4.39198 627.716 2.86494 629.605C2.96636 628.036 3.14554 627.534 3.5585 626.007C4.75982 622.309 6.42793 618.618 7.41924 614.871L7.55364 614.381C8.49094 612.572 8.85505 611.754 9.54442 609.792L11.4583 605.663Z"/><path fill="#7ABAE3" fill-opacity="0.95686275" d="M716.118 136.741C786.219 180.108 821.941 256.437 823.395 337.042C823.534 344.735 825.871 351.841 822.23 359.108C822.181 355.389 822.646 353.797 820.258 351.464C819.259 340.692 821.034 325.454 819.587 312.904C813.028 256.009 796.238 214.533 757.554 172.679C756.769 171.065 755.731 170.396 754.325 169.318L753.92 168.94C752.798 167.511 752.351 166.623 750.689 165.853C739.798 155.73 729.168 146.577 716.545 138.614L716.118 136.741Z"/><path fill="#0986E4" fill-opacity="0.98823529" d="M27.4582 670.224C32.7959 670.083 41.4231 656.992 52.7501 667.409C57.0284 671.343 58.5995 679.273 58.3489 684.753C57.2084 709.689 39.8808 743.696 26.4632 763.648L25.3403 762.476C26.1375 761.308 26.9085 760.123 27.6526 758.92C38.485 741.468 60.0438 694.907 54.6719 678.542C42.6052 641.779 11.4643 696.884 8.27597 710.383C7.55851 713.42 0.824705 729.168 0.266591 730.166L0 730.633L0 726.135C3.87274 721.383 11.8387 695.721 16.4517 687.526C19.1129 682.799 26.9966 675.274 27.4582 670.224Z"/><path fill="#64AAE0" fill-opacity="0.96862745" d="M733.015 55.9618C784.143 70.64 834.556 110.474 865.624 153.165L864.888 156.049C833.911 111.013 783.939 74.5301 732.191 57.2623L733.015 55.9618Z"/><path fill="#7ABAE3" fill-opacity="0.95294118" d="M872.536 33.8119C898.175 48.3106 920.711 66.031 941.019 87.3397C945.445 91.9849 952.123 98.7928 955.84 103.793L956.068 107.446C932.634 78.8598 904.435 54.5428 872.716 35.5692L872.536 33.8119Z"/><path fill="#64AAE0" fill-opacity="0.96078432" d="M219.753 370.92C256.135 380.262 278.588 421.134 287.276 454.833L286.327 455.036C273.794 416.242 257.863 386.547 217.388 372.36L219.753 370.92Z"/><path fill="#64AAE0" fill-opacity="0.95294118" d="M171.965 473.544C188.717 481.705 201.053 500.367 206.652 517.594C210.819 530.417 214.898 549.89 213.883 563.318C212.329 565.925 212.968 567.408 212.058 569.974C212.003 533.269 205.106 496.083 171.775 475.29L171.965 473.544Z"/><path fill="#64AAE0" fill-opacity="0.96078432" d="M1013.54 13.3144C1034.35 27.2824 1065 60.2503 1080.24 80.2428L1079.46 83.2432C1058.54 55.5478 1040.85 37.4529 1013.78 15.6658L1013.54 13.3144Z"/><path fill="#64AAE0" fill-opacity="0.93725491" d="M148.038 517.979C166.2 530.454 176.941 551.365 178.923 573.18L177.564 575.727C175.281 553.637 165.425 531.469 146.193 519.352L148.038 517.979Z"/><path fill="#64AAE0" fill-opacity="0.96470588" d="M231.628 460.822L232.469 459.025C242.087 474.78 250.661 501.584 251.168 520.017C250.111 522.216 250.126 523.585 249.908 525.969C247.46 500.661 244.028 483.397 231.628 460.822Z"/><path fill="#0986E4" fill-opacity="0.98431373" d="M9.56813 674.901C10.4087 675.908 11.0264 676.687 11.7977 677.765C11.5343 678.329 11.3153 678.846 11.078 679.422C7.10847 687.077 3.44923 695.619 1.23198 703.945L0 704.924L0 693.26C1.42029 691.118 3.22473 687.549 4.24012 685.163C5.78182 681.913 7.78138 678.032 9.56813 674.901Z"/><path fill="#0986E4" fill-opacity="0.92941177" d="M0 611.892C7.97151 612.465 2.26083 607.646 9.54442 609.792C6.57054 610.387 3.77828 611.75 7.55364 614.381L7.41924 614.871C2.22542 615.907 0.627586 621.864 3.5585 626.007C3.14554 627.534 2.96636 628.036 2.86494 629.605C5.95281 628.256 6.88972 628.6 9.9093 629.997C8.77482 629.928 6.66067 629.423 5.99153 630.479C3.41375 634.548 2.07644 631.499 0 635.692L0 611.892Z"/><path fill="#C0DCEC" fill-opacity="0.89803922" d="M812.7 6.44359C830.512 11.756 856.417 23.7436 872.189 33.4476L870.633 34.4073C856.928 24.9261 827.571 13.0862 811.847 7.05947L812.7 6.44359Z"/><path fill="#0986E4" fill-opacity="0.88235295" d="M0 635.692C2.07644 631.499 3.41375 634.548 5.99153 630.479C6.66067 629.423 8.77482 629.928 9.9093 629.997L8.63429 632.037C8.44531 631.462 7.92591 631.059 7.32205 631.02C6.71819 630.981 6.15109 631.312 5.88928 631.858C5.62748 632.404 5.72353 633.054 6.13195 633.501C6.54037 633.947 7.17918 634.101 7.74587 633.888C7.1096 636.196 1.00744 651.814 0 653.855L0 635.692Z"/><path fill="#1A73E8" fill-opacity="0.9137255" d="M0 655.509C1.62524 653.353 3.0962 650.518 4.41513 648.131C6.30468 648.449 7.74531 648.583 9.63623 648.775C9.1284 649.772 8.94228 650.122 8.61596 651.198C6.57799 648.413 3.49333 651.169 6.8647 654.468C6.21994 656.812 1.00784 670.63 0 672.26L0 655.509Z"/><path fill="#0986E4" fill-opacity="0.77254903" d="M14.703 656.065L15.2452 654.906C15.5947 655.04 20.2174 656.425 20.4655 656.461L20.8598 656.638C23.3284 657.765 22.5104 657.812 24.7185 656.202C26.9724 656.864 27.7012 656.705 30.0049 657.613L29.2654 658.172C22.9634 655.753 20.6649 661.833 17.941 666.678C15.9214 669.623 13.8802 674.342 11.7977 677.765C11.0264 676.687 10.4087 675.908 9.56813 674.901C10.6904 672.733 11.7743 670.682 13.086 668.614C13.8849 667.206 19.3232 657.761 19.3531 657.383C18.0535 656.293 16.3513 656.263 14.703 656.065Z"/><path fill="#F7F9FB" d="M11.5157 644.97C12.4665 646.042 13.2715 646.878 14.3035 647.887C12.1926 652.917 7.32032 661.734 4.66527 666.698L2.76962 670.857C1.8446 672.084 1.12137 673.934 0 675.602L0 672.26C1.00784 670.63 6.21994 656.812 6.8647 654.468L8.61596 651.198C8.94228 650.122 9.1284 649.772 9.63623 648.775C10.1803 647.203 10.7432 646.429 11.5157 644.97Z"/><path fill="#64AAE0" d="M1167.36 0L1171.88 0C1173.4 2.65309 1186.61 15.65 1190.01 19.3572L1188.29 21.3813C1182.92 15.0773 1173.49 6.39484 1167.36 0Z"/><path fill="#0986E4" fill-opacity="0.98431373" d="M14.7692 647.589C15.081 649.585 15.1041 650.484 17.3367 650.554C16.7548 651.924 15.9277 653.561 15.2452 654.906L14.703 656.065C13.1245 658.736 10.1921 664.481 9.06663 667.314L8.764 667.479C7.35002 667.172 6.08534 666.937 4.66527 666.698C7.32032 661.734 12.1926 652.917 14.3035 647.887L14.7692 647.589Z"/><path fill="#0986E4" fill-opacity="0.97647059" d="M324.786 392.354L325.684 392.208C332 402.549 334.799 417.788 336.844 429.595C336.57 430.873 336.302 432.153 336.041 433.434C333.031 417.743 329.742 407.306 324.786 392.354Z"/><path fill="#0986E4" fill-opacity="0.92941177" d="M291.891 472.654C292.423 474.9 292.501 479.025 294.917 479.007C295.814 481.485 295.727 481.968 295.517 484.472C293.257 487.854 295.525 492.741 295.232 496.28L294.4 496.249C294.289 499.844 294.383 510.762 293.106 513.205C292.531 511.333 292.58 508.091 292.52 506.021C294.214 494.884 292.78 485.044 290.944 474.024L291.891 472.654Z"/><path fill="#64AAE0" fill-opacity="0.98431373" d="M180.419 419.739C191.443 421.606 202.465 426.968 211.288 433.75C211.409 434.801 211.283 434.69 210.552 435.671C197.646 426.019 192.464 425.407 178.014 421.084C179.012 420.603 179.485 420.339 180.419 419.739Z"/><path fill="#F7F9FB" fill-opacity="0.74117649" d="M17.941 666.678C19.3158 667.996 19.7776 668.523 21.3078 669.616C20.8116 670.705 14.0107 682.706 13.5396 683.219C12.7677 681.454 12.198 680.967 11.078 679.422C11.3153 678.846 11.5343 678.329 11.7977 677.765C13.8802 674.342 15.9214 669.623 17.941 666.678Z"/><path fill="#C0DCEC" fill-opacity="0.81176472" d="M682.93 43.6283C691.503 45.1174 725.8 51.7481 733.015 55.9618L732.191 57.2623C716.63 52.035 698.254 46.4855 681.859 44.5697L682.93 43.6283Z"/><path fill="#F7F9FB" d="M9.06663 667.314C10.8307 668.336 11.0837 668.264 13.086 668.614C11.7743 670.682 10.6904 672.733 9.56813 674.901C7.78138 678.032 5.78182 681.913 4.24012 685.163C2.74204 685.002 2.55759 685.336 1.57234 684.186C3.24486 680.182 4.8498 675.738 6.71402 671.889C7.50699 670.326 8.07582 669.09 8.764 667.479L9.06663 667.314Z"/><path fill="#7ABAE3" fill-opacity="0.86274511" d="M211.288 433.75C217.612 438.485 228.835 452.016 232.469 459.025L231.628 460.822C225 450.924 220.529 443.783 210.95 436.105C210.817 435.96 210.685 435.815 210.552 435.671C211.283 434.69 211.409 434.801 211.288 433.75Z"/><path fill="#F7F9FB" fill-opacity="0.78823531" d="M14.703 656.065C16.3513 656.263 18.0535 656.293 19.3531 657.383C19.3232 657.761 13.8849 667.206 13.086 668.614C11.0837 668.264 10.8307 668.336 9.06663 667.314C10.1921 664.481 13.1245 658.736 14.703 656.065Z"/><path fill="#F7F9FB" fill-opacity="0.98823529" d="M17.941 666.678C20.6649 661.833 22.9634 655.753 29.2654 658.172C26.9946 661.67 23.765 666.065 21.3078 669.616C19.7776 668.523 19.3158 667.996 17.941 666.678Z"/><path fill="#1A73E8" fill-opacity="0.89019608" d="M2.76962 670.857C4.58408 671.965 4.51494 671.764 6.71402 671.889C4.8498 675.738 3.24486 680.182 1.57234 684.186C1.06439 685.379 0.598828 686.268 0 687.415L0 675.602C1.12137 673.934 1.8446 672.084 2.76962 670.857Z"/><path fill="#0986E4" fill-opacity="0.97647059" d="M3.5585 626.007C0.627586 621.864 2.22542 615.907 7.41924 614.871C6.42793 618.618 4.75982 622.309 3.5585 626.007Z"/><path fill="#C0DCEC" fill-opacity="0.53333336" d="M702.723 129.022C704.597 129.796 714.979 135.447 716.118 136.741L716.545 138.614C712.499 136.392 707.373 132.62 703.47 130.827L702.723 129.022Z"/><path fill="#0986E4" fill-opacity="0.85490197" d="M4.66527 666.698C6.08534 666.937 7.35002 667.172 8.764 667.479C8.07582 669.09 7.50699 670.326 6.71402 671.889C4.51494 671.764 4.58408 671.965 2.76962 670.857L4.66527 666.698Z"/><path fill="#F7F9FB" fill-opacity="0.80000001" d="M1.57234 684.186C2.55759 685.336 2.74204 685.002 4.24012 685.163C3.22473 687.549 1.42029 691.118 0 693.26L0 687.415C0.598828 686.268 1.06439 685.379 1.57234 684.186Z"/><path fill="#7ABAE3" fill-opacity="0.93725491" d="M1003.41 5.78173C1006.6 8.35525 1009.77 10.2872 1012.9 12.7391L1012.06 14.366C1008.88 11.9282 1006.05 9.60505 1002.7 7.2869L1003.41 5.78173Z"/><path fill="#F7F9FB" fill-opacity="0.015686275" d="M125.357 224.067C126.583 224.285 127.808 224.448 129.04 224.621L130.383 225.897C123.979 225.685 118.457 226.261 111.912 225.214C116.921 224.603 122.75 225.848 125.357 224.067Z"/><path fill="#F7F9FB" fill-opacity="0.031372551" d="M14.5794 579.353C15.85 579.946 15.9121 580.019 17.2844 580.18C16.2982 582.188 15.131 584.323 14.2045 586.306L13.0525 584.884C13.2108 582.446 13.7088 581.614 14.5794 579.353Z"/><path fill="#F7F9FB" fill-opacity="0.22745098" d="M24.4863 513.276L27.2551 513.168C26.1165 515.902 25.8486 516.683 24.3307 519.279L22.6252 519.005C23.0037 516.854 23.279 515.151 24.4863 513.276Z"/><defs><linearGradient id="gradient_0" gradientUnits="userSpaceOnUse" x1="1001.7748" y1="6.4467835" x2="1002.2001" y2="5.2903886"><stop offset="0" stop-color="#A7D1EE" stop-opacity="0.81568629"/><stop offset="1" stop-color="#82BCE6"/></linearGradient></defs><path fill="url(#gradient_0)" d="M993.084 0L994.645 0C997.536 2.11547 1000.36 3.90173 1003.41 5.78173L1002.7 7.2869C1000.18 5.55707 995.552 1.9522 993.084 0Z"/><path fill="#F7F9FB" fill-opacity="0.4509804" d="M362.855 393.368C361.873 396.706 360.948 399.701 359.997 403.088C358.843 402.574 358.166 402.274 356.952 401.875C359.333 398.945 360.761 396.508 362.855 393.368Z"/><path fill="#F7F9FB" fill-opacity="0.86666667" d="M24.4863 513.276C25.4186 510.755 25.6701 509.842 26.8998 507.532L28.877 509.333C28.5605 510.919 28.0573 511.778 27.2551 513.168L24.4863 513.276Z"/><path fill="#F7F9FB" fill-opacity="0.3019608" d="M677.145 43.9288C675.815 43.681 667.847 42.1794 667.19 41.6394C667.222 41.5907 667.254 41.542 667.286 41.4934C669.054 41.1668 676.88 42.3555 678.662 42.9117L677.145 43.9288Z"/><path fill="#F7F9FB" fill-opacity="0.43529412" d="M14.5794 579.353C15.0545 578.196 15.5512 577.047 16.0695 575.908C17.6681 575.678 17.7086 575.789 19.2827 576.155C18.6179 577.504 17.9172 578.818 17.2844 580.18C15.9121 580.019 15.85 579.946 14.5794 579.353Z"/><path fill="#F7F9FB" fill-opacity="0.36862746" d="M692.137 123.45C694.256 124.194 697.125 125.731 699.295 126.657L699.009 128.547C696.242 126.686 693.918 125.768 691.057 124.135L692.137 123.45Z"/><path fill="#F7F9FB" fill-opacity="0.035294119" d="M718.516 404.513C722.156 405.981 725.161 407.426 729.004 408.388L727.277 410.047C724.681 408.596 721.015 406.172 718.516 404.513Z"/><path fill="#64AAE0" fill-opacity="0.87450981" d="M21.5652 768C22.8089 766.092 24.0369 764.333 25.3403 762.476L26.4632 763.648C25.4303 765.234 24.5621 766.32 23.5714 768L21.5652 768Z"/><path fill="#0986E4" fill-opacity="0.85490197" d="M6.8647 654.468C3.49333 651.169 6.57799 648.413 8.61596 651.198L6.8647 654.468Z"/><path fill="#0986E4" fill-opacity="0.88235295" d="M7.55364 614.381C3.77828 611.75 6.57054 610.387 9.54442 609.792C8.85505 611.754 8.49094 612.572 7.55364 614.381Z"/><path fill="#0986E4" fill-opacity="0.043137256" d="M337.717 434.074C338.411 435.481 337.714 437.083 337.923 439.045C337.401 439.354 336.972 439.633 336.466 439.963C336.47 438.612 336.491 437.262 336.529 435.912C336.935 435.297 337.333 434.704 337.717 434.074Z"/><path fill="#C0DCEC" fill-opacity="0.59607846" d="M680.771 118.479C683.225 119.54 685.706 120.536 688.212 121.467L687.661 122.294C685.2 121.414 682.727 120.32 680.144 119.378L680.771 118.479Z"/><path fill="#0986E4" fill-opacity="0.83529413" d="M7.74587 633.888C7.17918 634.101 6.54037 633.947 6.13195 633.501C5.72353 633.054 5.62748 632.404 5.88928 631.858C6.15109 631.312 6.71819 630.981 7.32205 631.02C7.92591 631.059 8.44531 631.462 8.63429 632.037C8.88267 632.792 8.49065 633.609 7.74587 633.888Z"/><path fill="#F7F9FB" fill-opacity="0.05882353" d="M722.036 373.151C721.35 372.979 719.793 372.675 719.631 371.903C720.186 371.053 724.823 371.763 725.766 371.902C723.954 372.317 723.732 372.321 722.036 373.151Z"/><path fill="#7ABAE3" fill-opacity="0.93333334" d="M285.916 366.114C286.927 362.503 287.596 358.323 288.304 365.637L285.916 366.114Z"/><path fill="#C0DCEC" fill-opacity="0.26274511" d="M168.858 185.884C169.709 186.233 173.248 187.748 173.323 188.648C172.411 189.356 168.835 187.053 167.943 186.515L168.858 185.884Z"/><path fill="#0986E4" fill-opacity="0.68627453" d="M290.142 468.429L290.937 468.63C291.452 470.266 291.592 470.975 291.891 472.654L290.944 474.024C290.617 472.389 290.38 470.135 290.142 468.429Z"/><path fill="#0986E4" fill-opacity="0.74117649" d="M336.844 429.595C337.114 431.092 337.405 432.586 337.717 434.074C337.333 434.704 336.935 435.297 336.529 435.912L336.041 433.434C336.302 432.153 336.57 430.873 336.844 429.595Z"/><path fill="#C0DCEC" fill-opacity="0.21568628" d="M710.713 444.347C707.113 441.486 707.478 440.184 711.428 443.091L710.713 444.347Z"/><path fill="#C0DCEC" fill-opacity="0.1254902" d="M726.165 430.308C725.621 429.912 723.474 428.623 723.564 427.787C724.235 427.316 726.083 428.669 726.739 429.033L726.165 430.308Z"/><path fill="#C0DCEC" fill-opacity="0.49411765" d="M804.962 3.59967C806.213 4.03718 807.557 4.43046 808.767 4.91718L808.502 5.74563C806.986 5.34219 805.744 4.85291 804.254 4.41385L804.962 3.59967Z"/><path fill="#C0DCEC" fill-opacity="0.81568629" d="M1012.9 12.7391C1013.32 13.0028 1013.19 12.9008 1013.54 13.3144L1013.78 15.6658C1013.16 15.2209 1012.65 14.8592 1012.06 14.366L1012.9 12.7391Z"/><path fill="#C0DCEC" fill-opacity="0.37254903" d="M140.018 208.874C140.961 209.123 141.091 209.145 141.951 209.579L142.029 209.733C141.609 210.488 137.124 209.665 136.414 209.536C137.614 209.305 138.815 209.084 140.018 208.874Z"/><path fill="#F7F9FB" fill-opacity="0.047058824" d="M590.336 446.935C590.4 446.252 590.472 443.082 590.995 442.812C591.737 443.14 591.967 444.369 592.179 445.06L590.336 446.935Z"/><path fill="#C0DCEC" fill-opacity="0.69803923" d="M808.767 4.91718C810.084 5.40887 811.395 5.91772 812.7 6.44359L811.847 7.05947C810.328 6.59434 809.948 6.44212 808.502 5.74563L808.767 4.91718Z"/><path fill="#C0DCEC" fill-opacity="0.68235296" d="M688.604 121.855C689.791 122.366 690.969 122.898 692.137 123.45L691.057 124.135C690.044 123.565 689.364 123.212 688.294 122.743L688.604 121.855Z"/><path fill="#F7F9FB" fill-opacity="0.41176471" d="M680.971 43.342C681.625 43.429 682.278 43.5244 682.93 43.6283L681.859 44.5697C681.134 44.4807 680.453 44.4022 679.731 44.2815L680.971 43.342Z"/><path fill="#F7F9FB" fill-opacity="0.29019609" d="M680.144 119.378C679.614 119.198 678.511 118.993 678.696 118.221C679.357 117.639 680.113 118.139 680.771 118.479L680.144 119.378Z"/><path fill="#C0DCEC" fill-opacity="0.7647059" d="M678.662 42.9117L680.971 43.342L679.731 44.2815C678.898 44.1531 677.982 43.9893 677.145 43.9288L678.662 42.9117Z"/><path fill="#F7F9FB" fill-opacity="0.19215687" d="M804.254 4.41385C801.582 3.54478 802.808 2.78586 804.962 3.59967L804.254 4.41385Z"/><path fill="#C0DCEC" fill-opacity="0.83137256" d="M700.472 127.594C701.385 128.088 701.885 128.44 702.723 129.022L701.265 129.536L700.068 128.706L700.472 127.594Z"/><path fill="#C0DCEC" fill-opacity="0.67843139" d="M872.189 33.4476L872.536 33.8119L872.716 35.5692C872.004 35.1833 871.331 34.8209 870.633 34.4073L872.189 33.4476Z"/><path fill="#C0DCEC" fill-opacity="0.54509807" d="M754.325 169.318C755.731 170.396 756.769 171.065 757.554 172.679C756.241 171.835 755.286 170.532 754.325 169.318Z"/><path fill="#C0DCEC" fill-opacity="0.54509807" d="M750.689 165.853C752.351 166.623 752.798 167.511 753.92 168.94C752.713 167.985 751.579 167.128 750.689 165.853Z"/><path fill="#C0DCEC" fill-opacity="0.46666667" d="M699.295 126.657L700.472 127.594L700.068 128.706L699.009 128.547L699.295 126.657Z"/><path fill="#C0DCEC" fill-opacity="0.43921569" d="M702.723 129.022L703.47 130.827C702.729 130.407 701.994 129.977 701.265 129.536L702.723 129.022Z"/><path fill="#F7F9FB" fill-opacity="0.31764707" d="M688.212 121.467L688.604 121.855L688.294 122.743L687.661 122.294L688.212 121.467Z"/></svg>