<?xml version="1.0" encoding="utf-8" ?><svg xmlns="http://www.w3.org/2000/svg" xmlns:xlink="http://www.w3.org/1999/xlink" width="1344" height="768" viewBox="0 0 1344 768"><path fill="#38BDF8" d="M285.54 50.912C289.533 50.5508 301.931 45.4278 306.563 43.9206C395.728 14.9046 495.427 22.3956 579.709 63.2335C591.548 69.0768 603.103 75.4781 614.335 82.4158C617.898 84.603 629.727 92.485 632.766 93.7863C657.972 110.88 699.448 149.377 716.038 175.181C721.614 180.512 731.595 196.688 735.863 203.9C756.016 237.341 770.345 273.964 778.237 312.205C781.023 325.979 782.403 338.106 784.343 351.8C803.009 353.076 805.118 353.503 823.426 350.748L829.53 351.23C821.513 352.192 813.332 353.838 805.324 354.266C798.45 354.634 791.277 353.225 784.487 353.01C784.846 358.153 785.564 365.292 785.615 370.293L783.932 370.097C783.994 374.597 783.849 382.424 784.223 386.645C784.55 387.127 785.014 387.608 785.411 388.049C785.577 391.106 785.572 391.337 785.154 394.376C784.492 394.507 784.403 394.426 784.092 394.838C783.78 396.713 783.554 397.566 783.71 399.496C784.324 400.432 784.98 401.321 785.636 402.227L784.418 405.087C783.536 406.752 784.569 406.737 784.539 409.552C784.159 413.21 783.919 415.616 783.38 419.259L782.182 418.718C776.752 456.859 769.788 490.367 752.966 525.259C751.853 527.568 750.045 531.473 749.213 533.855C707.864 620.875 633.608 687.87 542.821 720.068C514.46 730.286 484.882 736.739 454.843 739.263C450.583 739.619 441.837 740.52 437.826 740.372C436.652 740.776 435.181 741.233 434.06 741.699C408.076 743.165 378.232 740.607 352.646 735.895C311.316 728.158 271.54 713.674 234.911 693.023C231.445 691.102 220.165 684.889 218.466 682.423C154.317 640.568 103.768 581.501 76.4525 509.55C42.6725 422.816 44.9869 326.17 82.8799 241.154C122.67 153.462 195.523 85.0727 285.54 50.912ZM431.975 690.921C519.093 687.246 596.45 652.887 655.667 588.607C709.739 529.002 738.142 450.48 734.715 370.068C731.204 287.953 694.821 214.026 634.525 158.679C584.854 113.624 522.046 85.6912 455.328 78.9852C441.919 77.507 423.594 76.3276 409.912 77.0226C409.583 77.0415 409.253 77.0655 408.925 77.0945C324.528 80.2784 244.797 116.649 187.06 178.304C131.791 237.243 102.642 316 106.219 396.729C109.132 476.648 143.977 552.057 202.947 606.06C264.335 663.038 345.672 693.57 429.381 691.056C430.246 691.023 431.111 690.978 431.975 690.921Z"/><path fill="#071A27" d="M716.038 175.181C721.614 180.512 731.595 196.688 735.863 203.9C756.016 237.341 770.345 273.964 778.237 312.205C781.023 325.979 782.403 338.106 784.343 351.8C803.009 353.076 805.118 353.503 823.426 350.748L829.53 351.23C821.513 352.192 813.332 353.838 805.324 354.266C798.45 354.634 791.277 353.225 784.487 353.01C784.846 358.153 785.564 365.292 785.615 370.293L783.932 370.097C783.537 368.461 783.039 354.415 782.805 351.497C781.766 339.75 780.134 328.063 777.915 316.481C769.219 270.687 750.747 226.229 724.296 187.833C721.631 183.964 718.649 179.848 716.36 175.763L716.038 175.181Z"/><path fill="#184B69" d="M218.466 682.423C220.437 682.911 237.405 693.102 240.951 695.054C248.923 699.437 257.061 703.509 265.348 707.262C307.156 726.323 352.123 737.499 397.987 740.227C413.59 741.043 422.915 740.372 437.826 740.372C436.652 740.776 435.181 741.233 434.06 741.699C408.076 743.165 378.232 740.607 352.646 735.895C311.316 728.158 271.54 713.674 234.911 693.023C231.445 691.102 220.165 684.889 218.466 682.423Z"/><path fill="#191D20" d="M783.71 399.496C784.324 400.432 784.98 401.321 785.636 402.227L784.418 405.087C783.536 406.752 784.569 406.737 784.539 409.552C784.159 413.21 783.919 415.616 783.38 419.259L782.182 418.718C782.416 412.986 783.337 405.651 783.71 399.496Z"/><path fill="#191D20" d="M784.223 386.645C784.55 387.127 785.014 387.608 785.411 388.049C785.577 391.106 785.572 391.337 785.154 394.376C784.492 394.507 784.403 394.426 784.092 394.838C784.05 392.106 784.094 389.374 784.223 386.645Z"/><path fill="#071A27" d="M408.925 77.0945C409.253 77.0655 409.583 77.0415 409.912 77.0226C423.594 76.3276 441.919 77.507 455.328 78.9852C522.046 85.6912 584.854 113.624 634.525 158.679C694.821 214.026 731.204 287.953 734.715 370.068C738.142 450.48 709.739 529.002 655.667 588.607C596.45 652.887 519.093 687.246 431.975 690.921C431.111 690.978 430.246 691.023 429.381 691.056C345.672 693.57 264.335 663.038 202.947 606.06C143.977 552.057 109.132 476.648 106.219 396.729C102.642 316 131.791 237.243 187.06 178.304C244.797 116.649 324.528 80.2784 408.925 77.0945ZM664.128 358.909C662.214 358.359 656.118 357.497 654.521 358.814C642.255 360.684 640.844 358.422 628.921 357.102C625.185 356.689 617.379 359.045 613.424 358.798C608.912 358.517 603.717 355.841 599.23 355.244C593.805 354.522 587.239 357.373 582.167 357.635C576.843 357.475 572.357 355.208 566.911 355.58C558.514 356.107 549.779 355.853 541.44 356.17C540.386 356.211 533.113 358.988 532.276 359.398C521.116 364.855 516.435 360.314 506.162 357.28C501.322 355.85 490.403 361.215 484.981 360.805C473.994 360.481 463.409 355.464 452.19 356.95C438.851 358.017 429.611 367.937 417.186 367.427C407.844 367.043 393.722 365.126 384.662 362.578C378.812 360.933 374.489 356.735 367.389 356.459C357.296 356.068 349.603 359.604 339.882 361.071C333.855 361.98 328.911 359.758 323.012 359.185C320.405 358.932 312.707 360.929 310.604 360.65C305.322 359.949 298.422 357.659 293.156 356.127C284.374 353.572 275.262 351.405 266.092 350.73C253.566 349.807 239.947 352.962 227.58 354.885C223.73 355.483 219.721 358.236 214.804 358.295C204.094 358.424 194.591 356.107 184.199 354.765C180.484 354.286 170.292 356.743 165.734 355.836C152.179 353.137 144.109 350.671 129.993 350.41C129.352 355.946 128.671 363.289 128.628 368.862L127.245 369.777C127.023 360.288 128.736 347.339 130.261 337.757C137.644 291.37 153.137 256.382 178.185 217.307L177.252 217.019C178.361 213.975 185.074 207.165 185.742 205.126C188.03 198.154 216.462 171.558 217.446 168.78L213.598 168.66L214.35 168.191C223.106 166.352 216.787 161.949 226.886 159.081C230.587 157.725 231.003 153.28 232.804 152.398C240.863 148.452 247.401 143.193 254.71 138.106C258.163 135.703 261.568 134.25 265.141 131.621C266.403 131.233 269.838 129.073 271.178 128.28C273.311 127.045 283.074 122.144 283.942 121.062C285.583 120.546 287.423 119.834 289.065 119.246L289.495 120.145C302.236 114.294 311.697 109.409 325.173 104.334C369.224 87.7473 413.86 81.9611 460.664 82.7475L462.148 81.161L459.725 80.9904C440.245 78.0888 425.969 78.1043 406.601 78.8459C401.758 78.6806 393.457 79.1102 388.666 79.952C371.111 81.8346 353.718 85.0059 336.629 89.4401C334.608 90.0476 332.602 90.706 330.615 91.4146C329.242 91.8203 327.552 92.2645 326.239 92.7548C321.247 93.9407 317.395 95.4647 312.617 97.1889L304.404 100.33C298.603 102.557 293.764 104.539 288.122 107.129C285.745 108.301 283.45 109.102 281.091 110.404C279.744 111.052 277.3 112.185 276.159 113.008C271.485 115.179 267.653 117.767 263.407 119.79C261.897 120.433 260.932 121.114 259.534 121.929C253.771 125.255 247.53 128.99 242.198 132.958C240.548 133.723 238.051 135.632 236.567 136.785L231.166 140.685C229.398 141.953 227.836 143.099 226.123 144.452C224.921 145.386 223.508 146.422 222.383 147.415C222.063 147.625 221.814 147.928 221.671 148.284C218.634 150.211 215.521 152.989 212.732 155.329L210.073 157.78C208.449 159.294 206.805 160.787 205.141 162.258C203.76 163.613 201.676 165.53 200.432 166.906L199.759 167.525L195.554 171.177C183.714 184.431 175.613 192.543 164.805 207.319C123.548 263.767 103.396 332.903 107.86 402.684C110.571 449.786 125.565 501.874 151.479 541.619C152.716 543.878 155.421 548.142 156.952 550.181C157.455 551.013 157.65 551.279 158.258 552.001C159.14 553.467 160.388 555.582 161.622 556.745C162.502 558.213 163.77 560.381 165.026 561.478C165.684 562.524 166.286 563.487 167.013 564.493C167.467 565.102 167.716 565.388 168.238 565.937C169.01 567.032 169.404 567.679 170.385 568.639C171.693 570.461 174.22 573.949 175.846 575.292C224.711 635.719 304.079 679.526 381.511 687.709C415.589 691.53 450.051 690.097 483.694 683.463L474.394 682.77L474.209 682.08C493.386 682.07 500.231 680.558 518.648 674.567C549.622 664.599 578.898 649.973 605.472 631.192C669.799 585.479 713.829 516.531 728.25 438.931C742.39 358.47 726.534 278.95 679.322 211.719C645.192 162.757 597.603 124.742 542.316 102.279C530.921 97.527 514.878 91.1112 502.525 88.849C452.09 79.6133 395.566 83.6753 346.564 98.726C344.932 99.2273 342.529 99.3714 341.315 100.23C342.74 100.513 358.39 96.8224 361.585 96.1907C375.475 93.4519 389.545 91.7223 403.685 91.0154C479.581 86.6225 562.574 116.238 619.341 166.98C677.499 218.137 712.859 290.382 717.583 367.704L716.167 367.66L714.982 352.985C710.577 352.807 706.493 352.569 702.134 353.159C693.267 354.361 672.513 359.951 664.128 358.909Z"/><path fill="#242629" d="M717.583 367.704C712.859 290.382 677.499 218.137 619.341 166.98C562.574 116.238 479.581 86.6225 403.685 91.0154C389.545 91.7223 375.475 93.4519 361.585 96.1907C358.39 96.8224 342.74 100.513 341.315 100.23C342.529 99.3714 344.932 99.2273 346.564 98.726C395.566 83.6753 452.09 79.6133 502.525 88.849C514.878 91.1112 530.921 97.527 542.316 102.279C597.603 124.742 645.192 162.757 679.322 211.719C726.534 278.95 742.39 358.47 728.25 438.931C713.829 516.531 669.799 585.479 605.472 631.192C578.898 649.973 549.622 664.599 518.648 674.567C500.231 680.558 493.386 682.07 474.209 682.08L474.394 682.77C355.516 682.008 264.365 656.692 186.892 561.402L186.642 560.967L185.852 559.535C185.054 558.558 184.517 557.89 183.832 556.809C183.305 556.226 182.775 555.61 182.208 555.071C181.37 553.61 177.26 547.366 176.194 546.028C175.361 544.618 172.831 540.427 171.884 539.289C166.596 530.936 161.76 522.305 157.399 513.433C154.922 508.365 152.018 501.339 149.321 496.648C138.43 468.618 130.476 441.787 128.077 411.586C126.302 398.223 127.152 384.381 126.589 370.962L127.221 370.258L127.245 369.777L128.628 368.862C128.671 363.289 129.352 355.946 129.993 350.41C144.109 350.671 152.179 353.137 165.734 355.836C170.292 356.743 180.484 354.286 184.199 354.765C194.591 356.107 204.094 358.424 214.804 358.295C219.721 358.236 223.73 355.483 227.58 354.885C239.947 352.962 253.566 349.807 266.092 350.73C275.262 351.405 284.374 353.572 293.156 356.127C298.422 357.659 305.322 359.949 310.604 360.65C312.707 360.929 320.405 358.932 323.012 359.185C328.911 359.758 333.855 361.98 339.882 361.071C349.603 359.604 357.296 356.068 367.389 356.459C374.489 356.735 378.812 360.933 384.662 362.578C393.722 365.126 407.844 367.043 417.186 367.427C429.611 367.937 438.851 358.017 452.19 356.95C463.409 355.464 473.994 360.481 484.981 360.805C490.403 361.215 501.322 355.85 506.162 357.28C516.435 360.314 521.116 364.855 532.276 359.398C533.113 358.988 540.386 356.211 541.44 356.17C549.779 355.853 558.514 356.107 566.911 355.58C572.357 355.208 576.843 357.475 582.167 357.635C587.239 357.373 593.805 354.522 599.23 355.244C603.717 355.841 608.912 358.517 613.424 358.798C617.379 359.045 625.185 356.689 628.921 357.102C640.844 358.422 642.255 360.684 654.521 358.814C656.118 357.497 662.214 358.359 664.128 358.909C672.513 359.951 693.267 354.361 702.134 353.159C706.493 352.569 710.577 352.807 714.982 352.985L716.167 367.66L717.583 367.704ZM256.701 402.427C252.905 402.285 247.959 401.996 244.586 403.551L244.352 403.832C248.314 406.58 254.264 404.762 258.071 406.659C263.995 409.61 266.206 412.655 272.666 415.107C274.187 414.547 277.86 413.298 279.023 412.527L278.775 411.975C279.106 411.63 291.363 407.581 294.18 405.971C294.517 405.982 294.69 406.068 294.89 405.882L294.886 405.752C294.074 404.726 288.05 403.809 287.421 403.308C288.73 403.07 291.237 403.069 292.758 402.961C285.567 401.613 271.027 400.598 263.983 401.143C261.037 402.87 260.275 402.397 256.701 402.427Z"/><path fill="#D9D0B8" d="M128.618 376.25C136.009 380.024 141.967 381.857 149.554 384.825C156.92 387.706 165.306 393.982 173.088 395.397C181.494 396.925 196.967 395.702 204.462 397.927C216.965 401.637 230.863 409.028 243.54 413.18C247.997 414.64 254.134 414.223 259.045 415.791C274.921 420.861 278.259 436.267 292.511 442.096C300.788 445.357 309.986 442.654 318.366 444.933C327.029 447.289 334.697 458.15 343.181 460.361C352.548 462.802 363.546 464.08 373.114 466.565C375.589 467.207 381.529 466.047 384.302 466.844C388.403 467.909 392.029 470.712 396.117 471.774C411.047 475.649 429.107 477.162 442.647 485.013C453.178 491.119 457.492 494.031 469.852 495.601C471.899 495.861 479.307 503.767 482.789 503.349C491.467 503.685 508.789 504.279 516.742 503.069C531.677 500.795 542.614 498.131 558.099 500.379C569.968 502.102 576.359 511.761 586.983 514.277C591.228 515.283 598.886 513.748 603.961 514.027C608.074 516.198 614.274 522.296 616.736 523.302C624.893 526.637 635.163 528.364 643.538 531.732C645.289 532.382 652.072 528.791 653.885 528.426C660.851 527.155 669.272 529.664 676.133 531.134C667.221 544.564 653.743 565.46 642.508 576.252C628.671 570.177 614.964 563.726 600.956 558.069C596.72 556.358 592.722 553.176 588.729 551.357L587.879 552.165C583.54 551.006 580.875 550.918 576.8 553.264C574.995 554.323 573.216 555.423 571.462 556.563C564.896 556.687 558.949 556.747 552.81 553.793C550.953 552.919 550.845 552.804 548.848 552.328L550.561 551.548L544.64 549.14C531.643 525.911 525.053 537.711 510.556 534.611C506.502 533.744 499.88 524.158 486.906 520.234C464.923 527.829 466.608 514.73 451.554 504.8C447.88 502.376 439.992 501.264 435.463 500.445C431.835 497.448 429.524 492.704 425.641 489.805C419.834 485.469 412.801 489.773 406.374 490.692C398.388 491.834 395.644 485.643 390.323 481.951C386.341 479.188 380.071 479.52 375.679 480.871C369.708 482.707 363.063 477.376 358.013 473.981C354.593 473.922 349.516 473.694 346.306 474.462L345.831 474.579C338.14 476.42 332.493 481.657 325.212 482.417C317.455 483.226 304.607 469.168 298.158 463.366C287.576 455.998 281.074 458.664 273.154 454.618C264.831 450.367 255.379 440.802 244.943 436.32C233.054 431.214 223.13 431.594 211.381 427.291C208.081 426.082 200.499 418.338 197.807 417.901C189.184 416.5 181.07 421.25 171.542 416.547C168.26 414.928 156.317 409.193 153.957 407.19C143.539 398.348 141.506 395.176 128.551 389.731C128.446 385.282 128.563 380.709 128.618 376.25Z"/><path fill="#071A27" d="M550.561 551.548C573.392 561.885 574.021 546.296 588.729 551.357L587.879 552.165C583.54 551.006 580.875 550.918 576.8 553.264C574.995 554.323 573.216 555.423 571.462 556.563C564.896 556.687 558.949 556.747 552.81 553.793C550.953 552.919 550.845 552.804 548.848 552.328L550.561 551.548Z"/><path fill="#0899E2" d="M717.583 367.704C712.859 290.382 677.499 218.137 619.341 166.98C562.574 116.238 479.581 86.6225 403.685 91.0154C389.545 91.7223 375.475 93.4519 361.585 96.1907C358.39 96.8224 342.74 100.513 341.315 100.23C342.529 99.3714 344.932 99.2273 346.564 98.726C395.566 83.6753 452.09 79.6133 502.525 88.849C514.878 91.1112 530.921 97.527 542.316 102.279C597.603 124.742 645.192 162.757 679.322 211.719C726.534 278.95 742.39 358.47 728.25 438.931C713.829 516.531 669.799 585.479 605.472 631.192C578.898 649.973 549.622 664.599 518.648 674.567C500.231 680.558 493.386 682.07 474.209 682.08C465.295 681.218 455.509 681.416 446.452 680.803C433 679.893 419.77 678.661 406.368 677.23C408.691 675.947 413.091 676.347 416.395 676.012C460.091 674.412 489.267 672.532 531.369 655.946C606.258 626.445 662.486 570.662 694.511 497.151C697.273 491.107 699.179 486.258 701.468 480.005C714.442 446.674 718.726 402.96 717.583 367.704Z"/><path fill="#0899E2" d="M129.993 350.41C144.109 350.671 152.179 353.137 165.734 355.836C170.292 356.743 180.484 354.286 184.199 354.765C194.591 356.107 204.094 358.424 214.804 358.295C219.721 358.236 223.73 355.483 227.58 354.885C239.947 352.962 253.566 349.807 266.092 350.73C275.262 351.405 284.374 353.572 293.156 356.127C298.422 357.659 305.322 359.949 310.604 360.65C312.707 360.929 320.405 358.932 323.012 359.185C328.911 359.758 333.855 361.98 339.882 361.071C349.603 359.604 357.296 356.068 367.389 356.459C374.489 356.735 378.812 360.933 384.662 362.578C393.722 365.126 407.844 367.043 417.186 367.427C429.611 367.937 438.851 358.017 452.19 356.95C463.409 355.464 473.994 360.481 484.981 360.805C490.403 361.215 501.322 355.85 506.162 357.28C516.435 360.314 521.116 364.855 532.276 359.398C533.113 358.988 540.386 356.211 541.44 356.17C549.779 355.853 558.514 356.107 566.911 355.58C572.357 355.208 576.843 357.475 582.167 357.635C587.239 357.373 593.805 354.522 599.23 355.244C603.717 355.841 608.912 358.517 613.424 358.798C617.379 359.045 625.185 356.689 628.921 357.102C640.844 358.422 642.255 360.684 654.521 358.814C656.118 357.497 662.214 358.359 664.128 358.909C672.513 359.951 693.267 354.361 702.134 353.159C706.493 352.569 710.577 352.807 714.982 352.985L716.167 367.66L715.646 367.695C704.102 368.574 685.929 376.406 674.289 378.107C669.439 378.816 654.811 377.811 650.193 376.077C644.072 373.779 638.178 370.646 631.383 369.798C622.413 368.679 613.424 370.685 604.38 370.099C597.138 364.642 592.92 362.016 583.049 363.268C571.998 364.67 561.594 373.611 550.575 375.315C546.144 375.812 541.681 374.252 537.19 374.351C533.267 374.438 519.674 378.029 516.905 377.066C504.361 372.703 500.472 373.366 487.732 375.53C482.382 376.439 471.39 374.235 465.517 374.991C451.996 375.763 438.095 379.258 424.607 381.09C421.121 381.564 416.076 384.084 411.99 384.539C406.377 385.165 401.666 381.32 397.082 380.727C389.249 379.712 377.886 378.981 370.109 379.657C362.529 380.315 354.049 385.033 346.472 385.318C339.573 385.578 331.904 381.95 325.283 381.599C312.35 380.911 299.169 382.03 286.237 381.715C280.833 381.316 275.393 380.303 270.002 379.775C264.891 379.274 259.344 379.569 254.313 378.864C242.909 377.267 232.061 376.492 220.609 378.494C213.559 379.726 206.019 382.76 198.802 382.532C195.64 382.353 189.636 377.415 185.982 376.8C180.167 375.822 175.099 377.688 169.267 377.303C164.296 376.974 156.645 372.677 152.632 372.001C144.764 370.678 136.685 370.236 128.628 368.862C128.671 363.289 129.352 355.946 129.993 350.41Z"/><path fill="#184B69" d="M654.521 358.814C656.118 357.497 662.214 358.359 664.128 358.909C661.13 359.031 657.541 358.946 654.521 358.814Z"/><path fill="#071A27" d="M159.2 368.796C156.659 368.811 153.596 369.073 151.359 368.041C152.782 367.321 232.013 367.534 239.023 368.1C250.99 368.375 263.495 368.545 275.455 369.152C279.097 369.336 286.374 372.149 290.313 372.42C296.314 372.831 302.211 372.248 308.209 372.685L347.507 375.178C356.727 375.825 363.048 376.881 372.557 376.968L372.952 377.511C358.635 377.642 344.382 376.361 329.939 375.918C328.386 376.109 327.756 376.281 326.387 375.626C321.362 375.665 310.783 373.495 306.803 374.027C293.793 375.769 282.924 370.865 271.153 370.403C247.47 369.659 223.775 369.375 200.081 369.55C192.313 369.566 164.848 370.08 159.2 368.796Z"/><path fill="#184B69" d="M159.2 368.796C156.659 368.811 153.596 369.073 151.359 368.041C152.782 367.321 232.013 367.534 239.023 368.1C221.054 368.71 202.719 368.012 184.725 368.143C179.23 368.183 163.924 367.816 159.2 368.796Z"/><path fill="#184B69" d="M326.387 375.626C327.963 375.288 328.572 375.076 329.939 375.918C328.386 376.109 327.756 376.281 326.387 375.626Z"/><path fill="#F0843F" d="M321.474 422.938C336.298 424.851 342.522 426.252 356.447 431.376L356.987 431.55C361.148 432.925 365.643 434.461 370.019 435.102L376.363 436.872L376.563 435.583C397.022 445.106 420.351 440.423 441.543 442.592C449.241 443.651 456.122 447.328 463.724 448.777C468.762 449.737 475.246 448.952 480.056 449.876C494.379 452.627 508.272 454.681 522.825 455.722C527.695 456.071 533.741 459.279 538.756 459.703C546.919 460.23 560.696 458.288 568.514 459.711C576.296 461.128 584.198 464.189 592.913 465.65C619.111 470.04 644.608 472.093 671.031 474.399C680.288 475.207 689.883 478.357 700.301 479.322L701.468 480.005C699.179 486.258 697.273 491.107 694.511 497.151L693.394 497.041C688.415 502.839 677.373 500.777 670.898 502.038C666.422 502.91 661.353 505.846 656.791 506.911C641.43 510.5 632.58 502.48 619.854 496.247C615.147 494.045 608.726 494.256 603.731 492.974C594.21 490.529 588.369 482.484 580.557 476.953L579.943 476.522C570.42 476.166 564.005 479.176 555.267 478.248C552.183 477.92 545.803 473.612 541.331 472.852L540.953 472.79C536.034 471.941 531.7 475.394 527.794 474.27C524.488 472.79 522.57 466.164 518.035 466.742C509.201 467.869 499.734 468.486 490.854 469.341C485.017 470.047 471.614 474.175 466.392 472.034C452.087 466.169 452.031 463.242 436.031 469.958C433.12 469.343 427.956 467.406 424.89 466.339C416.501 463.421 410.979 463.988 402.339 464.286C391.988 457.041 385.044 456.441 373.988 451.251C370.31 449.524 366.696 442.948 362.015 441.216C356.866 439.311 352.182 439.181 346.817 438.33C337.348 436.561 328.902 428.787 321.474 422.938Z"/><path fill="#24160D" d="M376.563 435.583C397.022 445.106 420.351 440.423 441.543 442.592C449.241 443.651 456.122 447.328 463.724 448.777C468.762 449.737 475.246 448.952 480.056 449.876C494.379 452.627 508.272 454.681 522.825 455.722C527.695 456.071 533.741 459.279 538.756 459.703C546.919 460.23 560.696 458.288 568.514 459.711C576.296 461.128 584.198 464.189 592.913 465.65C619.111 470.04 644.608 472.093 671.031 474.399C680.288 475.207 689.883 478.357 700.301 479.322L701.468 480.005C699.179 486.258 697.273 491.107 694.511 497.151L693.394 497.041C695.539 491.516 697.749 486.017 700.024 480.545C689.819 479.711 679.876 476.783 670.033 475.904C644.42 473.616 619.629 471.444 594.238 467.194C584.331 465.535 576.66 463.228 567.273 461.248C560.489 459.817 546.118 461.563 538.946 461.133C533.595 460.734 527.616 457.612 522.403 457.168C508.566 455.989 495.237 454.2 481.576 451.677C477.066 450.621 467.473 451.361 463.511 450.091C447.657 445.009 435.956 442.363 419.021 443.627C404.393 444.719 390.365 441.925 376.363 436.872L376.563 435.583Z"/><path fill="#D9D0B8" d="M376.563 435.583L377.301 434.714C386.537 434.669 392.894 431.988 400.53 431.73C408.021 431.477 414.309 434.386 424.151 433.787C436.222 433.052 451.779 428.931 463.025 430.034C468.294 430.55 478.847 439.92 485.163 442.243C491.645 445.077 499.374 443.219 505.999 444.756C514.052 446.624 520.588 451.946 529.13 452.412C552.245 453.675 575.366 446.476 598.683 449.869C608.691 451.325 619.309 450.835 629.201 453.698C636.145 455.476 642.682 458.628 649.67 460.068C659.909 461.782 668.744 455.719 679.079 456.205C690.431 456.738 694.145 461.426 705.7 462.554C704.092 467.511 701.591 474.453 700.301 479.322C689.883 478.357 680.288 475.207 671.031 474.399C644.608 472.093 619.111 470.04 592.913 465.65C584.198 464.189 576.296 461.128 568.514 459.711C560.696 458.288 546.919 460.23 538.756 459.703C533.741 459.279 527.695 456.071 522.825 455.722C508.272 454.681 494.379 452.627 480.056 449.876C475.246 448.952 468.762 449.737 463.724 448.777C456.122 447.328 449.241 443.651 441.543 442.592C420.351 440.423 397.022 445.106 376.563 435.583Z"/><path fill="#38BDF8" d="M127.221 370.258C127.325 372.851 126.884 374.442 128.618 376.25C128.563 380.709 128.446 385.282 128.551 389.731C141.506 395.176 143.539 398.348 153.957 407.19C156.317 409.193 168.26 414.928 171.542 416.547C181.07 421.25 189.184 416.5 197.807 417.901C200.499 418.338 208.081 426.082 211.381 427.291C223.13 431.594 233.054 431.214 244.943 436.32C255.379 440.802 264.831 450.367 273.154 454.618C281.074 458.664 287.576 455.998 298.158 463.366L297.303 464.125C304.377 470.24 308.266 474.232 316.273 480.563C313.313 480.982 306.024 482.074 303.333 481.58C296.542 480.335 289.785 476.174 283.153 474.013C280.796 473.245 274.482 470.801 272.962 469.37C267.247 463.991 265.255 458.208 257.608 454.715C248.334 450.478 237.676 452.413 228.997 446.633C223.293 442.94 220.777 436.044 213.298 433.399C206.019 430.825 198.107 435.875 191.408 434.604C182.392 432.894 171.883 426.089 163.651 423.147C151.205 418.699 140.971 417.976 129.358 410.349L128.077 411.586C126.302 398.223 127.152 384.381 126.589 370.962L127.221 370.258Z"/><path fill="#191D20" d="M127.221 370.258C127.325 372.851 126.884 374.442 128.618 376.25C128.563 380.709 128.446 385.282 128.551 389.731C141.506 395.176 143.539 398.348 153.957 407.19C156.317 409.193 168.26 414.928 171.542 416.547C181.07 421.25 189.184 416.5 197.807 417.901C200.499 418.338 208.081 426.082 211.381 427.291C223.13 431.594 233.054 431.214 244.943 436.32C255.379 440.802 264.831 450.367 273.154 454.618C281.074 458.664 287.576 455.998 298.158 463.366L297.303 464.125C286.475 457.892 278.597 459.487 271.755 455.43C262.095 449.702 251.564 439.646 239.868 435.622C230.456 432.384 220.614 432.166 211.199 428.536C207.209 426.998 199.813 419.602 197.448 419.246C189.026 417.977 181.921 422.761 172.052 418.144C167.825 416.166 156.01 410.738 152.864 408.108C143.006 399.867 140.957 396.337 128.599 391.117C128.484 397.576 128.957 403.909 129.358 410.349L128.077 411.586C126.302 398.223 127.152 384.381 126.589 370.962L127.221 370.258Z"/><path fill="#F0843F" d="M457.298 419.339C472.056 419.644 486.819 419.252 501.539 418.166C512.434 417.385 522.921 415.662 533.955 415.935C538.568 415.459 542.634 413.454 547.282 412.952C558.065 411.788 577.716 417.601 587.496 415.8C608.121 412.003 623.121 411.237 644.078 414.433C652.584 415.73 665.247 414.525 674.048 415.642C688.271 416.672 700.007 417.11 714.308 416.724C713.897 420.924 713.344 425.607 713.089 429.772L676.166 422.372C670.806 421.299 659.535 418.741 654.448 418.357C635.309 417.037 616 418.09 596.856 418.993C590.724 419.283 583.077 418.342 577.268 419.031C562.385 420.794 547.25 419.338 532.591 420.128C511.366 421.273 489.526 425.338 468.245 425.536C463.55 422.729 461.521 421.703 456.129 420.81C448.248 420.623 441.445 422.471 433.718 423.184C424.917 423.996 412.805 423.586 404.306 425.671C390.527 429.053 386.827 432.14 372.364 432.798C372.674 433.761 372.7 433.541 373.479 434.143L373.362 434.138C373.617 433.948 370.206 435.033 370.019 435.102C365.643 434.461 361.148 432.925 356.987 431.55L356.447 431.376L358.425 430.387C369.744 428.325 380.939 425.55 392.119 423.508C401.525 421.79 411.813 422.744 421.967 420.504C432.226 418.242 446.686 419.203 457.298 419.339Z"/><path fill="#24160D" d="M356.447 431.376L358.425 430.387C362.028 432.113 368.336 432.646 372.364 432.798C372.674 433.761 372.7 433.541 373.479 434.143L373.362 434.138C373.617 433.948 370.206 435.033 370.019 435.102C365.643 434.461 361.148 432.925 356.987 431.55L356.447 431.376Z"/><path fill="#38BDF8" d="M571.462 556.563C573.216 555.423 574.995 554.323 576.8 553.264C580.875 550.918 583.54 551.006 587.879 552.165C601.595 560.778 614.46 564.656 628.821 571.874C632.918 573.932 637.752 575.31 641.948 577.191L636.433 583.562L635.832 583.619C628.6 584.341 613.556 588.489 608.765 583.121C601.815 575.334 597.131 569.8 585.318 569.87C582.336 569.888 579.058 571.282 576.134 571.969C567.011 573.412 556.674 561.434 551.032 555.646L552.81 553.793C558.949 556.747 564.896 556.687 571.462 556.563Z"/><path fill="#1D7BB3" d="M406.368 677.23C404.754 677.39 393.631 676.541 393.168 675.214C393.707 674.651 413.973 675.704 416.395 676.012C413.091 676.347 408.691 675.947 406.368 677.23Z"/><path fill="#0899E2" d="M551.032 555.646C550.311 555.019 548.646 553.818 548.368 553.005C548.433 552.66 548.521 552.677 548.848 552.328C550.845 552.804 550.953 552.919 552.81 553.793L551.032 555.646Z"/><path fill="#F0843F" d="M612.725 385.546C624.642 384.38 642.672 388.44 654.92 389.098C665.221 389.652 674.573 387.451 684.549 387.209C695.258 386.949 705.085 388.001 716.034 387.144L715.922 398.547C708.607 398.429 702.271 398.562 694.989 399.353C676.347 401.377 668.111 406.957 650.393 398.494C641.466 399.678 632.885 402.638 623.825 403.011C614.782 403.383 605.53 401.795 596.531 402.32C591.714 402.602 584.243 405.985 579.3 405.718C569.569 405.193 560.304 403.779 550.459 403.181C544.053 402.493 538.273 404.921 532.068 405.504C529.857 405.711 526.272 405.325 523.916 405.136C517.413 404.614 511.088 404.258 504.552 404.283C494.025 404.322 484.025 407.844 473.511 407.681C466.73 407.575 460.116 405.36 453.346 405.22C446.313 405.186 438.667 408.509 431.729 409.569C428.959 409.992 423.46 409.663 420.492 409.534C400.804 408.764 379.246 410.705 359.287 409.644C351.881 409.25 346.784 413.63 336.981 411.723C327.902 409.957 315.786 409.152 306.495 408.467C314.577 407.331 322.668 406.205 330.734 404.962C335.759 404.187 343.864 401.633 348.598 401.246C362.995 400.069 376.911 397.632 391.3 396.31C397.173 395.77 403.532 394.222 409.426 393.675C416.847 392.985 424.646 393.019 432.049 392.411C437.558 391.958 443.256 389.4 449.154 389.363C459.794 389.296 470.483 390.22 481.145 390.57C491.445 390.908 502.354 388.882 512.305 388.958C522.397 389.034 531.941 390.502 542.378 390.506C552.2 390.796 561.634 388.058 571.332 387.312C573.909 387.371 576.781 387.296 579.326 387.523C591.054 388.568 601.171 387.429 612.725 385.546Z"/><path fill="#242629" d="M484.907 393.479C529.151 391.224 573.508 393.209 617.373 399.406C613.533 399.856 608.657 400.144 604.794 400.045C579.111 399.381 552.785 401.298 527.221 400.481C520.103 400.484 510.624 401.414 503.795 400.794C468.505 397.591 429.604 405.535 394.998 398.538C415.042 394.184 425.82 396.386 446.1 395.708C458.4 395.297 472.321 394.094 484.907 393.479Z"/><path fill="#F0843F" d="M510.965 431.168C511.857 428.708 517.961 430.135 521.414 429.867C553.946 431.036 583.812 429.59 616.291 431.254L617.66 432.774C610.678 433.625 603.24 435.452 596.384 435.767C568.46 437.05 538.742 434.141 510.965 431.168Z"/><path fill="#D7CDB5" fill-opacity="0.86666667" d="M263.983 401.143C271.027 400.598 285.567 401.613 292.758 402.961C291.237 403.069 288.73 403.07 287.421 403.308C288.05 403.809 294.074 404.726 294.886 405.752L294.89 405.882C294.69 406.068 294.517 405.982 294.18 405.971C292.609 406.3 284.593 408.817 284.078 408.634C280.213 407.253 262.149 407.394 260.522 405.313C260.562 402.321 259.664 403.2 256.682 402.752L256.701 402.427C260.275 402.397 261.037 402.87 263.983 401.143Z"/><path fill="#D9D0B8" fill-opacity="0.95686275" d="M244.352 403.832L244.586 403.551C245.655 403.636 246.034 403.613 247.099 403.547C252.47 403.791 255.253 404.015 260.522 405.313C262.149 407.394 280.213 407.253 284.078 408.634C284.593 408.817 292.609 406.3 294.18 405.971C291.363 407.581 279.106 411.63 278.775 411.975L279.023 412.527C277.86 413.298 274.187 414.547 272.666 415.107C266.206 412.655 263.995 409.61 258.071 406.659C254.264 404.762 248.314 406.58 244.352 403.832Z"/><path fill="#D7CDB5" d="M292.758 402.961L321.182 404.817C304.967 407.631 295.589 408.392 279.023 412.527L278.775 411.975C279.106 411.63 291.363 407.581 294.18 405.971C294.517 405.982 294.69 406.068 294.89 405.882L294.886 405.752C294.074 404.726 288.05 403.809 287.421 403.308C288.73 403.07 291.237 403.069 292.758 402.961Z"/><path fill="#C5682F" d="M493.401 428.707C500.131 428.958 515.584 428.81 521.414 429.867C517.961 430.135 511.857 428.708 510.965 431.168C506.922 431.596 498.822 429.64 492.866 429.976L493.401 428.707Z"/><path fill="#D7CDB5" d="M244.352 403.832C243.363 403.503 240.132 402.691 240.119 401.459C240.65 400.938 261.687 401.081 263.983 401.143C261.037 402.87 260.275 402.397 256.701 402.427C252.905 402.285 247.959 401.996 244.586 403.551L244.352 403.832Z"/><path fill="#DCD5BC" fill-opacity="0.34509805" d="M256.682 402.752C259.664 403.2 260.562 402.321 260.522 405.313C255.253 404.015 252.47 403.791 247.099 403.547C251.091 402.834 252.688 402.94 256.682 402.752Z"/><path fill="#614332" d="M492.866 429.976C490.633 429.919 488.311 429.391 486.277 429.431L485.843 428.694L485.537 429.357L484.998 428.839L484.827 429.046L484.692 428.858C484.705 428.765 484.719 428.673 484.732 428.58C485.512 428.009 492.023 428.608 493.401 428.707L492.866 429.976Z"/><path fill="#E3D7B9" fill-opacity="0.70588237" d="M244.586 403.551C247.959 401.996 252.905 402.285 256.701 402.427L256.682 402.752C252.688 402.94 251.091 402.834 247.099 403.547C246.034 403.613 245.655 403.636 244.586 403.551Z"/><path fill="#C5682F" d="M616.291 431.254C618.047 431.263 619.89 431.293 621.605 431.7L622.014 432.23L622.325 432.061L622.427 432.174C622.242 432.368 621.762 432.445 621.429 432.544L621.685 432.462C620.35 432.62 619.001 432.685 617.66 432.774L616.291 431.254Z"/><path fill="#38BDF8" d="M410.656 92.153C422.112 91.594 438.113 92.6892 449.414 93.946C504.219 99.9607 556.41 120.562 600.553 153.603C648.184 188.722 686.837 243.839 703.921 300.269C709.092 317.351 712.208 334.041 714.871 351.615C698.819 349.914 685.235 356.509 669.562 357.227C661.348 357.604 651.656 357.844 643.38 358.017C640.477 358.078 632.842 355.545 629.121 355.565C625.914 355.154 614.826 358.052 612.492 357.258C600.19 353.067 593.658 353.592 581.085 356.02C578.941 356.434 572.722 354.045 570.323 354.142C561.095 354.513 551.804 354.215 542.591 354.642C535.958 355.233 528.394 360.695 520.901 360.207C515.964 359.885 513.628 358.088 509.126 356.462C501.603 353.363 491.838 359.687 484.84 359.064C464.165 357.222 455.983 350.893 435.199 360.99C420.2 368.492 407.614 365.396 391.814 362.757C387.769 362.081 381.864 360.337 378.32 358.309C365.458 350.946 352.607 357.821 339.472 359.716C333.963 360.511 328.302 358.128 322.807 357.938C319.497 357.685 313.982 359.385 310.901 358.9C295.362 356.451 280.759 349.72 264.704 349.228C252.267 348.846 239.902 351.442 227.662 353.352C223.18 354.052 218.802 357.032 214.017 356.711C203.294 356.844 194.521 354.701 184.165 353.291C179.314 352.842 170.664 355.552 166.204 354.434C153.229 351.182 143.302 349.497 129.938 349.127C131.586 338.957 132.547 331.04 134.882 320.734C145.692 271.71 168.98 226.311 202.489 188.936C259.365 126.166 326.489 96.308 410.656 92.153Z"/><path fill="#242629" d="M538.458 212.582C552.582 203.94 557.678 198.904 568.903 187.298L570.413 188.389C561.511 201.864 552.784 207.544 539.857 216.323C556.151 209.958 567.868 201.523 581.538 190.763C575.001 201.815 563.604 209.937 552.156 215.396L553.296 216.838C564.042 212.177 572.173 208.728 582.538 202.968C573.874 212.828 566.936 215.746 555.095 220.947L558.861 221.356C561.341 220.666 565.137 220.011 567.75 219.475C568.597 220.195 568.974 220.652 569.706 221.473C562.026 225.312 554.203 227.74 546.312 231.492C536.354 236.225 529.253 244.828 520.243 250.199C508.206 257.374 495.412 260.796 483.676 269.32C479.176 272.588 463.802 275.289 457.219 278.789C468.039 282.425 486.447 282.347 498.246 282.125C495.243 286.156 494.848 286.771 490.537 289.22C491.559 290.226 492.125 290.307 493.461 290.774C492.001 295.042 484.101 294.92 482.535 297.478L484.027 299.557C481.233 303.383 474.375 302.326 474.144 303.882C472.931 312.059 465.945 306.865 462.356 309.061C461.808 310.964 461.652 311.714 460.69 313.5C456.354 314.364 456.568 311.432 453.095 312.667L451.709 314.771C448.323 315.201 447.114 313.694 444.233 311.464L443.937 311.234C441.417 312.893 444.645 312.653 440.949 314.06C436.331 311.922 436.913 301.251 437.043 296.871C434.085 296.537 430.627 296.232 427.767 295.484C420.555 293.598 403.708 285.67 399.836 295.698L398.826 295.62C395.958 291.943 397.936 286.974 399.022 282.746C403.144 280.205 407.292 277.708 411.466 275.256C403.352 271.175 395.446 267.05 387.466 262.677C385.482 261.59 376.814 262.423 374.625 261.428C367.078 257.998 345.607 249.532 339.912 245.011C341.099 244.12 341.633 243.75 342.914 243.017C336.244 235.47 332.966 236.039 325.034 224.9C328.16 227.234 330.933 229.406 334.356 231.32L335.938 229.92C331.559 226.167 328.707 222.602 326.93 217.161C328.347 217.766 329.363 218.151 330.689 218.937C333.404 222.918 340.85 227.693 344.905 230.411C337.072 221.282 336.466 221.401 331.635 210.394C331.845 208.24 331.845 208.373 333.095 206.551C335.56 211.264 337.997 216.184 341.618 220.138L343.531 220.149C340.554 214.981 336.682 201.498 339.343 195.869C341.204 198.531 343.353 210.978 348.09 218.955C347.483 208.673 347.128 205.356 349.219 195.51C351.182 208.883 351.657 212.816 358.914 224.61C358.926 217.902 359.389 214.886 360.591 208.403C363.835 224.592 370.208 232.87 385.677 239.799C387.271 239.621 387.667 239.251 388.906 238.251C400.212 247.148 419.611 259.759 431.962 267.843C439.131 264.079 451.916 254.633 458.106 248.925C471.058 236.979 479.171 235.164 495.494 229.132C519.57 220.235 539.377 208.638 555.093 187.86L557.022 189.392C552.043 198.914 546.65 204.909 537.808 211.107L538.458 212.582Z"/><path fill="#1D7BB3" d="M335.938 229.92C337.075 230.48 339.888 232.061 340.038 233.408C339.16 234.114 335.643 231.851 334.356 231.32L335.938 229.92Z"/><path fill="#1D7BB3" d="M530.967 216.715C533.507 214.454 535.016 213.057 537.808 211.107L538.458 212.582C537.135 213.81 532.725 215.858 530.967 216.715Z"/><path fill="#184B69" d="M558.861 221.356C557.486 221.702 552.186 223.394 551.396 222.867C551.585 221.702 554.138 221.124 555.095 220.947L558.861 221.356Z"/><path fill="#1D7BB3" d="M553.296 216.838C552.461 217.128 549.119 218.745 548.524 217.569C548.835 216.639 551.233 215.823 552.156 215.396L553.296 216.838Z"/><path fill="#1D7BB3" d="M343.531 220.149C344.267 220.857 344.945 221.627 345.449 222.523L345.381 222.445L345.602 223.004C345.076 224.38 342.996 221.754 342.602 221.29C342.278 220.902 341.95 220.518 341.618 220.138L343.531 220.149Z"/><path fill="#071A27" d="M332.231 238.172C334.879 239.749 338.528 242.403 341.392 242.805L342.914 243.017C341.633 243.75 341.099 244.12 339.912 245.011C337.054 242.666 334.91 240.699 332.231 238.172Z"/><path fill="#071A27" d="M330.062 200.46C331.164 202.462 332.492 204.37 333.095 206.551C331.845 208.373 331.845 208.24 331.635 210.394C330.928 206.497 330.578 204.463 330.062 200.46Z"/><path fill="#071A27" d="M567.75 219.475C570.072 218.714 573.201 218.012 575.637 217.454L569.706 221.473C568.974 220.652 568.597 220.195 567.75 219.475Z"/><path fill="#071A27" d="M326.93 217.161C326.2 215.066 325.541 213.349 324.937 211.167C326.987 213.797 328.836 216.144 330.689 218.937C329.363 218.151 328.347 217.766 326.93 217.161Z"/><path fill="#071A27" d="M555.093 187.86C555.647 186.818 556.819 184.648 558.001 184.28C558.993 184.495 557.277 188.683 557.022 189.392L555.093 187.86Z"/><path fill="#071A27" d="M568.903 187.298C569.535 186.569 571.044 184.481 571.854 184.308C572.792 184.804 570.756 187.793 570.413 188.389L568.903 187.298Z"/><defs><linearGradient id="gradient_0" gradientUnits="userSpaceOnUse" x1="212.34813" y1="361.75394" x2="110.59171" y2="331.25323"><stop offset="0" stop-color="#D9D2BA" stop-opacity="0.83529413"/><stop offset="1" stop-color="#DAD0B7"/></linearGradient></defs><path fill="url(#gradient_0)" d="M199.759 167.525C202.223 174.542 205.689 165.844 209.662 167.145C211.068 167.605 212.811 167.768 214.35 168.191L213.598 168.66L217.446 168.78C216.462 171.558 188.03 198.154 185.742 205.126C185.074 207.165 178.361 213.975 177.252 217.019L178.185 217.307C153.137 256.382 137.644 291.37 130.261 337.757C128.736 347.339 127.023 360.288 127.245 369.777L127.221 370.258L126.589 370.962C123.227 375.987 128.261 432.978 131.076 441.945C131.849 444.407 134.581 453.761 134.123 455.283L132.656 455.021C133.481 463.6 143.522 487.274 147.619 495.683L149.321 496.648C152.018 501.339 154.922 508.365 157.399 513.433C161.76 522.305 166.596 530.936 171.884 539.289C170.932 538.946 169.978 538.611 169.02 538.285C166.325 535.141 165.908 528.526 160.686 531.005C159.47 532.195 159.839 532.687 160.152 533.701C160.537 534.95 160.485 538.815 158.556 538.644C154.551 538.29 155.42 537.18 152.412 538.577C151.754 538.304 151.677 537.327 151.051 537.073C150.772 537.641 151.404 540.511 151.479 541.619C125.565 501.874 110.571 449.786 107.86 402.684C103.396 332.903 123.548 263.767 164.805 207.319C175.613 192.543 183.714 184.431 195.554 171.177C195.986 174.581 195.625 174.217 199.457 174.495C199.586 172.448 200.101 170.284 197.219 170.844L195.554 171.177L199.759 167.525ZM155.013 518.741L155.15 519.202C157.035 525.713 156.822 521.631 158.453 523.348C156.548 524.211 155.442 525.244 158.202 526.567C158.757 526.833 159.698 529.436 160.151 530.274C163.197 522.022 159.357 522.836 155.013 518.741ZM155.506 241.386C155.987 240.99 156.544 240.77 156.283 240.122C155.692 239.842 155.256 240.163 154.719 240.428C154.34 240.765 153.885 241.003 153.967 241.541C154.465 242.033 154.986 241.673 155.506 241.386ZM166.565 223.413C166.542 222.953 166.581 223.113 166.487 222.876C166.17 222.779 165.858 222.911 165.466 223.016C165.158 223.293 164.943 223.409 164.919 223.619C165.44 223.707 166.034 223.498 166.565 223.413ZM177.11 208.256C176.496 207.724 176.924 207.728 176.063 207.961C176.258 208.316 176.218 208.376 176.494 208.481C176.807 208.412 176.612 208.472 177.11 208.256Z"/><path fill="#D9D0B8" fill-opacity="0.69411767" d="M155.013 518.741C159.357 522.836 163.197 522.022 160.151 530.274C159.698 529.436 158.757 526.833 158.202 526.567C155.442 525.244 156.548 524.211 158.453 523.348C156.822 521.631 157.035 525.713 155.15 519.202L155.013 518.741Z"/><path fill="#D7CDB5" fill-opacity="0.94117647" d="M154.719 240.428C155.256 240.163 155.692 239.842 156.283 240.122C156.544 240.77 155.987 240.99 155.506 241.386C154.986 241.673 154.465 242.033 153.967 241.541C153.885 241.003 154.34 240.765 154.719 240.428Z"/><path fill="#D9D0B8" fill-opacity="0.87058824" d="M165.466 223.016C165.858 222.911 166.17 222.779 166.487 222.876C166.581 223.113 166.542 222.953 166.565 223.413C166.034 223.498 165.44 223.707 164.919 223.619C164.943 223.409 165.158 223.293 165.466 223.016Z"/><path fill="#D9D0B8" fill-opacity="0.87058824" d="M176.063 207.961C176.924 207.728 176.496 207.724 177.11 208.256C176.612 208.472 176.807 208.412 176.494 208.481C176.218 208.376 176.258 208.316 176.063 207.961Z"/><defs><linearGradient id="gradient_1" gradientUnits="userSpaceOnUse" x1="337.48163" y1="104.00315" x2="330.51141" y2="89.145805"><stop offset="0" stop-color="#D5D0B6" stop-opacity="0.75686276"/><stop offset="1" stop-color="#D7CCB6" stop-opacity="0.90980393"/></linearGradient></defs><path fill="url(#gradient_1)" d="M336.629 89.4401C353.718 85.0059 371.111 81.8346 388.666 79.952C388.65 79.9678 387.594 81.0235 387.673 80.9905C377.007 85.4789 383.251 86.5687 394.151 84.7321C413.266 80.5623 441.09 83.6588 459.375 81.7628L459.725 80.9904L462.148 81.161L460.664 82.7475C413.86 81.9611 369.224 87.7473 325.173 104.334C311.697 109.409 302.236 114.294 289.495 120.145L289.065 119.246C290.755 117.542 293.378 116.402 295.551 115.279C294.508 115.155 293.455 115.305 292.401 115.395L294.162 113.702C296.158 112.838 302.58 110.266 303.741 109.55L303.858 108.882L304.586 108.885L304.604 108.846L304.055 109.236L304.609 108.714L304.611 108.622C303.617 108.04 296.896 111.098 302.018 104.548C303.102 104.383 303.241 104.176 304.225 103.641C305.064 101.757 304.922 102.569 304.404 100.33L312.617 97.1889C313.809 101.181 318.79 99.0383 319.56 98.2179C322.57 95.0143 325.947 96.3918 327.122 95.4432C326.956 94.5221 324.042 95.8334 323.661 94.8853C325.023 93.8506 324.542 94.5804 326.239 92.7548C327.552 92.2645 329.242 91.8203 330.615 91.4146C333.148 93.4636 337.537 94.1596 336.629 89.4401Z"/><path fill="#D9D0B8" fill-opacity="0.71764708" d="M288.122 107.129C293.764 104.539 298.603 102.557 304.404 100.33C304.922 102.569 305.064 101.757 304.225 103.641C303.241 104.176 303.102 104.383 302.018 104.548C300.969 104.893 287.529 113.206 287.71 112.888C287.851 113.476 293.161 113.606 294.162 113.702L292.401 115.395C293.455 115.305 294.508 115.155 295.551 115.279C293.378 116.402 290.755 117.542 289.065 119.246C287.423 119.834 285.583 120.546 283.942 121.062C285.574 119.717 287.681 118.879 288.239 117.153C287.359 112.573 267.678 125.667 265.733 128.836C266.473 129.568 270.207 128.505 271.178 128.28C269.838 129.073 266.403 131.233 265.141 131.621C257.259 134.624 239.062 138.89 234.359 143.499C233.013 142.572 232.331 141.82 231.166 140.685L236.567 136.785C240.531 140.984 240.346 137.674 245.631 135.873L246.065 135.729C248.167 133.861 257.512 127.273 259.838 126.507C261.894 125.423 263.77 123.899 265.777 123.371C269.443 121.191 272.824 119.442 276.634 117.537L277.283 117.813C278.864 117.367 288.19 110.902 288.974 109.971C288.954 109.358 288.357 108.327 288.122 107.129Z"/><path fill="#D9D0B8" fill-opacity="0.83137256" d="M234.359 143.499C239.062 138.89 257.259 134.624 265.141 131.621C261.568 134.25 258.163 135.703 254.71 138.106C247.401 143.193 240.863 148.452 232.804 152.398C231.003 153.28 230.587 157.725 226.886 159.081C231.121 151.804 222.485 159.317 222.715 154.459C222.743 153.857 225.904 153.536 226.189 153.254C226.182 153.193 226.174 153.132 226.167 153.071C224.992 152.059 220.895 153.232 220.615 155.234C220.403 156.743 215.915 156.208 216.148 159.182C216.201 159.418 215.535 160.761 215.196 160.73C212.137 160.449 209.947 165.129 209.716 165.094C203.961 164.227 204.582 171.411 200.432 166.906C201.676 165.53 203.76 163.613 205.141 162.258C207.944 168.082 209.105 161.051 213.726 160.085C215.624 157.643 215.441 156.737 212.732 155.329C215.521 152.989 218.634 150.211 221.671 148.284C221.325 149.144 221.659 150.129 222.457 150.601C223.255 151.073 224.278 150.892 224.865 150.174C225.453 149.457 225.429 148.418 224.809 147.729C224.188 147.039 223.158 146.906 222.383 147.415C223.508 146.422 224.921 145.386 226.123 144.452C228.486 150.677 229.77 145.706 233.936 143.699L234.359 143.499Z"/><path fill="#D9D0B8" d="M283.942 121.062C285.583 120.546 287.423 119.834 289.065 119.246L289.495 120.145C252.242 140.253 225.933 159.892 197.817 191.865C191.986 198.496 182.533 212.694 178.185 217.307L177.252 217.019C178.361 213.975 185.074 207.165 185.742 205.126C188.03 198.154 216.462 171.558 217.446 168.78L213.598 168.66L214.35 168.191C223.106 166.352 216.787 161.949 226.886 159.081C230.587 157.725 231.003 153.28 232.804 152.398C240.863 148.452 247.401 143.193 254.71 138.106C258.163 135.703 261.568 134.25 265.141 131.621C266.403 131.233 269.838 129.073 271.178 128.28C273.311 127.045 283.074 122.144 283.942 121.062Z"/><path fill="#D9D0B8" fill-opacity="0.98823529" d="M149.321 496.648L147.619 495.683C143.522 487.274 133.481 463.6 132.656 455.021L134.123 455.283C134.581 453.761 131.849 444.407 131.076 441.945C128.261 432.978 123.227 375.987 126.589 370.962C127.152 384.381 126.302 398.223 128.077 411.586C130.476 441.787 138.43 468.618 149.321 496.648Z"/><path fill="#D9D0B8" fill-opacity="0.67058825" d="M151.479 541.619C151.404 540.511 150.772 537.641 151.051 537.073C151.677 537.327 151.754 538.304 152.412 538.577C155.42 537.18 154.551 538.29 158.556 538.644C160.485 538.815 160.537 534.95 160.152 533.701C159.839 532.687 159.47 532.195 160.686 531.005C165.908 528.526 166.325 535.141 169.02 538.285L168.673 538.452C165.68 539.877 161.37 539.64 160.106 544.565C158.713 549.989 158.866 547.14 156.952 550.181C155.421 548.142 152.716 543.878 151.479 541.619Z"/><path fill="#D9D0B8" fill-opacity="0.86274511" d="M200.432 166.906C204.582 171.411 203.961 164.227 209.716 165.094C209.947 165.129 212.137 160.449 215.196 160.73C215.535 160.761 216.201 159.418 216.148 159.182C215.915 156.208 220.403 156.743 220.615 155.234C220.895 153.232 224.992 152.059 226.167 153.071C226.174 153.132 226.182 153.193 226.189 153.254C225.904 153.536 222.743 153.857 222.715 154.459C222.485 159.317 231.121 151.804 226.886 159.081C216.787 161.949 223.106 166.352 214.35 168.191C212.811 167.768 211.068 167.605 209.662 167.145C205.689 165.844 202.223 174.542 199.759 167.525L200.432 166.906Z"/><path fill="#D9D0B8" fill-opacity="0.60000002" d="M169.02 538.285C169.978 538.611 170.932 538.946 171.884 539.289C172.831 540.427 175.361 544.618 176.194 546.028L175.21 546.003C169.819 546.924 168.727 550.688 163.396 549.434C162.22 549.157 158.987 551.135 158.258 552.001C157.65 551.279 157.455 551.013 156.952 550.181C158.866 547.14 158.713 549.989 160.106 544.565C161.37 539.64 165.68 539.877 168.673 538.452L169.02 538.285ZM170.097 544.388C173.399 541.46 172.314 540.687 168.862 539.206C166.702 542.767 165.483 543.267 170.097 544.388Z"/><path fill="#D9D0B8" fill-opacity="0.43137255" d="M168.862 539.206C172.314 540.687 173.399 541.46 170.097 544.388C165.483 543.267 166.702 542.767 168.862 539.206Z"/><path fill="#D7CDB5" fill-opacity="0.13725491" d="M186.642 560.967L186.892 561.402C183.48 564.744 186.279 565.187 187.129 567.799C187.406 568.652 185.785 571.303 187.763 573.027C188.076 573.483 188.097 573.675 188.065 574.189C188.063 574.19 181.717 569.88 185.523 577.084C185.468 577.113 185.412 577.142 185.356 577.171C184.073 576.67 182.727 574.298 180.165 575.699C179.759 575.921 176.867 575.314 175.846 575.292C174.22 573.949 171.693 570.461 170.385 568.639C170.674 568.443 177.268 568.702 177.499 568.82C187.403 573.896 178.843 562.543 186.642 560.967Z"/><path fill="#D9D0B8" fill-opacity="0.33725491" d="M168.409 560.948C173.303 559.121 173.299 558.51 177.123 555.441C178.126 554.636 178.495 554.154 179.697 554.547C177.06 559.554 181.241 557.944 183.832 556.809C184.517 557.89 185.054 558.558 185.852 559.535C185.003 559.897 184.562 560.089 183.751 560.563C183.318 560.879 182.888 561.201 182.461 561.526C181.241 562.447 177.816 564.646 176.49 563.898C170.042 560.26 172.479 563.321 167.013 564.493C166.286 563.487 165.684 562.524 165.026 561.478C166.666 560.172 166.471 562.842 168.409 560.948Z"/><path fill="#D9D0B8" fill-opacity="0.47058824" d="M271.178 128.28C270.207 128.505 266.473 129.568 265.733 128.836C267.678 125.667 287.359 112.573 288.239 117.153C287.681 118.879 285.574 119.717 283.942 121.062C283.074 122.144 273.311 127.045 271.178 128.28Z"/><path fill="#D9D0B8" fill-opacity="0.51372552" d="M158.258 552.001C158.987 551.135 162.22 549.157 163.396 549.434C168.727 550.688 169.819 546.924 175.21 546.003C174.142 547.615 173.39 548.079 172.329 549.963C170.987 552.313 172.996 554.185 170.693 555.721C169.57 556.47 167.469 553.349 166.024 554.14C163.245 556.812 164.694 555.552 161.622 556.745C160.388 555.582 159.14 553.467 158.258 552.001Z"/><path fill="#D9D0B8" fill-opacity="0.56862748" d="M242.198 132.958C247.53 128.99 253.771 125.255 259.534 121.929L259.346 122.308C258.156 124.368 257.924 124.808 259.838 126.507C257.512 127.273 248.167 133.861 246.065 135.729C243.135 134.67 243.466 135.618 242.198 132.958Z"/><path fill="#D9D0B8" fill-opacity="0.41176471" d="M176.194 546.028C177.26 547.366 181.37 553.61 182.208 555.071L179.697 554.547C178.495 554.154 178.126 554.636 177.123 555.441C173.299 558.51 173.303 559.121 168.409 560.948C171.448 555.923 175.133 558.076 172.329 549.963C173.39 548.079 174.142 547.615 175.21 546.003L176.194 546.028Z"/><path fill="#D7CDB5" fill-opacity="0.22745098" d="M263.407 119.79C267.653 117.767 271.485 115.179 276.159 113.008C278.873 114.596 277.984 115.15 276.634 117.537C272.824 119.442 269.443 121.191 265.777 123.371C263.639 122.208 264.077 122.19 263.407 119.79Z"/><path fill="#D9D0B8" fill-opacity="0.23921569" d="M185.852 559.535L186.642 560.967C178.843 562.543 187.403 573.896 177.499 568.82C177.268 568.702 170.674 568.443 170.385 568.639C169.404 567.679 169.01 567.032 168.238 565.937C172.496 564.549 175.014 565.554 179.726 565.938C182.01 563.547 182.053 563.49 183.751 560.563C184.562 560.089 185.003 559.897 185.852 559.535Z"/><path fill="#D9D0B8" fill-opacity="0.44313726" d="M172.329 549.963C175.133 558.076 171.448 555.923 168.409 560.948C166.471 562.842 166.666 560.172 165.026 561.478C163.77 560.381 162.502 558.213 161.622 556.745C164.694 555.552 163.245 556.812 166.024 554.14C167.469 553.349 169.57 556.47 170.693 555.721C172.996 554.185 170.987 552.313 172.329 549.963Z"/><path fill="#D9D0B8" fill-opacity="0.79607844" d="M294.162 113.702C293.161 113.606 287.851 113.476 287.71 112.888C287.529 113.206 300.969 104.893 302.018 104.548C296.896 111.098 303.617 108.04 304.611 108.622L304.609 108.714L304.055 109.236L304.604 108.846L304.586 108.885L303.858 108.882L303.741 109.55C302.58 110.266 296.158 112.838 294.162 113.702Z"/><path fill="#D9D0B8" fill-opacity="0.49803922" d="M388.666 79.952C393.457 79.1102 401.758 78.6806 406.601 78.8459C400.847 80.4785 398.014 80.2847 392.117 80.2451C391.09 80.2382 389.312 84.1021 389.28 84.4735C390.079 84.86 392.959 84.701 394.151 84.7321C383.251 86.5687 377.007 85.4789 387.673 80.9905C387.594 81.0235 388.65 79.9678 388.666 79.952Z"/><path fill="#D7CDB5" fill-opacity="0.80392158" d="M312.617 97.1889C317.395 95.4647 321.247 93.9407 326.239 92.7548C324.542 94.5804 325.023 93.8506 323.661 94.8853C324.042 95.8334 326.956 94.5221 327.122 95.4432C325.947 96.3918 322.57 95.0143 319.56 98.2179C318.79 99.0383 313.809 101.181 312.617 97.1889Z"/><path fill="#D9D0B8" fill-opacity="0.27843139" d="M167.013 564.493C172.479 563.321 170.042 560.26 176.49 563.898C177.816 564.646 181.241 562.447 182.461 561.526C182.888 561.201 183.318 560.879 183.751 560.563C182.053 563.49 182.01 563.547 179.726 565.938C175.014 565.554 172.496 564.549 168.238 565.937C167.716 565.388 167.467 565.102 167.013 564.493Z"/><path fill="#D7CDB5" fill-opacity="0.56470591" d="M288.122 107.129C288.357 108.327 288.954 109.358 288.974 109.971C288.19 110.902 278.864 117.367 277.283 117.813C278.951 115.77 286.723 111.544 281.091 110.404C283.45 109.102 285.745 108.301 288.122 107.129Z"/><path fill="#D7CDB5" fill-opacity="0.72941178" d="M231.166 140.685C232.331 141.82 233.013 142.572 234.359 143.499L233.936 143.699C229.77 145.706 228.486 150.677 226.123 144.452C227.836 143.099 229.398 141.953 231.166 140.685Z"/><path fill="#D9D0B8" fill-opacity="0.58039218" d="M236.567 136.785C238.051 135.632 240.548 133.723 242.198 132.958C243.466 135.618 243.135 134.67 246.065 135.729L245.631 135.873C240.346 137.674 240.531 140.984 236.567 136.785Z"/><path fill="#D9D0B8" fill-opacity="0.40000001" d="M259.534 121.929C260.932 121.114 261.897 120.433 263.407 119.79C264.077 122.19 263.639 122.208 265.777 123.371C263.77 123.899 261.894 125.423 259.838 126.507C257.924 124.808 258.156 124.368 259.346 122.308L259.534 121.929Z"/><path fill="#D9D0B8" fill-opacity="0.79215688" d="M210.073 157.78C211.469 158.776 212.228 159.235 213.726 160.085C209.105 161.051 207.944 168.082 205.141 162.258C206.805 160.787 208.449 159.294 210.073 157.78Z"/><path fill="#D9D0B8" fill-opacity="0.32549021" d="M281.091 110.404C286.723 111.544 278.951 115.77 277.283 117.813L276.634 117.537C277.984 115.15 278.873 114.596 276.159 113.008C277.3 112.185 279.744 111.052 281.091 110.404Z"/><path fill="#949496" d="M462.148 81.161C463.704 81.3111 473.186 81.9116 473.579 82.9211C473.014 83.8333 462.323 82.9002 460.664 82.7475L462.148 81.161Z"/><path fill="#D9D0B8" fill-opacity="0.81568629" d="M330.615 91.4146C332.602 90.706 334.608 90.0476 336.629 89.4401C337.537 94.1596 333.148 93.4636 330.615 91.4146Z"/><path fill="#D9D0B8" fill-opacity="0.24705882" d="M182.208 555.071C182.775 555.61 183.305 556.226 183.832 556.809C181.241 557.944 177.06 559.554 179.697 554.547L182.208 555.071Z"/><path fill="#D9D0B8" fill-opacity="0.7764706" d="M212.732 155.329C215.441 156.737 215.624 157.643 213.726 160.085C212.228 159.235 211.469 158.776 210.073 157.78L212.732 155.329Z"/><path fill="#D9D0B8" fill-opacity="0.72549021" d="M222.383 147.415C223.158 146.906 224.188 147.039 224.809 147.729C225.429 148.418 225.453 149.457 224.865 150.174C224.278 150.892 223.255 151.073 222.457 150.601C221.659 150.129 221.325 149.144 221.671 148.284C221.814 147.928 222.063 147.625 222.383 147.415Z"/><path fill="#D9D0B8" fill-opacity="0.89803922" d="M195.554 171.177L197.219 170.844C200.101 170.284 199.586 172.448 199.457 174.495C195.625 174.217 195.986 174.581 195.554 171.177Z"/><path fill="#071A27" d="M749.213 533.855L750.007 535.221C758.721 538.358 766.392 541.448 775.868 541.41C778.111 541.4 787.075 540.354 788.594 540.862C804.185 546.073 820.862 551.64 836.29 557.252C838.468 558.044 846.013 563.946 849.426 565.67C846.411 567.181 847.844 570.816 845.614 571.372C842.649 572.11 841.525 572.466 838.684 573.976C847.543 577.613 850.516 578.846 859.652 581.441C875.238 587.766 875.659 582.821 890.237 585.24C895.085 586.045 911.746 593.71 916.868 596.522C920.017 598.25 926.538 602.697 929.859 603.596C939.454 606.192 952.683 603.397 962.035 606.837C966.435 608.455 971.512 615.292 975.169 618.676C981.074 619.927 990.851 621.427 995.752 624.021C1005.72 629.295 1012.35 639.136 1023.77 642.892C1033.91 646.228 1044.79 645.142 1055.06 648.097C1065.67 651.147 1077.08 653.335 1087.24 657.609C1096.32 661.428 1105.35 667.929 1114.6 670.793C1125.66 674.219 1140.62 674.111 1151.34 677.499C1162.29 680.957 1171.6 692.635 1182.55 697.564C1192.21 701.915 1199.68 700.219 1209.12 702.56C1212.81 703.475 1219.31 706.297 1223.46 707.501C1227.29 708.614 1234.27 710.274 1237.56 711.537C1241.36 712.993 1245.36 717.346 1250.48 718.726L1250.95 718.853C1256.85 720.433 1266.2 719.45 1271.07 720.72C1278.29 722.608 1289.27 727.036 1296.37 729.895C1304.22 733.058 1315.41 736.854 1322.82 740.43C1308.81 739.416 1293.1 739.713 1278.91 739.719L1213.29 739.75L990.169 739.693L650.203 739.738L526.112 739.662C505.565 739.633 484.824 739.477 464.298 739.641C455.029 739.715 443.896 741.382 434.06 741.699C435.181 741.233 436.652 740.776 437.826 740.372C441.837 740.52 450.583 739.619 454.843 739.263C484.882 736.739 514.46 730.286 542.821 720.068C633.608 687.87 707.864 620.875 749.213 533.855ZM743.876 553.073C744.296 554.781 744.656 554.336 745.894 553.289C745.268 552.306 744.812 552.595 743.876 553.073ZM942.451 605.823C938.133 604.533 934.237 605.072 929.713 605.419C933.321 606.133 938.55 605.84 942.451 605.823ZM1302.83 736.258C1302.94 736.511 1303.11 737.13 1303.43 737.306C1303.65 737.428 1303.87 737.42 1304.1 737.337C1304.48 737.205 1304.82 736.92 1305.16 736.709C1304.91 736.351 1304.76 736.028 1304.3 735.952C1303.82 735.871 1303.28 736.12 1302.83 736.258ZM484.409 736.65C483.489 736.874 481.393 737.218 480.802 737.884L480.773 738.052C481.255 738.548 482.594 738.479 483.259 738.489C484.602 738.495 485.944 738.483 487.286 738.455C486.178 737.646 485.61 737.314 484.409 736.65Z"/><path fill="#D9D0B8" d="M750.007 535.221C758.721 538.358 766.392 541.448 775.868 541.41C778.111 541.4 787.075 540.354 788.594 540.862C804.185 546.073 820.862 551.64 836.29 557.252C838.468 558.044 846.013 563.946 849.426 565.67C846.411 567.181 847.844 570.816 845.614 571.372C842.649 572.11 841.525 572.466 838.684 573.976C823.791 567.465 818.244 572.391 803.879 569.829C803.321 569.729 797.022 564.693 795.228 563.63L794.569 563.243C787.874 562.978 779.347 563.909 772.817 562.528C766.796 561.254 759.702 557.287 753.722 556.482L753.213 556.416C748.851 555.824 743.694 556.429 739.255 556.785C742.426 550.901 747.776 541.302 750.007 535.221ZM745.894 553.289C745.268 552.306 744.812 552.595 743.876 553.073C744.296 554.781 744.656 554.336 745.894 553.289Z"/><path fill="#D9D0B8" fill-opacity="0.86274511" d="M743.876 553.073C744.812 552.595 745.268 552.306 745.894 553.289C744.656 554.336 744.296 554.781 743.876 553.073Z"/><path fill="#38BDF8" d="M692.562 621.622C698.788 622.945 707.592 625.206 713.923 624.809C722.656 624.263 736.245 617.99 744.75 619.653C747.943 620.278 753.865 625.418 757.041 626.746C763.137 629.295 772.296 628.456 777.244 633.003C779.699 635.258 783.31 640.721 786.479 641.186C797.345 642.778 803.248 636.481 815.015 643.026C822.966 647.449 825.247 654.222 832.405 659.611C837.705 663.601 846.203 662.976 851.383 665.827C857.746 669.327 861.047 675.775 868.609 678.564C883.124 683.916 893.662 675.553 908.588 680.511C917.82 683.578 920.699 694.959 926.805 696.216C934.875 697.878 944.205 693.959 953.675 695.903C962.109 697.072 969.907 706.785 978.434 706.6C991.201 706.321 1000.82 702.357 1013.97 703.536C1028.64 704.851 1036.54 712.145 1049.91 716.075C1056.52 718.017 1064.27 718.942 1070.98 720.805C1075.92 721.882 1081.48 723.793 1086.43 724.256C1093.93 724.957 1107.34 722.985 1114.35 724.876C1126.54 728.166 1140.01 734.099 1152.09 738.348L487.286 738.455C486.178 737.646 485.61 737.314 484.409 736.65C494.74 735.776 514.084 730.365 524.175 727.48C575.626 712.645 623.083 686.426 663.032 650.763C673.305 641.617 682.997 631.507 692.562 621.622Z"/><path fill="#D7CDB5" d="M706.377 605.218C722.639 605.135 730.095 608.194 745.195 609.256C756.684 609.148 768.092 606.058 779.607 607.497C782.958 608.03 786.781 609.239 789.924 610.533C799.583 614.508 809.753 613.838 820.004 614.514C836.641 615.611 854.162 607.597 870.636 610.063C885.117 612.231 896.491 628.461 910 633.206C914.669 634.438 943 623.995 952.993 627.001C967.859 631.473 974.508 643.888 987.007 651.09C997.53 657.153 1009.78 650.93 1020.49 654.061C1029.24 656.62 1034.56 666.129 1043.62 668.701C1059.23 673.128 1072.88 665.595 1088.87 669.206C1102.12 672.199 1107.79 685.188 1119.25 688.313C1130.8 691.463 1146.51 685.944 1158.51 688.211C1169.04 690.202 1176.67 697.365 1186.42 700.38C1193 702.415 1202.39 702.151 1209.09 703.942C1213.75 705.186 1218.66 707.356 1223.34 708.846C1227.19 710.069 1233.37 711.129 1236.78 712.487C1239.8 713.688 1244.71 718.3 1248.4 719.574C1255.04 721.869 1265.92 720.51 1272.09 722.494C1285.79 726.892 1300.48 733.11 1313.88 738.448L1303.48 738.433L1201.35 738.378C1188.66 738.384 1169.48 739.028 1157.32 738.137C1143.84 734.954 1130.56 728.815 1117.46 724.165C1107.35 720.578 1095.22 724.618 1087.41 723.121C1073.13 720.385 1057.09 716.312 1043.15 712.322C1035.36 710.094 1027.12 702.801 1017.58 702.631C1000.57 699.91 993.382 704.875 977.463 704.925C969.95 704.949 963.625 696.379 953.884 694.51C945.195 692.842 932.943 696.53 927.445 694.941C920.751 693.007 917.71 681.012 905.667 678.309C891.853 675.208 882.332 681.679 868.823 677.258C861.423 674.835 858.331 667.734 852.405 664.731C846.574 661.776 837.385 662.151 831.769 657.492C825.311 652.135 823.548 646.238 815.925 641.971C803.201 634.848 798.386 641.334 786.599 639.694C783.194 639.221 779.837 632.485 775.78 630.355C770.641 627.658 762.954 627.447 758.23 625.49C751.957 622.891 750.517 619.794 742.798 617.254C717.985 621.467 719.884 626.159 693.451 620.49C697.885 615.752 702.232 610.26 706.377 605.218ZM1305.16 736.709C1304.91 736.351 1304.76 736.028 1304.3 735.952C1303.82 735.871 1303.28 736.12 1302.83 736.258C1302.94 736.511 1303.11 737.13 1303.43 737.306C1303.65 737.428 1303.87 737.42 1304.1 737.337C1304.48 737.205 1304.82 736.92 1305.16 736.709Z"/><path fill="#DCD5BC" fill-opacity="0.56862748" d="M1302.83 736.258C1303.28 736.12 1303.82 735.871 1304.3 735.952C1304.76 736.028 1304.91 736.351 1305.16 736.709C1304.82 736.92 1304.48 737.205 1304.1 737.337C1303.87 737.42 1303.65 737.428 1303.43 737.306C1303.11 737.13 1302.94 736.511 1302.83 736.258Z"/><path fill="#38BDF8" d="M738.484 558.085C755.68 557.019 759.081 559.65 775.104 564.319C777.61 565.049 791.019 564.593 794.333 564.569C797.591 566.384 802.155 570.993 805.26 571.943C811.158 573.748 821.448 570.154 827.281 571.716C841.394 575.495 854.897 583.189 869.424 586.061C874.837 587.131 884.273 584.509 889.695 586.36C898.638 589.412 908.711 593.302 916.976 597.972C921.217 600.368 924.698 603.123 929.107 605.146L929.713 605.419C933.321 606.133 938.55 605.84 942.451 605.823C948.771 607.355 954.798 605.753 960.776 607.577C966.526 609.331 969.229 615.842 973.968 618.993C981.706 622.618 991.06 621.573 999.035 627.146C1007.19 632.845 1012.4 640.172 1022.06 643.666C1032.9 647.587 1044.26 646.252 1055.43 649.392C1067.2 652.697 1077.81 654.868 1089.04 659.933C1097.36 663.684 1108.04 670.242 1116.4 672.547C1134.9 677.646 1146.25 673.446 1162.78 685.135L1162.11 687.754C1147.96 684.006 1130.24 690.264 1117.97 686.547C1108.2 683.592 1102.16 669.508 1086.72 667.508C1071.36 665.518 1059.52 670.843 1045.04 667.741C1036.4 665.89 1029.83 655.222 1020.66 652.661C1009.57 649.565 998.846 656.019 988.27 650.126C976.617 643.634 968.085 630.62 954.713 626.143C948.178 623.955 933.712 626.815 926.645 628.379C923.046 629.176 914.427 632.646 911.079 631.708C898.139 628.082 885.505 611.237 871.516 608.853C863.558 607.497 850.836 609.027 842.794 610.864C827.381 614.386 811.5 613.445 795.973 611.092C791.2 610.368 785.132 606.473 778.152 605.91C767.499 604.331 754.438 608.842 744.153 607.831C731.135 606.55 720.991 604.064 707.547 603.955C720.274 586.917 727.541 576.378 738.484 558.085Z"/><path fill="#0899E2" d="M1162.78 685.135C1164.04 686.083 1165.42 687.073 1166.58 688.109L1166.19 687.774C1166.53 688.104 1166.99 688.376 1167.03 688.884C1166.52 689.539 1163.1 687.976 1162.11 687.754L1162.78 685.135Z"/><path fill="#184B69" fill-opacity="0.98823529" d="M929.713 605.419C934.237 605.072 938.133 604.533 942.451 605.823C938.55 605.84 933.321 606.133 929.713 605.419Z"/><path fill="#38BDF8" fill-opacity="0.98039216" d="M487.286 738.455C485.944 738.483 484.602 738.495 483.259 738.489C482.594 738.479 481.255 738.548 480.773 738.052L480.802 737.884C481.393 737.218 483.489 736.874 484.409 736.65C485.61 737.314 486.178 737.646 487.286 738.455Z"/><path fill="#242629" d="M799.984 418.034C803.544 418.018 807.91 417.835 811.347 418.459C812.413 418.866 816.291 419.717 817.511 419.922C835.298 425.367 844.921 426.211 863.785 425.424C872.324 425.068 883.678 427.631 892.361 428.294C905.033 429.961 919.745 437.103 931.795 438.354C941.018 439.311 960.744 439.372 970.051 437.704C972.194 437.813 974.211 437.664 976.349 437.59C1011.57 442.495 1047.1 443.945 1081.94 451.9C1084.98 451.983 1091.74 457.932 1093.91 458.179C1102.94 459.211 1114.85 463.642 1123.48 464.428C1139.54 465.892 1149.74 465.381 1165.04 473.008C1166.89 473.933 1177.7 474.418 1181.08 475.507C1179.05 476.528 1177.66 476.31 1175.28 476.637C1167.62 477.072 1155.57 473.894 1147.38 473.138C1140.89 472.539 1131.2 472.77 1125.26 471.6C1119.27 470.421 1112.74 466.894 1105.9 466.134C1099.32 465.401 1091.61 467.821 1085.89 466.599C1078.36 464.989 1071.91 461.201 1063.75 460.31C1054.3 459.276 1045 462.885 1035.8 461.137C1030.84 460.196 1024.79 457.157 1019.92 455.691C1010.08 452.724 999.685 450.047 989.635 448.095C975.725 445.393 967.959 449.277 954.481 450.185C945.708 450.776 937.23 444.65 930.155 444.544C920.264 444.395 911.409 448.155 900.724 447.123C891.733 446.256 887.96 441.764 880.295 440.111C874.215 438.8 862.899 442.217 856.205 441.516C851.447 441.018 845.591 439.489 841.018 439.042C832.237 438.182 825.33 437.027 816.72 435.388C807.695 433.67 806.621 430.77 799.124 430.297C796.585 429.443 786.433 431.633 782.672 432.083C786.912 433.477 789.284 434.388 793.297 436.402C801.391 438.823 804.947 439.625 813.489 439.523C819.273 443.883 823.48 446.879 830.79 448.683C841.632 451.401 853.447 450.374 864.399 451.92C870.217 452.741 877.267 454.534 883.05 455.829C905.361 460.825 926.961 461.618 949.578 462.356C953.444 462.482 961.647 466.557 965.767 467.21C970.548 468.386 975.553 469.51 980.245 471.015C985.392 472.584 990.473 475.416 995.711 476.579C1003.64 478.341 1013.16 474.589 1020.41 479.175C1025.86 482.623 1035.12 483.249 1041.41 485.288C1047.56 487.281 1053.31 489.635 1059.57 490.81C1064.26 491.482 1071.88 489.884 1076.39 490.086C1085.34 490.489 1096 492.44 1104.89 493.716C1108.33 494.21 1116.27 499.057 1120.2 499.852C1129.48 501.73 1138.88 501.854 1147.99 504.655C1151.66 505.783 1153.59 508.812 1157.86 510.082C1162.7 511.523 1172.69 509.185 1176.71 510.098C1183.44 511.623 1192.04 515.191 1198.99 517.486C1206.79 520.062 1217.53 522.015 1224.68 524.597C1226.41 524.734 1226.75 524.886 1228.42 525.376C1226.74 526.424 1226.79 526.363 1224.81 526.706C1223.02 526.523 1219.5 526.547 1218.23 525.924C1205.54 525.864 1186.68 522.267 1174.13 520.268C1169.28 519.495 1160.53 519.116 1156.45 518.057C1144.48 515.529 1129.16 510.416 1117.05 509.635C1095.93 508.137 1071.8 510.794 1050.99 507.016C1033.79 503.893 1018.09 498.868 1000.09 498.314C989.963 498.002 979.502 492.978 968.825 496.242C963.851 497.762 957.193 499.036 952.122 498.68C934.774 497.077 919.382 491.191 901.751 491.322C895.547 491.368 873.553 486.629 868.23 490.002L867.535 491.215C854.703 484.463 844.342 482.237 830.972 475.618C828.441 474.308 827.028 473.971 824.352 473.052C821.913 471.602 816.699 470.785 813.94 470.372C812.011 469.731 809.987 469.418 807.954 469.448C804.33 468.759 796.774 468.082 793.109 468.173C789.472 467.901 776.803 465.721 774.908 468.12C773.161 474.176 770.402 482.312 768.97 487.947C777.143 487.296 780.757 485.477 786.421 484.869L787.609 484.339C798.281 483.894 802.274 484.855 812.63 487.186C813.672 487.38 814.561 487.489 815.617 487.612C817.952 488.224 819.958 488.63 822.367 488.85C829.418 490.073 860.736 495.872 866.139 495.64C867.561 495.917 878.28 497.137 879.037 496.632C879.235 496.499 879.314 495.945 879.336 495.87L879.922 496.041C888.777 498.704 896.639 505.98 905.585 508.277C910.889 509.591 916.266 507.795 921.647 507.752C925.847 507.718 931.797 511.799 935.308 511.869C947.989 512.121 959.467 510.649 972.142 513.265C981.103 515.114 983.448 522.142 991.565 524.84C1000.01 526.843 1009.27 522.119 1018.42 524.169C1029.83 526.728 1035.74 533.989 1046.54 537.627C1051.91 539.436 1062.15 537.669 1065.53 538.718C1078.47 542.73 1091.58 547.413 1104.66 551.143C1112.03 552.895 1118.78 552.457 1126.12 554.788C1134.53 557.457 1144.7 565.599 1152.46 568.136C1166.15 572.611 1168.37 571.848 1180.55 580.922C1190.84 586.319 1202.54 587.826 1213.56 591.596C1220.12 593.841 1227.7 599.423 1233.53 601.199C1242.68 603.985 1254.31 604.117 1263.51 607.633C1272.34 610.967 1280.49 617.669 1289.64 620.629C1306 625.921 1312.72 624.001 1327.79 633.715C1310.6 628.303 1298.5 629.139 1281.53 626.359C1272.55 624.888 1264.87 614.556 1251.1 613.96C1233.74 613.209 1216.93 614.247 1199.75 612.454C1190.85 611.252 1185.48 605.122 1175.22 603.899C1162.65 602.402 1147.4 606.018 1135.59 604.104C1120.83 601.984 1107.97 593.587 1093.14 591.449C1087.27 590.603 1081.83 589.955 1075.92 589.759C1068.42 589.509 1060 590.413 1052.65 589.187C1038.24 586.716 1024.49 581.467 1009.68 581.059C997.134 580.714 984.686 583.248 972.105 581.937C961.236 580.804 951.676 575.076 940.844 573.845C931.402 572.771 922.012 573.851 912.565 574.134C893.848 574.1 877.86 574.215 859.642 570.083C855.899 568.908 852.835 567.104 849.426 565.67C846.013 563.946 838.468 558.044 836.29 557.252C820.862 551.64 804.185 546.073 788.594 540.862C787.075 540.354 778.111 541.4 775.868 541.41C766.392 541.448 758.721 538.358 750.007 535.221L749.213 533.855C750.045 531.473 751.853 527.568 752.966 525.259C769.788 490.367 776.752 456.859 782.182 418.718L783.38 419.259C785.562 421.46 796.575 418.728 799.984 418.034Z"/><path fill="#F0843F" d="M787.609 484.339C798.281 483.894 802.274 484.855 812.63 487.186C813.672 487.38 814.561 487.489 815.617 487.612C817.952 488.224 819.958 488.63 822.367 488.85C829.418 490.073 860.736 495.872 866.139 495.64C867.561 495.917 878.28 497.137 879.037 496.632C879.235 496.499 879.314 495.945 879.336 495.87L879.922 496.041C888.777 498.704 896.639 505.98 905.585 508.277C910.889 509.591 916.266 507.795 921.647 507.752C925.847 507.718 931.797 511.799 935.308 511.869C947.989 512.121 959.467 510.649 972.142 513.265C981.103 515.114 983.448 522.142 991.565 524.84C1000.01 526.843 1009.27 522.119 1018.42 524.169C1029.83 526.728 1035.74 533.989 1046.54 537.627C1051.91 539.436 1062.15 537.669 1065.53 538.718C1078.47 542.73 1091.58 547.413 1104.66 551.143C1112.03 552.895 1118.78 552.457 1126.12 554.788C1134.53 557.457 1144.7 565.599 1152.46 568.136C1166.15 572.611 1168.37 571.848 1180.55 580.922L1180.26 582.479L1180.64 583.003C1177.9 583.734 1166.28 578.906 1162.69 578.984C1146.48 579.338 1131.9 583.679 1115.52 581.749C1106.34 580.667 1102.25 574.949 1094.1 573.766C1084.95 572.437 1074.4 574.243 1065.4 571.087C1060.55 569.46 1056.95 565.522 1052.91 562.341C1046.68 557.45 1036.76 553.994 1028.86 552.722C1012.15 550.03 988.462 554.529 972.252 550.733C960.901 548.075 943.801 531.311 932.189 528.741C913.09 524.515 900.23 538.054 880.36 534.962C868.356 533.095 864.681 527.061 854.439 523.977C842.596 520.411 832.591 523.467 820.312 517.333C813.305 514.798 807.449 502.1 799.939 501.404C786 500.113 778.128 506.55 763.12 504.93C765.057 499.63 766.841 494.276 768.469 488.873L768.97 487.947C777.143 487.296 780.757 485.477 786.421 484.869L787.609 484.339Z"/><path fill="#24160D" d="M787.609 484.339C798.281 483.894 802.274 484.855 812.63 487.186C813.672 487.38 814.561 487.489 815.617 487.612C817.952 488.224 819.958 488.63 822.367 488.85C829.418 490.073 860.736 495.872 866.139 495.64C867.561 495.917 878.28 497.137 879.037 496.632C879.235 496.499 879.314 495.945 879.336 495.87L879.922 496.041C888.777 498.704 896.639 505.98 905.585 508.277C910.889 509.591 916.266 507.795 921.647 507.752C925.847 507.718 931.797 511.799 935.308 511.869C947.989 512.121 959.467 510.649 972.142 513.265C981.103 515.114 983.448 522.142 991.565 524.84C1000.01 526.843 1009.27 522.119 1018.42 524.169C1029.83 526.728 1035.74 533.989 1046.54 537.627C1051.91 539.436 1062.15 537.669 1065.53 538.718C1078.47 542.73 1091.58 547.413 1104.66 551.143C1112.03 552.895 1118.78 552.457 1126.12 554.788C1134.53 557.457 1144.7 565.599 1152.46 568.136C1166.15 572.611 1168.37 571.848 1180.55 580.922L1180.26 582.479C1178.64 580.84 1170.56 574.886 1168.56 573.932C1164.9 572.184 1159.05 572.218 1154.68 570.391C1144.27 566.031 1135.04 559.48 1124.56 555.428C1120.11 553.749 1110.63 554.12 1105.2 552.654C1092.42 549.202 1079.47 543.77 1066.86 540.359C1061.68 538.96 1052.21 540.77 1045.3 538.435C1034.99 534.952 1028.94 527.805 1018.31 525.481C1009.7 523.6 999.861 528.032 991.684 526.17C984.358 524.501 980.249 515.697 972.032 514.553C966.585 514.008 957.963 512.265 952.604 512.876C939.716 514.345 933.486 513.25 921.672 509.038C920.03 508.452 910.72 510.846 906.425 509.82C897.063 507.585 892.145 501.785 883.264 499.158C875.489 497.649 866.222 497.646 857.844 496.296C844.888 494.178 831.946 491.971 819.02 489.676C812.451 488.479 803.659 486.474 797.337 485.773C787.556 484.688 779.144 488.86 768.469 488.873L768.97 487.947C777.143 487.296 780.757 485.477 786.421 484.869L787.609 484.339Z"/><path fill="#191D20" d="M1224.68 524.597C1226.41 524.734 1226.75 524.886 1228.42 525.376C1226.74 526.424 1226.79 526.363 1224.81 526.706C1223.02 526.523 1219.5 526.547 1218.23 525.924C1221.65 524.776 1221.41 526.881 1224.68 524.597Z"/><path fill="#242629" d="M829.53 351.23C834.826 351.262 845.118 353.585 848.924 353.325C865.924 352.16 876.802 359.527 891.974 362.411C902.553 364.422 919.341 355.138 930.972 359.175C941.887 361.58 952.507 369.792 962.799 372.483C964.6 373.115 965.6 373.465 967.3 374.384L968.875 372.875C971.229 374.347 976.1 377.718 978.551 377.943C996.496 379.586 1016.12 379.524 1034.13 379.882C1060.4 380.354 1086.62 382.239 1112.68 385.531C1112.3 386.941 1109.1 386.554 1107.54 386.726C1097.99 386.675 1030.04 385.898 1025.18 387.759C1023.53 389.293 1022.43 389.752 1020.42 390.617L1020.63 391.521L1024.05 393.583C1037.5 394.536 1051.34 395.526 1064.82 395.782C1074.82 395.972 1085.34 395.193 1095.36 395.437C1098.78 395.52 1103.09 397.984 1107.07 398.269C1131.19 399.994 1154.55 402.813 1178.51 405.91C1176.08 407.343 1171.98 406.603 1168.11 407.038C1144.03 407.745 1114.46 405.879 1090.16 405.212C1079.89 404.93 1068.04 406.033 1058.09 404.287C1047.49 402.102 1039.88 401.806 1029.39 404.381C1027.11 404.66 1025.9 404.896 1023.58 404.853C1022.05 405.452 1018.5 405.814 1019.93 407.381C1020.15 407.627 1020.37 407.879 1020.58 408.137C1015.11 409.104 993.172 407.038 985.807 407.119C984.627 408.05 984.608 408.088 983.166 408.572C986.146 409.524 988.031 409.938 991.113 410.537C987.022 411.708 981.989 412.047 980.005 415.893C981.612 416.775 990.656 420.889 992.186 421.494C997.426 422.821 1018.3 421.949 1025.24 421.797C1028.09 422.825 1034.99 425.393 1037.49 425.717C1047.41 427.004 1055.83 426.123 1065.6 429.507C1063.82 430.452 1063.49 430.432 1061.51 430.878C1052.77 429.893 1038.92 428.85 1030.14 428.77C1020.81 428.685 1009.69 430.859 999.877 430.151C990.259 429.458 981.349 427.375 971.728 426.482C964.424 422.941 906.694 424.093 894.542 423.069C888.378 422.55 882.17 418.734 876.092 418.129C867.986 417.415 859.232 415.859 851.149 415.677C838.465 415.392 829.347 416.106 817.097 411.632C813.019 412.319 809.968 413.107 805.813 412.74C802.832 412.476 795.067 413.008 792.935 415.396C792.473 418.51 797.921 417.826 799.984 418.034C796.575 418.728 785.562 421.46 783.38 419.259C783.919 415.616 784.159 413.21 784.539 409.552C784.569 406.737 783.536 406.752 784.418 405.087L785.636 402.227C784.98 401.321 784.324 400.432 783.71 399.496C783.554 397.566 783.78 396.713 784.092 394.838C784.403 394.426 784.492 394.507 785.154 394.376C785.572 391.337 785.577 391.106 785.411 388.049C785.014 387.608 784.55 387.127 784.223 386.645C783.849 382.424 783.994 374.597 783.932 370.097L785.615 370.293C785.564 365.292 784.846 358.153 784.487 353.01C791.277 353.225 798.45 354.634 805.324 354.266C813.332 353.838 821.513 352.192 829.53 351.23ZM786.829 417.948C786.462 417.579 786.344 417.726 785.844 417.876C786.016 418.384 785.933 418.238 786.073 418.427C786.372 418.423 786.562 418.179 786.829 417.948Z"/><path fill="#242629" d="M785.154 394.376L786.205 395.659C804.277 393.417 825.012 393.6 843.305 393.116C849.825 392.944 857.026 394.266 863.637 394.433C883.479 394.934 903.317 393.943 923.148 393.424C935.713 392.784 947.433 389.722 960.44 391.897C963.741 392.45 967.688 392.278 971.048 392.712C988.712 393.406 1006.37 394.46 1024.05 393.583C1037.5 394.536 1051.34 395.526 1064.82 395.782C1074.82 395.972 1085.34 395.193 1095.36 395.437C1098.78 395.52 1103.09 397.984 1107.07 398.269C1131.19 399.994 1154.55 402.813 1178.51 405.91C1176.08 407.343 1171.98 406.603 1168.11 407.038C1144.03 407.745 1114.46 405.879 1090.16 405.212C1079.89 404.93 1068.04 406.033 1058.09 404.287C1047.49 402.102 1039.88 401.806 1029.39 404.381C1027.11 404.66 1025.9 404.896 1023.58 404.853C1022.05 405.452 1018.5 405.814 1019.93 407.381C1020.15 407.627 1020.37 407.879 1020.58 408.137C1015.11 409.104 993.172 407.038 985.807 407.119C984.627 408.05 984.608 408.088 983.166 408.572C986.146 409.524 988.031 409.938 991.113 410.537C987.022 411.708 981.989 412.047 980.005 415.893C981.612 416.775 990.656 420.889 992.186 421.494C997.426 422.821 1018.3 421.949 1025.24 421.797C1028.09 422.825 1034.99 425.393 1037.49 425.717C1047.41 427.004 1055.83 426.123 1065.6 429.507C1063.82 430.452 1063.49 430.432 1061.51 430.878C1052.77 429.893 1038.92 428.85 1030.14 428.77C1020.81 428.685 1009.69 430.859 999.877 430.151C990.259 429.458 981.349 427.375 971.728 426.482C964.424 422.941 906.694 424.093 894.542 423.069C888.378 422.55 882.17 418.734 876.092 418.129C867.986 417.415 859.232 415.859 851.149 415.677C838.465 415.392 829.347 416.106 817.097 411.632C813.019 412.319 809.968 413.107 805.813 412.74C802.832 412.476 795.067 413.008 792.935 415.396C792.473 418.51 797.921 417.826 799.984 418.034C796.575 418.728 785.562 421.46 783.38 419.259C783.919 415.616 784.159 413.21 784.539 409.552C784.569 406.737 783.536 406.752 784.418 405.087L785.636 402.227C784.98 401.321 784.324 400.432 783.71 399.496C783.554 397.566 783.78 396.713 784.092 394.838C784.403 394.426 784.492 394.507 785.154 394.376ZM786.829 417.948C786.462 417.579 786.344 417.726 785.844 417.876C786.016 418.384 785.933 418.238 786.073 418.427C786.372 418.423 786.562 418.179 786.829 417.948Z"/><path fill="#D7CDB5" d="M862.286 401.887C878.94 398.68 901.469 400.924 919.143 401.094C935.559 401.195 951.976 401.208 968.393 401.133C977.292 401.089 988.416 400.684 997.108 401.23C1004.81 401.714 1015.65 403.665 1023.58 404.853C1022.05 405.452 1018.5 405.814 1019.93 407.381C1020.15 407.627 1020.37 407.879 1020.58 408.137C1015.11 409.104 993.172 407.038 985.807 407.119C984.627 408.05 984.608 408.088 983.166 408.572C986.146 409.524 988.031 409.938 991.113 410.537C987.022 411.708 981.989 412.047 980.005 415.893C969.672 412.76 957.48 414.067 948.024 411.725C930.502 407.385 914.356 409.097 897.048 406.272C884.798 404.273 875.983 404.097 863.61 403.815L862.286 401.887Z"/><path fill="#191D20" d="M980.43 406.669C982.376 406.984 983.86 407.007 985.807 407.119C984.627 408.05 984.608 408.088 983.166 408.572L980.581 408.583L980.43 406.669Z"/><path fill="#737272" d="M980.581 408.583C979.774 408.23 977.173 407.559 976.921 406.818C977.397 406.049 979.6 406.564 980.43 406.669L980.581 408.583Z"/><path fill="#D7CDB5" d="M785.636 402.227C791.058 400.791 798.972 401.575 804.647 400.786C821.896 398.387 836.303 397.886 853.719 399.52C852.654 399.925 850.81 400.566 849.222 400.72C827.975 402.789 806.369 403.813 785.279 405.948C784.908 405.986 784.64 405.416 784.418 405.087L785.636 402.227Z"/><path fill="#DCD5BC" d="M784.539 409.552C790.08 409.646 796.289 410.938 802.082 411.408C806.895 411.798 813.206 410.941 817.097 411.632C813.019 412.319 809.968 413.107 805.813 412.74C802.832 412.476 795.067 413.008 792.935 415.396C792.473 418.51 797.921 417.826 799.984 418.034C796.575 418.728 785.562 421.46 783.38 419.259C783.919 415.616 784.159 413.21 784.539 409.552ZM786.829 417.948C786.462 417.579 786.344 417.726 785.844 417.876C786.016 418.384 785.933 418.238 786.073 418.427C786.372 418.423 786.562 418.179 786.829 417.948Z"/><path fill="#DCD5BC" fill-opacity="0.9137255" d="M785.844 417.876C786.344 417.726 786.462 417.579 786.829 417.948C786.562 418.179 786.372 418.423 786.073 418.427C785.933 418.238 786.016 418.384 785.844 417.876Z"/><path fill="#D9D0B8" d="M863.61 403.815C862.813 403.783 859.732 403.876 859.312 403.295C859.543 402.42 861.492 402.12 862.286 401.887L863.61 403.815Z"/><path fill="#0899E2" d="M829.53 351.23C834.826 351.262 845.118 353.585 848.924 353.325C865.924 352.16 876.802 359.527 891.974 362.411C902.553 364.422 919.341 355.138 930.972 359.175C941.887 361.58 952.507 369.792 962.799 372.483L961.803 374.973C937.341 374.951 913.259 374.74 888.814 373.678C881.64 373.367 872.68 374.774 865.619 374.619C853.607 374.355 841.302 374.311 829.313 373.881C813.962 373.33 801.347 370.23 785.615 370.293C785.564 365.292 784.846 358.153 784.487 353.01C791.277 353.225 798.45 354.634 805.324 354.266C813.332 353.838 821.513 352.192 829.53 351.23Z"/><path fill="#D7CDB5" d="M785.411 388.049C794.394 387.329 805.259 389.484 813.73 388.637C843.928 384.685 872.255 386.363 902.38 387.243C935.21 388.202 969.197 385.223 1002.25 387.784C1009.71 388.362 1017.3 386.565 1025.18 387.759C1023.53 389.293 1022.43 389.752 1020.42 390.617L1020.63 391.521L1024.05 393.583C1006.37 394.46 988.712 393.406 971.048 392.712C967.688 392.278 963.741 392.45 960.44 391.897C947.433 389.722 935.713 392.784 923.148 393.424C903.317 393.943 883.479 394.934 863.637 394.433C857.026 394.266 849.825 392.944 843.305 393.116C825.012 393.6 804.277 393.417 786.205 395.659L785.154 394.376C785.572 391.337 785.577 391.106 785.411 388.049Z"/><path fill="#1D7BB3" d="M962.799 372.483C964.6 373.115 965.6 373.465 967.3 374.384C966.662 375.713 963.182 375.031 961.803 374.973L962.799 372.483Z"/><path fill="#D9D0B8" fill-opacity="0.98431373" d="M817.097 411.632C829.347 416.106 838.465 415.392 851.149 415.677C859.232 415.859 867.986 417.415 876.092 418.129C882.17 418.734 888.378 422.55 894.542 423.069C906.694 424.093 964.424 422.941 971.728 426.482L971.859 428.212L973.791 429.543C972.78 430.595 972.681 430.6 971.4 431.362L969.829 435.764C967.51 434.976 963.992 435.739 961.332 436.043C964.286 436.649 967.173 437.11 970.051 437.704C960.744 439.372 941.018 439.311 931.795 438.354C919.745 437.103 905.033 429.961 892.361 428.294C883.678 427.631 872.324 425.068 863.785 425.424C844.921 426.211 835.298 425.367 817.511 419.922C824.873 416.295 821.066 418.305 814.373 416.084C814.183 416.021 812.451 417.978 811.347 418.459C807.91 417.835 803.544 418.018 799.984 418.034C797.921 417.826 792.473 418.51 792.935 415.396C795.067 413.008 802.832 412.476 805.813 412.74C809.968 413.107 813.019 412.319 817.097 411.632Z"/><path fill="#242629" d="M985.807 407.119C993.172 407.038 1015.11 409.104 1020.58 408.137C1022.91 408.349 1028.03 408.894 1029.98 409.732C1034.86 411.146 1052.25 409.497 1057.36 408.384C1076.84 404.909 1107.7 411.811 1126.28 417.478L1126.71 419.021C1101.98 415.877 1074.44 416.586 1049.34 415.652C1036.67 415.18 1023.11 418.49 1010.14 415.224C1009.64 414.865 1009.69 414.861 1009.1 414.774C1004.33 413.588 995.654 411.061 991.113 410.537C988.031 409.938 986.146 409.524 983.166 408.572C984.608 408.088 984.627 408.05 985.807 407.119Z"/><path fill="#242629" d="M1140.3 427.266C1166.07 426.501 1192.31 424.651 1217.7 428.734C1234.7 431.469 1252.08 432.889 1269.09 435.425C1266.17 437.123 1263.17 436.316 1259.07 437.107C1253.09 437.612 1246.12 436.949 1240.19 437.434C1217.73 439.268 1197.74 435.606 1175.66 432.627C1164.31 431.096 1152.98 431.165 1141.19 429.405L1140.3 427.266Z"/><path fill="#242629" fill-opacity="0.98823529" d="M823.426 350.748C832.501 349.41 838.895 350.716 847.874 351.905C854.882 352.832 862.232 352.154 869.118 354.016C880.237 357.377 888.344 362.924 900.589 360.674C909.118 359.107 917.894 356.538 926.622 357.127C934.982 357.619 940.756 362.876 948.652 364.056C981.083 365.417 1013.56 365.596 1045.96 367.983C1048.9 368.199 1051.85 368.357 1054.79 368.411C1055.59 369.215 1056.11 369.018 1057.22 369.026C1058.29 369.02 1059.35 368.967 1060.42 368.922L1061.56 369.037L1061.74 369.544C1051.97 369.381 970.816 370.762 968.481 372.657L968.875 372.875L967.3 374.384C965.6 373.465 964.6 373.115 962.799 372.483C952.507 369.792 941.887 361.58 930.972 359.175C919.341 355.138 902.553 364.422 891.974 362.411C876.802 359.527 865.924 352.16 848.924 353.325C845.118 353.585 834.826 351.262 829.53 351.23L823.426 350.748Z"/><path fill="#D9D0B8" fill-opacity="0.45490196" d="M787.609 484.339C783.434 480.982 790.925 471.327 795.086 470.586C797.005 470.243 798.338 470.332 800.225 470.346C799.327 470.749 796.095 471.873 795.581 472.226L795.569 472.307C796.5 473.016 801.259 472.383 802.57 472.55C803.261 472.638 809.542 471.263 809.454 471.261C817.251 471.481 805.305 473.733 805.807 473.53L805.675 473.725C808.135 475.9 816.64 472.197 813.646 470.968C813.744 470.769 813.842 470.571 813.94 470.372C816.699 470.785 821.913 471.602 824.352 473.052C824.065 473.54 824.115 473.321 824.074 473.664C824.305 474.238 825.034 474.446 825.398 474.895C825.138 475.623 822.165 476.538 822.723 477.715C823.233 478.022 824.126 477.702 824.704 477.561L825.285 477.732L825.274 477.739C825.279 477.789 825.284 477.839 825.29 477.889C825.281 478.242 825.272 478.595 825.263 478.949C825.23 480.133 825.257 481.318 825.344 482.5L824.825 482.657C819.861 484.121 817.296 485.318 812.63 487.186C802.274 484.855 798.281 483.894 787.609 484.339Z"/><path fill="#184B69" fill-opacity="0.98823529" d="M285.54 50.912C288.09 48.665 301.698 44.3893 305.756 43.0853C350.263 28.6069 397.131 22.7968 443.825 25.9694C501.685 30.1672 557.793 47.6754 607.776 77.129C613.064 80.2252 629.386 90.0711 632.766 93.7863C629.727 92.485 617.898 84.603 614.335 82.4158C603.103 75.4781 591.548 69.0768 579.709 63.2335C495.427 22.3956 395.728 14.9046 306.563 43.9206C301.931 45.4278 289.533 50.5508 285.54 50.912Z"/><path fill="#D9D0B8" fill-opacity="0.67843139" d="M849.426 565.67C852.835 567.104 855.899 568.908 859.642 570.083C859.132 572.274 859.703 578.525 859.652 581.441C850.516 578.846 847.543 577.613 838.684 573.976C841.525 572.466 842.649 572.11 845.614 571.372C847.844 570.816 846.411 567.181 849.426 565.67Z"/><path fill="#DCD5BC" fill-opacity="0.72941178" d="M991.113 410.537C995.654 411.061 1004.33 413.588 1009.1 414.774L1007.14 415.431C1001.76 417.219 998.509 419.566 992.186 421.494C990.656 420.889 981.612 416.775 980.005 415.893C981.989 412.047 987.022 411.708 991.113 410.537Z"/><path fill="#D9D0B8" fill-opacity="0.38431373" d="M793.109 468.173C796.774 468.082 804.33 468.759 807.954 469.448C805.477 469.792 801.397 469.443 800.225 470.346C798.338 470.332 797.005 470.243 795.086 470.586C790.925 471.327 783.434 480.982 787.609 484.339L786.421 484.869C784.377 484.318 783.851 484.529 782.377 483.033C780.79 481 777.11 483.718 776.325 483.532C774.222 483.034 773.635 478.986 774.487 477.208C774.46 477.166 774.525 475.685 774.694 475.584C777.383 473.977 782.297 475.582 777.983 470.33C785.296 471.295 781.204 471.19 782.717 476.193L782.612 476.039L782.682 476.178C783.4 476.206 783.541 474.142 783.644 473.653C784.111 470.816 788.189 471.643 789.422 470.241C790.933 468.523 792.882 469.861 793.109 468.173Z"/><path fill="#D9D0B8" fill-opacity="0.51764709" d="M1029.39 404.381C1039.88 401.806 1047.49 402.102 1058.09 404.287C1057.51 404.335 1045.68 403.778 1048.09 408.12C1048.46 408.778 1055.1 408.303 1057.36 408.384C1052.25 409.497 1034.86 411.146 1029.98 409.732C1038.05 407.525 1034.97 406.202 1029.39 404.381Z"/><path fill="#D9D0B8" fill-opacity="0.58431375" d="M774.908 468.12C775.304 471.199 775.071 470.102 777.983 470.33C782.297 475.582 777.383 473.977 774.694 475.584C774.525 475.685 774.46 477.166 774.487 477.208C773.635 478.986 774.222 483.034 776.325 483.532C777.11 483.718 780.79 481 782.377 483.033C783.851 484.529 784.377 484.318 786.421 484.869C780.757 485.477 777.143 487.296 768.97 487.947C770.402 482.312 773.161 474.176 774.908 468.12Z"/><path fill="#D9D0B8" fill-opacity="0.22352941" d="M824.352 473.052C827.028 473.971 828.441 474.308 830.972 475.618C831.333 477.74 832.668 480.991 831.9 483.033C830.549 486.627 823.108 486.363 822.367 488.85C819.958 488.63 817.952 488.224 815.617 487.612C819.728 486.833 822.943 486.106 825.344 482.5C825.257 481.318 825.23 480.133 825.263 478.949C825.272 478.595 825.281 478.242 825.29 477.889C825.284 477.839 825.279 477.789 825.274 477.739L825.285 477.732L824.704 477.561C824.126 477.702 823.233 478.022 822.723 477.715C822.165 476.538 825.138 475.623 825.398 474.895C825.034 474.446 824.305 474.238 824.074 473.664C824.115 473.321 824.065 473.54 824.352 473.052Z"/><path fill="#DCD5BC" fill-opacity="0.59607846" d="M1009.1 414.774C1009.69 414.861 1009.64 414.865 1010.14 415.224C1006.04 416.615 1008.66 421.116 1008.1 421.026C1013.48 421.9 1019.62 421.339 1025.24 421.797C1018.3 421.949 997.426 422.821 992.186 421.494C998.509 419.566 1001.76 417.219 1007.14 415.431L1009.1 414.774Z"/><path fill="#D9D0B8" fill-opacity="0.34509805" d="M774.908 468.12C776.803 465.721 789.472 467.901 793.109 468.173C792.882 469.861 790.933 468.523 789.422 470.241C788.189 471.643 784.111 470.816 783.644 473.653C783.541 474.142 783.4 476.206 782.682 476.178L782.612 476.039L782.717 476.193C781.204 471.19 785.296 471.295 777.983 470.33C775.071 470.102 775.304 471.199 774.908 468.12Z"/><path fill="#DCD5BC" fill-opacity="0.054901961" d="M782.672 432.083C786.433 431.633 796.585 429.443 799.124 430.297L797.723 430.914C802.478 434.566 796.678 435.711 793.297 436.402C789.284 434.388 786.912 433.477 782.672 432.083Z"/><path fill="#D7CDB5" fill-opacity="0.49019608" d="M807.954 469.448C809.987 469.418 812.011 469.731 813.94 470.372C813.842 470.571 813.744 470.769 813.646 470.968C816.64 472.197 808.135 475.9 805.675 473.725L805.807 473.53C805.305 473.733 817.251 471.481 809.454 471.261C809.542 471.263 803.261 472.638 802.57 472.55C801.259 472.383 796.5 473.016 795.569 472.307L795.581 472.226C796.095 471.873 799.327 470.749 800.225 470.346C801.397 469.443 805.477 469.792 807.954 469.448Z"/><path fill="#DCD5BC" fill-opacity="0.90588236" d="M811.347 418.459C812.451 417.978 814.183 416.021 814.373 416.084C821.066 418.305 824.873 416.295 817.511 419.922C816.291 419.717 812.413 418.866 811.347 418.459Z"/><path fill="#D9D0B8" fill-opacity="0.35294119" d="M812.63 487.186C817.296 485.318 819.861 484.121 824.825 482.657L825.344 482.5C822.943 486.106 819.728 486.833 815.617 487.612C814.561 487.489 813.672 487.38 812.63 487.186Z"/><path fill="#3F3F40" fill-opacity="0.85490197" d="M1178.51 405.91C1181.96 406.094 1186.21 406.836 1190.04 407.069L1186.11 407.856C1180.05 407.331 1174.13 407.922 1168.11 407.038C1171.98 406.603 1176.08 407.343 1178.51 405.91Z"/><path fill="#3F3F40" fill-opacity="0.89803922" d="M1269.09 435.425C1272.33 435.591 1275.59 436.235 1278.79 436.533L1278.97 437.224C1277.64 437.19 1276.33 437.234 1274.99 437.263C1269.77 436.995 1264.42 437.318 1259.07 437.107C1263.17 436.316 1266.17 437.123 1269.09 435.425Z"/><path fill="#3F3F40" fill-opacity="0.96470588" d="M1141.19 429.405C1138.7 429.058 1128.26 427.884 1126.81 427.038L1126.81 426.931C1127.19 426.578 1139.01 427.121 1140.3 427.266L1141.19 429.405Z"/><path fill="#DCD5BC" fill-opacity="0.66274512" d="M961.332 436.043C963.992 435.739 967.51 434.976 969.829 435.764C971.777 437.748 973.242 437.174 976.349 437.59C974.211 437.664 972.194 437.813 970.051 437.704C967.173 437.11 964.286 436.649 961.332 436.043Z"/><path fill="#191D20" fill-opacity="0.9137255" d="M868.23 490.002C872.055 492.305 875.615 493.153 879.336 495.87C878.144 495.607 876.976 495.335 875.771 495.132C872.996 493.728 870.282 492.583 867.535 491.215L868.23 490.002Z"/><path fill="#3F3F40" fill-opacity="0.87450981" d="M1228.42 525.376C1230.74 526.041 1233.81 526.768 1236.17 527.179L1234.91 528.176C1230.99 527.237 1228.2 527.417 1224.81 526.706C1226.79 526.363 1226.74 526.424 1228.42 525.376Z"/><path fill="#3F3F40" fill-opacity="0.8392157" d="M1112.68 385.531C1114.22 385.645 1117.86 386.103 1119.27 386.507L1119.49 387.314C1115.6 387.306 1111.36 387.311 1107.54 386.726C1109.1 386.554 1112.3 386.941 1112.68 385.531Z"/><path fill="#D9D0B8" fill-opacity="0.019607844" d="M875.771 495.132C876.976 495.335 878.144 495.607 879.336 495.87C879.314 495.945 879.235 496.499 879.037 496.632C878.28 497.137 867.561 495.917 866.139 495.64C869.849 495.216 872.329 495.484 875.771 495.132Z"/><path fill="#3F3F40" fill-opacity="0.9137255" d="M1181.08 475.507C1182.56 475.84 1184.02 476.202 1185.48 476.592L1184.33 477.52C1181.02 477.037 1178.69 477.236 1175.28 476.637C1177.66 476.31 1179.05 476.528 1181.08 475.507Z"/><path fill="#3F3F40" fill-opacity="0.94901961" d="M1065.6 429.507C1067.17 429.727 1069.23 430.205 1070.86 430.501L1068.83 431.487C1066.33 431.216 1064.03 431.195 1061.51 430.878C1063.49 430.432 1063.82 430.452 1065.6 429.507Z"/><path fill="#737272" fill-opacity="0.60784316" d="M1122.42 386.622C1128.59 386.688 1135.2 387.924 1123.56 388.005L1122.27 387.132L1122.42 386.622Z"/><path fill="#737272" fill-opacity="0.80784315" d="M1063.22 368.787C1066.62 368.945 1070.03 368.976 1073.44 368.881C1073.54 368.978 1073.65 369.075 1073.75 369.171C1072.91 369.77 1063.43 369.566 1061.74 369.544L1061.56 369.037L1063.22 368.787Z"/><path fill="#ADAEAD" fill-opacity="0.34509805" d="M1190.04 407.069C1191.37 407.132 1192.01 407.23 1193.25 407.819L1193.32 407.932C1192.98 408.79 1187.04 407.967 1186.11 407.856L1190.04 407.069Z"/><path fill="#737272" fill-opacity="0.84705883" d="M1126.28 417.478C1128.25 417.978 1130.23 418.43 1132.22 418.834L1131.93 419.709C1130.18 419.463 1128.46 419.297 1126.71 419.021L1126.28 417.478Z"/><path fill="#ADAEAD" fill-opacity="0.43137255" d="M1074.54 431.206C1075.38 431.298 1079.56 431.567 1079.8 432.355C1079.05 433.28 1075.33 432.399 1074.35 432.139L1074.54 431.206Z"/><path fill="#D9D0B8" fill-opacity="0.11764706" d="M1063.36 368.261C1066.43 368.141 1070.49 368.18 1073.44 368.881C1070.03 368.976 1066.62 368.945 1063.22 368.787L1063.36 368.261Z"/><path fill="#737272" fill-opacity="0.54509807" d="M1070.86 430.501C1072.33 430.699 1073.1 430.853 1074.54 431.206L1074.35 432.139C1072.26 431.989 1070.9 431.823 1068.83 431.487L1070.86 430.501Z"/><path fill="#D9D0B8" fill-opacity="0.18039216" d="M1283.56 436.637C1283 439.029 1277.08 437.586 1274.99 437.263C1276.33 437.234 1277.64 437.19 1278.97 437.224C1281.25 437.204 1281.4 437.188 1283.56 436.637Z"/><path fill="#949496" fill-opacity="0.56470591" d="M1185.48 476.592C1186.27 476.786 1187.91 477.028 1188.54 477.504L1188.58 477.583C1188.03 478.285 1185.11 477.651 1184.33 477.52L1185.48 476.592Z"/><path fill="#3F3F40" fill-opacity="0.627451" d="M1054.79 368.411C1055.7 368.316 1056.52 368.286 1057.43 368.247L1057.22 369.026C1056.11 369.018 1055.59 369.215 1054.79 368.411Z"/><path fill="#ADAEAD" fill-opacity="0.30588236" d="M1236.17 527.179C1236.75 527.397 1237.6 527.588 1237.91 528.086C1237.8 528.708 1235.26 528.235 1234.91 528.176L1236.17 527.179Z"/><path fill="#ADAEAD" fill-opacity="0.65098041" d="M1132.22 418.834C1132.75 418.976 1134.44 419.15 1134.43 419.957C1133.85 420.524 1132.53 419.883 1131.93 419.709L1132.22 418.834Z"/><path fill="#949496" fill-opacity="0.66274512" d="M1278.79 436.533C1280.43 436.523 1281.92 436.572 1283.56 436.637C1281.4 437.188 1281.25 437.204 1278.97 437.224L1278.79 436.533Z"/><path fill="#737272" fill-opacity="0.44313726" d="M1057.43 368.247C1058.38 368.269 1059.33 368.297 1060.28 368.332L1060.42 368.922C1059.35 368.967 1058.29 369.02 1057.22 369.026L1057.43 368.247Z"/><path fill="#737272" fill-opacity="0.94117647" d="M1119.27 386.507L1122.42 386.622L1122.27 387.132L1120.04 387.429L1119.49 387.314L1119.27 386.507Z"/><path fill="#949496" fill-opacity="0.24705882" d="M1060.28 368.332L1063.36 368.261L1063.22 368.787L1061.56 369.037L1060.42 368.922L1060.28 368.332Z"/><path fill="#ADAEAD" fill-opacity="0.25098041" d="M1122.27 387.132L1123.56 388.005C1121.96 387.888 1121.57 387.812 1120.04 387.429L1122.27 387.132Z"/></svg>