<?xml version="1.0" encoding="utf-8" ?><svg xmlns="http://www.w3.org/2000/svg" xmlns:xlink="http://www.w3.org/1999/xlink" width="1024" height="1024" viewBox="0 0 1024 1024"><path fill="#130970" d="M0 0L511.214 0L1024 0L1024 511.573L1024 1024L576.049 1024L0 1024L0 512.453L0 0Z"/><path fill="#FEFEFE" d="M0 0L511.214 0L511.097 319.225L511.074 403.567C511.071 437.788 515.527 464.529 489.059 490.938C462.896 517.043 433.562 512.503 400.158 512.498L313.032 512.472L0 512.453L0 0Z"/><path fill="#130970" d="M105.944 218.206C107.456 218.107 108.972 218.095 110.485 218.168C124.789 218.828 134.904 225.687 144.399 236.079C158.847 239.501 166.475 251.006 160.953 265.385C158.448 259.645 155.676 256.727 149.092 255.576C144 254.685 138.299 256.013 134.127 259.122C130.16 262.093 127.548 266.528 126.872 271.437C125.534 280.549 129.507 288.236 134.733 295.225C124.403 288.194 119.305 279.028 107.816 270.985C106.57 270.172 105.288 269.415 103.974 268.718C81.2799 256.72 61.1059 271.616 50.4977 291.955C50.4737 290.584 50.4872 289.213 50.5383 287.843C51.1732 271.318 59.3149 256.642 71.2536 245.559C66.2141 246.313 64.0098 247.031 59.4547 249.19C61.4878 245.493 63.906 242.022 66.6691 238.833C76.8228 226.951 90.3042 219.433 105.944 218.206Z"/><path fill="#FEFEFE" d="M103.257 223.658C116.232 221.645 129.273 228.005 137.951 237.341C136.228 241.752 132.834 247.614 130.497 251.899C135.124 248.391 139.103 244.588 143.943 241.323C144.725 241.514 145.502 241.726 146.274 241.957C151.848 243.669 153.919 246.866 156.378 251.651C138.216 246.875 121.645 254.63 120.93 275.113C117.534 271.661 115.324 269.79 111.458 266.9C93.6319 254.509 74.2085 256.27 59.4514 272.234C65.5988 253.99 76.7899 246.234 92.8701 238.051C86.7224 237.785 80.5716 237.599 74.4191 237.494C85.4402 229.551 89.7863 225.732 103.257 223.658Z"/><path fill="#130970" d="M115.693 228.122C122.108 227.068 128.174 231.379 129.289 237.783C130.404 244.188 126.151 250.295 119.758 251.471C113.277 252.663 107.069 248.34 105.939 241.848C104.808 235.357 109.191 229.19 115.693 228.122Z"/><path fill="#0B44F6" d="M114.883 234.023C123.486 233.31 127.362 240.506 119.512 245.212C119.053 245.251 118.594 245.282 118.134 245.305C110.848 245.641 108.59 238.951 114.883 234.023Z"/><path fill="#130970" d="M257.915 237.108C264.544 237.097 261.981 238.91 266.587 240.776C267.134 239.927 267.389 239.092 267.689 238.133C269.237 237.549 272.236 237.883 274.023 237.963L273.988 272.627C271.9 272.843 269.461 273.318 267.52 272.719C266.312 271.369 266.704 271.763 266.696 269.375L267.055 261.161C251.07 277.255 234.618 241.989 257.915 237.108Z"/><path fill="#FEFEFE" d="M259.088 242.988C262.29 243.154 264.393 243.829 266.122 246.76C267.324 248.788 267.632 251.223 266.973 253.487C266.166 256.312 264.604 257.707 262.137 259.018C258.423 259.109 255.811 258.484 254.039 254.857C253.031 252.756 252.921 250.335 253.735 248.152C254.823 245.177 256.336 244.179 259.088 242.988Z"/><path fill="#130970" d="M291.308 237.546C303.226 237.101 307.776 241.813 308.419 253.707C304.249 253.912 290.642 252.719 288.523 255.366C288.974 257.064 291.108 258.336 292.642 258.989C295.529 260.218 299.679 258.407 302.384 257.258L302.736 257.105C308.153 258.772 304.041 264.268 298.602 265.124C279.549 268.125 272.524 244.03 291.308 237.546Z"/><path fill="#FEFEFE" d="M292.452 242.513C292.92 242.512 293.389 242.519 293.857 242.534C297.018 242.655 300.828 244.617 300.463 248.182C299.066 249.35 299.409 248.97 297.125 249.063C293.719 249.184 291.594 249.64 288.536 248.209C287.106 245.57 290.284 243.785 292.452 242.513Z"/><path fill="#130970" d="M209.297 237.628C217.075 236.977 221.194 236.776 225.461 244.043C225.706 250.398 225.505 258.074 225.51 264.532C223.244 264.615 221.478 264.785 219.231 264.411L218.867 262.312C215.329 262.216 214.994 268.688 204.161 263.116C202.074 260.877 201.32 259.629 201.208 256.503C200.869 247.081 211.841 248.12 218.32 248.638L218.94 248.091C219.394 240.507 209.577 243.083 205.546 245.195L202.95 240.016C205.059 238.993 207.083 238.378 209.297 237.628Z"/><path fill="#FEFEFE" d="M210.688 252.518C213.907 252.386 218.559 252.1 218.806 256.243C217.945 258.25 217.615 258.402 215.969 259.947C209.325 261.702 205.079 256.675 210.688 252.518Z"/><path fill="#130970" d="M175.034 230.751L199.224 230.68C199.249 232.679 199.138 234.979 199.092 237.004C193.377 237.161 187.336 237.111 181.594 237.151L181.603 245.249C185.508 245.357 194.581 244.477 197.618 245.952L198.068 247.802C198.009 249.179 198.139 249.687 197.426 250.843C194.366 252.423 185.901 251.677 181.839 251.677L181.906 264.437L174.201 264.405C174.177 257.868 173.63 237.143 174.277 231.321L175.034 230.751Z"/><path fill="#130970" d="M328.22 237.076C342.489 237.084 339.539 254.499 339.36 264.448L332.475 264.445C332.365 256.588 335.696 239.611 322.628 244.427C319.724 247.938 320.774 259.327 320.805 264.485L314.227 264.464C314.502 255.57 314.344 246.915 314.219 238.028C315.94 237.966 319.542 237.617 320.704 238.541L320.821 241.528C324.039 239.47 324.216 238.287 328.22 237.076Z"/><path fill="#0B44F6" d="M402.285 238.011C412.393 237.718 415.208 243.551 416.342 252.461C409.471 252.115 400.581 252.364 393.559 252.362C394.883 260.634 398.128 263.927 406.613 263.757C409.905 262.737 413.374 260.322 416.341 258.442C400.261 280.647 379.043 246.506 402.285 238.011Z"/><path fill="#FEFEFE" d="M401.58 239.546C410.388 238.914 413.133 242.911 414.699 250.814L407.254 250.699C402.463 250.757 398.274 250.771 393.466 250.553C395.206 244.651 395.927 242.618 401.58 239.546Z"/><path fill="#130970" d="M232.94 228.137L239.968 228.103L239.955 264.418L232.896 264.413C232.788 252.321 232.803 240.229 232.94 228.137Z"/><path fill="#0B44F6" d="M440.177 237.799C441.875 239.022 448.871 259.428 450.102 262.741C451.689 258.672 457.643 240.755 459.541 238.518C459.442 243.976 452.393 260.818 449.914 266.369C447.538 261.374 442.841 247.898 440.502 241.916C438.066 246.142 433.433 260.802 430.854 266.759C429.157 261.886 420.786 241.757 420.714 238.74C422.892 240.303 429.294 258.528 430.919 262.698C434.139 254.503 436.911 246.016 440.177 237.799Z"/><path fill="#0B44F6" d="M359.255 263.681C361.448 258.534 371.453 232.999 373.688 230.66L374.61 230.72L374.646 231.675C372.234 237.003 362.235 262.807 359.18 264.795C356.326 262.576 346.412 237.45 343.86 232.634C343.536 232.024 343.714 231.042 343.895 230.385L345.03 230.874C346.539 232.523 357.74 259.801 359.255 263.681Z"/><path fill="#0B44F6" d="M241.415 283.39C244.262 283.378 247.316 283.051 249.649 284.659C250.127 287.06 248.958 286.365 248.309 289.592C248.809 290.562 249.099 291.107 249.717 291.988L250.211 292.686L249.675 293.676C247.274 292.791 246.667 291.279 244.642 289.68C243.748 291.268 243.382 291.882 242.275 293.316L241.738 293.176C241.288 291.393 241.419 285.562 241.415 283.39Z"/><path fill="#0B44F6" d="M438.167 283.508C440.865 283.507 444.216 283.281 446.339 285.033C446.769 287.215 444.921 288.372 445.041 290.769C445.118 292.292 446.017 290.44 446.212 292.938L444.808 293.758C443.838 292.308 443.111 290.781 441.696 290.017C441.048 291.121 440.418 292.234 439.805 293.356L438.954 293.451C437.641 291.563 438.137 286.225 438.167 283.508Z"/><path fill="#0B44F6" d="M402.333 283.451C404.938 283.402 407.886 283.227 410.175 284.556C410.882 286.546 408.933 287.375 409.054 290.562C410.048 291.586 409.78 291.167 410.395 292.444L409.616 293.855C408.106 292.779 407.469 291.339 405.369 289.711L404.648 290.1C404.569 291.653 404.754 291.765 404.046 293.04L403.015 293.104C401.874 291.706 402.332 285.815 402.333 283.451Z"/><path fill="#0B44F6" d="M291.296 283.334C293.741 283.331 297.248 282.951 298.981 284.881C299.03 287.562 297.006 287.934 297.374 290.375C298.379 291.346 298.897 291.632 299.309 292.944L298.634 293.882C296.725 293.118 295.803 291.487 294.201 290.088C292.566 290.838 294.427 291.092 292.829 293.354L291.808 293.368C290.972 291.946 291.298 285.509 291.296 283.334Z"/><path fill="#0B44F6" d="M373.877 283.107C376.756 283.791 376.748 284.483 378.697 286.985C379.983 285.385 381.302 283.432 383.213 283.186C384.105 284.725 384.247 291.838 382.37 293.288L381.639 292.745L381.684 291.113C381.619 289.565 381.907 288.245 381.084 287.471C380.167 288.864 380.1 289.102 378.82 290.229C376.826 289.601 378.039 289.029 376.354 287.86L376.545 287.685C375.861 290.086 375.65 290.893 374.577 293.105L374.127 292.973C373.643 289.68 373.818 286.436 373.877 283.107Z"/><path fill="#0B44F6" d="M265.611 283.07C266.802 283.313 266.48 283.233 267.587 283.771C267.809 284.583 267.984 285.26 268.164 286.088L268.311 286.784L269.32 287.174C271.414 286.739 272.362 285.147 273.809 283.621L274.251 284.115C274.606 286.978 274.901 291.154 273.799 293.839L272.56 292.686C272.331 291.282 272.115 290.478 271.754 289.119L270.616 288.828C268.798 289.38 267.513 291.402 266.299 292.95L265.838 292.659C265.507 289.511 265.602 286.243 265.611 283.07Z"/><path fill="#0B44F6" d="M321.551 283.242C323.302 284.734 326.655 290.343 326.321 292.65C324.481 292.598 324.572 292.034 322.712 290.36C320.397 291.081 318.593 293.198 316.787 293.049C316.9 290.86 320.246 285.191 321.551 283.242Z"/><path fill="#0B44F6" d="M279.234 283.423C281.953 283.376 283.904 283.123 286.313 284.352C285.454 285.142 283.433 284.941 281.468 285.598L281.557 286.298C283.992 288.035 284.25 286.787 286.411 288.044C284.159 289.428 284.039 288.683 281.682 289.455L280.884 289.723L281.875 291.028C283.438 291.211 286.122 291.406 286.885 292.908C284.215 293.341 281.951 293.283 279.26 293.312L279.234 283.423Z"/><path fill="#0B44F6" d="M197.612 283.487C200.733 283.422 202.079 283.091 204.752 284.529L204.535 285.002C202.847 285.166 201.16 285.345 199.474 285.537L199.582 286.002C201.219 286.832 202.864 287.644 204.518 288.438C203.282 289.149 200.893 289.053 199.298 289.149C199.562 290.448 199.278 289.889 200.106 290.846C201.592 291.038 204.32 291.422 205.154 292.712C202.484 293.292 200.297 293.172 197.576 293.181L197.612 283.487Z"/><path fill="#0B44F6" d="M426.385 283.473C428.545 283.447 431.107 283.27 433.16 283.755L433.434 284.512C431.71 286.237 431.085 284.301 428.606 285.659L428.706 286.271C430.398 286.917 431.757 287.338 433.282 288.333C432.022 289.155 430.239 289.029 428.646 289.118C428.277 292.256 431.386 290.692 433.861 292.742C430.98 293.455 429.36 293.327 426.419 293.342L426.385 283.473Z"/><path fill="#0B44F6" d="M382.508 237.271C384.024 239.615 383.928 262.243 382.738 265.189C380.709 262.904 381.292 240.714 382.508 237.271Z"/><path fill="#0B44F6" d="M185.845 283.51C187.751 283.485 191.204 283.459 192.97 283.96C192.17 284.983 189.342 285.883 187.897 286.491C189.512 287.089 190.755 287.665 192.319 288.393L192.416 288.932C191.327 289.22 188.783 289.361 187.535 289.467C187.892 290.409 187.822 290.215 188.384 291.058C189.762 291.288 192.391 291.668 193.162 292.73C190.504 293.257 188.421 293.16 185.729 293.172L185.845 283.51Z"/><path fill="#0B44F6" d="M228.508 283.051L229.844 283.503C231.248 285.784 229.696 289.018 231.796 291.362C233.305 291.624 232.537 291.6 234.2 290.868C235.181 288.879 234.322 286.755 235.019 283.816L235.725 283.513L236.64 284.059C236.842 287.955 237.485 292.093 233 293.746C227.396 292.843 228.229 287.279 228.508 283.051Z"/><path fill="#0B44F6" d="M362.813 283.482C364.752 283.335 366.511 283.249 368.173 284.245L368.379 285.155C366.964 285.257 365.549 285.372 364.136 285.498L364.059 286.081C366.338 287.49 368.892 288.365 369.103 291.152C368.189 292.9 367.886 292.948 366.201 293.898C364.49 293.482 362.649 293.19 361.654 292L361.837 290.863L362.723 290.543C363.987 291.287 364.139 291.428 365.518 291.857L366.557 291.128C365.969 289.203 364.084 289.208 361.996 286.746C361.714 284.9 361.794 285.491 362.813 283.482Z"/><path fill="#0B44F6" d="M175.119 283.479C177.846 283.444 179.914 282.641 180.734 285.33C179.276 286.392 178.535 284.461 176.477 285.766L176.987 286.535C179.351 287.507 180.673 287.714 181.457 290.23C181.123 291.99 180.649 292.254 179.401 293.529C177.421 293.537 175.845 293.347 174.402 291.947L174.478 291.052C175.989 291.099 177.501 291.117 179.014 291.108L179.421 290.57C177.519 288.081 175.94 289.385 174.412 287.176C174.156 285.591 174.551 284.979 175.119 283.479Z"/><path fill="#0B44F6" d="M216.879 283.471C219.766 283.445 221.978 283.327 224.847 283.805L225.028 284.504C223.024 285.719 221.476 284.413 219.157 285.591L219.054 286.722C220.206 287.878 221.868 287.471 223.944 287.505C224.091 288.043 224.036 288.405 224.04 288.986L223.269 289.488C221.613 289.397 221.249 289.304 219.597 289.616C218.925 291.101 218.765 291.312 217.877 292.601L217.312 292.436C216.659 289.389 216.851 286.593 216.879 283.471Z"/><path fill="#0B44F6" d="M333.936 283.467C336.304 283.492 336.188 283.46 338.359 284.394L338.572 285.005C337.877 285.208 337.184 285.415 336.492 285.627C334.223 286.32 332.507 286.56 331.431 288.575C332.696 291.876 335.494 291.681 338.291 291.02L338.515 290.879L338.956 291.173C335.343 298.149 324.289 288.793 333.936 283.467Z"/><path fill="#0B44F6" d="M343.013 283.721L350.108 283.502C351.025 284.451 348.022 286.583 347.981 287.697C347.949 288.592 348.012 290.686 348.022 291.625C347.825 293.126 348.156 292.497 346.86 293.497C344.305 292.344 346.953 288.504 345.469 285.592C344.372 285.413 344.291 285.419 343.274 284.993L343.013 283.721Z"/><path fill="#0B44F6" d="M413.323 283.705C415.476 283.379 419.776 283.218 421.845 283.795C421.307 284.316 420.775 284.843 420.25 285.377C418.393 287.297 418.94 287.695 418.984 290.625C418.893 292.724 419.318 291.993 418.279 293.334C417.046 292.171 416.976 289.347 416.896 287.635C416.7 283.435 416.257 287.333 413.323 283.705Z"/><path fill="#0B44F6" d="M253.454 283.732C255.679 283.339 259.399 283.288 261.615 283.723L261.471 284.362L258.591 285.767C258.362 287.051 258.505 290.172 258.526 291.625C258.463 292.836 258.664 292.293 257.92 293.254L256.987 293.075C255.897 290.69 257.071 287.357 256.159 285.522C254.945 283.081 255.76 287.707 253.454 283.732Z"/><path fill="#FEFEFE" d="M576.049 1024C545.214 1016.95 522.747 998.563 514.243 967.313C511.824 958.426 511.883 950.844 511.83 941.753L511.842 699.026L511.79 622.203C511.824 588.62 508.571 559.822 534.631 533.753C545.765 522.655 560.066 515.284 575.564 512.655C586.527 510.905 610.658 511.803 623.235 511.809L714.901 511.838L1024 511.573L1024 1024L576.049 1024Z"/><path fill="#130970" d="M718.505 647.697C721.998 647.26 730.113 647.447 733.977 647.447L763.237 647.461L800.893 647.407C810.67 647.382 822.773 646.87 832.12 648.686C842.839 650.754 852.941 655.253 861.648 661.838C875.857 672.687 887.021 690.077 889.313 707.94C890.283 715.505 890.017 723.459 889.977 731.1L889.861 761.165L889.862 800.014C889.855 822.857 890.419 840.62 874.92 859.761C861.764 876.009 846.355 884.509 825.625 886.988C812.957 888.108 789.48 887.29 775.649 887.287L741.834 887.298C731.415 887.319 721.257 887.775 710.896 885.897C681.289 880.946 656.286 854.35 653.47 824.429C652.156 810.459 652.982 793.138 652.944 778.675L652.892 736.057C652.92 726.151 652.575 712.727 654.565 703.309C656.96 692.427 661.887 682.262 668.945 673.639C681.577 658.063 698.788 649.8 718.505 647.697Z"/><path fill="#FEFEFE" d="M722.835 657.222C745.195 656.994 767.682 657.135 789.988 657.235C815.474 657.635 837.824 653.861 858.774 672.007C881.722 691.883 880.461 716.706 879.981 744.274C879.885 749.782 880.002 755.608 880.013 761.12L880.007 799.51C879.971 808.491 880.242 820.905 878.418 829.452C876.391 839.1 871.935 848.07 865.471 855.513C853.225 869.672 838.912 876.088 820.517 877.341C793.02 877.92 765.26 877.136 737.748 877.505C728.831 877.625 719.201 877.776 710.51 875.782C700.501 873.507 691.233 868.727 683.576 861.891C671.313 850.884 663.438 834.657 663.136 818.289C662.802 800.114 663.008 781.356 663.04 763.148L663.071 733.767C663.072 724.379 662.691 713.301 664.746 704.268C667.047 694.356 671.824 685.189 678.63 677.623C690.45 664.521 705.447 658.19 722.835 657.222Z"/><path fill="#130970" d="M768.783 699.191C770.492 698.897 776.405 698.714 778.271 698.822C806.83 700.472 821.277 713.008 839.473 732.251C862.837 737.423 873.34 752.492 871.269 776.953C870.943 780.807 870.436 784.438 869.114 788.113C867.941 784.641 866.591 780.678 864.385 777.832C854.383 764.872 832.536 766.463 820.627 775.766C811.537 782.923 808.239 793.804 809.079 804.984C810.042 817.794 814.415 825.945 822.182 835.837C804.159 823.859 796.304 808.458 777.948 794.417C745.113 771.866 715.026 779.679 689.952 809.119C684.454 815.574 680.518 822.413 676.144 829.614C676.225 794.631 686.225 771.832 710.823 746.878C703.601 748.846 696.996 750.773 689.998 753.419C692.008 749.289 696.253 742.899 699.201 739.387C718.899 715.928 738.356 702.723 768.783 699.191Z"/><path fill="#FEFEFE" d="M769.754 708.193C771.688 707.932 776.992 707.809 778.945 708.02C801.204 710.415 814.239 718.357 828.61 734.405C825.662 741.615 823.215 744.115 817.738 749.523C824.277 747.944 830.814 745.117 836.228 741.097C850.748 743.704 856.703 749.043 860.584 763.273C830.092 750.582 799.389 768.267 798.906 802.367C792.412 792.87 780.794 784.816 770.736 779.548C742.526 764.299 711.826 772.973 690.775 795.684C691.032 794.74 691.315 793.803 691.623 792.874C697.946 773.917 714.016 754.621 731.076 744.337C737.44 740.501 743.157 738.518 749.646 735.321C739.457 732.707 726.5 732.654 716.203 734.65C730.881 719.721 748.935 710.445 769.754 708.193Z"/><path fill="#130970" d="M795.494 718.793C807.125 717.874 817.324 726.499 818.348 738.121C819.373 749.743 810.84 760.02 799.227 761.149C787.466 762.293 777.028 753.627 775.99 741.855C774.953 730.083 783.713 719.724 795.494 718.793Z"/><path fill="#0B44F6" d="M794.027 730.275C799.436 728.585 805.19 731.6 806.879 737.009C808.569 742.417 805.554 748.171 800.145 749.861C794.737 751.55 788.983 748.535 787.294 743.127C785.604 737.719 788.619 731.965 794.027 730.275Z"/><path fill="#FEFEFE" d="M203.43 649.218C225.102 648.83 247.03 649.023 268.718 649.179C298.435 649.394 324.545 645.207 348.7 666.487C363.076 678.998 371.801 696.778 372.902 715.804C373.722 730.207 372.997 751.406 373.002 766.265L373.032 799.779C373.046 827.016 373.59 843.377 353.917 865.001C341.46 878.832 323.939 887.04 305.339 887.758C284.918 888.258 263.862 887.957 243.356 887.908C226.163 887.867 206.251 888.996 189.513 885.851C161.152 880.521 136.777 851.555 135.483 822.817C134.859 802.946 135.332 782.465 135.362 762.578L135.364 733.21C135.35 723.618 134.83 713.357 136.977 704.039C139.682 692.482 145.258 681.794 153.19 672.965C166.043 658.59 184.164 650.025 203.43 649.218Z"/><path fill="#130970" d="M225.434 658.753L275.099 658.643C287.696 658.67 306.093 657.985 317.733 661.034C328.25 663.798 337.862 669.265 345.613 676.892C358.235 689.258 363.448 705.042 363.524 722.489L363.481 782.393C363.511 797.223 364.517 816.516 361.896 830.634C360.132 840.129 353.194 852.819 346.094 859.547C325.245 879.302 308.985 878.349 283.174 878.235L234.136 878.186C221.709 878.17 202.354 878.969 190.931 876.024C180.403 873.229 170.768 867.782 162.944 860.203C148.249 845.804 144.898 828.488 144.822 808.872L144.823 753.991C144.804 740.975 143.888 716.866 146.808 705.37C149.493 694.653 155.076 684.882 162.947 677.128C182.216 657.907 200.836 658.766 225.434 658.753Z"/><path fill="#FEFEFE" d="M252.269 700.703C258.219 699.93 267.801 700.874 273.645 702.149C287.293 705.052 299.75 711.997 309.394 722.08C311.228 723.978 318.055 731.667 319.766 732.443C331.339 737.69 338.222 736.115 345.97 748.511C354.826 762.68 353.697 775.506 350.097 791.31C349.6 787.565 349.026 783.704 346.738 780.701C332.786 762.387 298.922 769.258 292.548 791.222C287.601 808.265 294.342 823.596 303.428 837.09C290.924 829.237 283.898 818.872 274.201 808.298C269.725 803.418 264.198 799.038 258.813 795.206C216.978 766.622 180.307 792.567 158.365 831.136C158.612 795.246 169.825 774.039 194.027 748.883C185.99 750.521 180.293 752.554 172.777 755.656C176.207 749.263 180.257 743.222 184.867 737.62C202.482 716.148 224.666 703.39 252.269 700.703Z"/><path fill="#130970" d="M252.406 709.7C274.05 708.304 297.606 717.112 310.017 735.589C307.842 740.948 305.508 744.492 302.266 749.252C308.438 746.835 312.751 744.731 318.526 741.691C333.599 747.148 337.862 748.337 342.435 764.77C318.519 756.65 296.261 761.271 284.796 785.873C281.899 792.09 281.459 797.488 281.272 804.267C270.724 792.924 265.438 787.442 251.567 780.527C222.861 766.536 194.791 775.574 172.792 796.868C173.886 793.987 175.049 791.133 176.278 788.308C186.705 764.619 207.851 746.292 231.784 736.952C220.241 734.837 210.545 734.099 198.779 735.928C216.137 720.44 228.586 712.117 252.406 709.7Z"/><path fill="#0B44F6" d="M275.224 721.683C286.043 720.748 295.611 728.665 296.717 739.467C297.823 750.27 290.058 759.961 279.275 761.238C272.146 762.082 265.116 759.018 260.882 753.222C256.647 747.425 255.866 739.796 258.838 733.261C261.809 726.727 268.073 722.302 275.224 721.683Z"/><path fill="#130970" d="M274.815 732.912C279.657 731.941 284.366 735.09 285.32 739.935C286.274 744.781 283.109 749.479 278.26 750.416C273.435 751.349 268.764 748.203 267.815 743.381C266.866 738.559 269.996 733.877 274.815 732.912Z"/><path fill="#FEFEFE" d="M609.282 219.646C627.235 217.698 640.522 224.275 651.951 237.73C669.668 241.038 670.533 252.942 669.064 267.901C667.297 262.159 664.655 258.534 658.346 257.182C648.16 255 636.419 259.409 634.285 270.594C632.477 280.075 636.119 287.11 640.979 294.805C632.85 288.112 626.508 280.444 618.683 273.999C593.433 254.775 573.055 267.671 558.227 291.488C560.074 270.929 565.102 261.56 578.257 246.694C574.587 247.424 571.282 248.231 567.651 249.152C575.995 234.42 592.49 222.407 609.282 219.646Z"/><path fill="#130970" d="M611.336 224.169C626.255 222.815 636.837 227.57 645.834 239.423C643.798 242.963 642.808 244.607 640.289 247.774C643.948 245.931 647.638 244.157 651.553 242.952C658.844 244.576 661.503 247.076 663.935 253.952C644.999 249.259 630.094 254.476 628.384 276.227C624.356 272.135 620.297 269.304 615.556 266.12C597.093 255.461 584.167 258.477 567.764 271.173C574.059 254.322 584.767 247.254 599.556 238.496L582.844 238.451C592.723 230.325 598.482 225.957 611.336 224.169Z"/><path fill="#0B44F6" d="M621.119 232.29C626.563 230.689 632.283 233.753 633.966 239.171C635.649 244.589 632.673 250.356 627.281 252.122C623.72 253.288 619.805 252.445 617.04 249.916C614.274 247.386 613.086 243.563 613.931 239.911C614.776 236.26 617.524 233.347 621.119 232.29Z"/><path fill="#130970" d="M622.299 237.568C624.076 237.035 626.002 237.519 627.316 238.829C628.63 240.139 629.119 242.064 628.591 243.843C628.063 245.622 626.602 246.967 624.786 247.348C622.138 247.902 619.523 246.272 618.856 243.65C618.189 241.028 619.707 238.346 622.299 237.568Z"/><path fill="#FEFEFE" d="M768.597 238.127C776.34 237.596 774.883 240.316 779.361 241.014L779.789 238.697C781.541 238.174 784.559 238.379 786.497 238.407L786.429 273.447C785.537 273.485 784.646 273.519 783.754 273.546C782.022 273.614 781.362 273.844 779.816 273.027L779.534 271.625L779.503 262.223C758.591 274.242 750.209 243.887 768.597 238.127Z"/><path fill="#130970" d="M770.559 243.521C774.564 243.224 777.658 244.095 779.462 248.089C780.404 250.217 780.425 252.64 779.519 254.783C778.434 257.42 776.938 258.1 774.459 259.184C773.017 259.265 772.107 259.288 770.672 258.944C768.749 258.475 767.095 257.252 766.085 255.55C763.233 250.705 766.246 246.057 770.559 243.521Z"/><path fill="#FEFEFE" d="M804.731 238.14C815.788 238.016 820.082 243.341 820.748 254.004C816.713 254.073 803.625 253.359 800.887 254.518L800.941 255.58C804.213 260.923 809.298 260.966 814.176 257.536C815.847 258.354 817.568 259.528 819.151 260.54C799.039 278.272 781.012 243.99 804.731 238.14Z"/><path fill="#130970" d="M806.039 243.077C808.929 243.404 813.02 244.735 812.22 248.379C810.481 249.573 810.588 249.154 808.029 249.198C805.043 249.274 803.35 249.732 801.141 247.882C800.313 245.017 803.72 243.765 806.039 243.077Z"/><path fill="#FEFEFE" d="M723.402 238.163C740.98 238.23 737.362 250.831 737.227 264.171C733.886 264.559 731.319 263.543 729.569 263.778C722.595 264.717 721.253 267.551 714.746 262.268C713.095 259.849 711.56 254.37 714.079 252.106C718.54 248.096 724.547 248.841 729.976 249.028C730.515 247.944 730.443 248.53 730.358 247.225C729.991 241.59 721.182 243.943 717.48 244.426C716.264 243.698 716.016 242.175 715.389 240.586C718.926 239.126 719.645 238.754 723.402 238.163Z"/><path fill="#130970" d="M721.622 252.558C725.497 252.545 726.768 252.177 730.001 254.236C731.843 257.268 729.861 258.593 727.442 260.359C720.927 261.544 716.664 258.002 721.622 252.558Z"/><path fill="#FEFEFE" d="M685.291 230.509L710.495 230.49L710.295 236.542L692.408 236.587L692.369 245.489C696.363 245.487 704.637 245.208 708.185 245.698L708.663 246.453C708.625 248.022 708.808 250.126 707.954 251.29C704.305 251.795 696.422 251.528 692.436 251.497L692.414 264.96L685.256 264.932L685.291 230.509Z"/><path fill="#FEFEFE" d="M839.027 238.072C855.304 236.933 851.608 253.234 851.511 264.779L845.199 264.684C845.215 256.704 848.399 241.822 836.46 243.748C836.051 244.093 835.658 244.459 835.283 244.842C832.074 248.071 833.235 259.574 833.231 264.733L826.623 264.769L826.616 238.584C828.974 238.516 832.412 238.011 833.701 240.377L833.402 241.114C834.625 240.865 837.563 238.86 839.027 238.072Z"/><path fill="#FEFEFE" d="M915.431 238.086C918.666 238.241 922.25 239.022 924.283 241.795C937.732 260.142 910.489 249.378 905.691 253.464C904.943 257.443 908.701 262.206 912.428 263.28C915.727 264.231 917.251 264.117 920.573 263.477C921.454 262.953 922.337 262.433 923.223 261.918C924.515 261.156 924.646 260.868 926.166 260.933L925.391 261.192L925.478 261.916C904.612 276.544 893.511 242.1 915.431 238.086Z"/><path fill="#130970" d="M915.439 239.564C920.467 239.469 925.419 243.733 926.635 248.419C926.32 250.105 926.65 249.336 925.453 250.736C923.604 251.477 919.787 251.291 917.625 251.312C913.307 251.404 908.988 251.375 904.673 251.224C906.978 244.387 908.029 241.465 915.439 239.564Z"/><path fill="#FEFEFE" d="M744.969 227.629L751.915 227.626L751.964 264.652L744.956 264.6C744.862 252.276 744.867 239.952 744.969 227.629Z"/><path fill="#FEFEFE" d="M932.764 237.837C935.246 239.631 940.275 257.229 943.62 262.564C946.114 254.924 949.549 244.895 952.531 237.496C956.037 244.958 957.608 253.312 962.148 262.407C964.279 256.766 968.703 242.98 971.612 238.942L972.316 239.125L972.008 240.135C969.114 248.096 965.577 258.223 961.976 265.74C959.101 260.293 954.56 247.146 952.426 241.168C950.293 248.248 946.223 259.114 943.449 265.967C940.889 261.314 933.111 242.578 932.764 237.837Z"/><path fill="#FEFEFE" d="M885.279 229.154L886.293 229.754C881.826 240.809 875.155 255.509 870.159 266.424C864.917 255.032 860.023 244.252 855.381 232.612L854.815 230.806L855.259 230.461C857.648 232.7 867.86 258.045 870.074 263.047C874.937 252.764 879.783 238.833 885.279 229.154Z"/><path fill="#0B44F6" d="M949.494 283.357C952.283 283.374 955.787 282.69 957.159 285.228C957.178 287.473 957.153 287.58 956.431 289.756L956.254 290.27C956.593 290.935 956.943 291.594 957.306 292.246L956.648 293.422C954.84 292.061 954.298 291.516 952.712 289.871C950.917 290.348 952.847 291.478 950.754 293.106L950.064 292.888C949.207 291.154 949.488 285.586 949.494 283.357Z"/><path fill="#0B44F6" d="M884.556 283.15C887.681 283.535 887.388 284.029 889.572 286.45L890.205 286.385C891.723 284.173 891.851 282.911 894.486 283.534C895.541 285.432 895.116 291.232 894.007 293.12L893.178 292.99C892.078 291.347 892.43 291.197 892.246 288.903L892.439 288.276C892.319 287.923 892.199 287.57 892.078 287.217L889.781 289.81C888.202 289.848 888.682 287.766 886.934 287.244C886.664 289.025 886.509 290.838 886.332 292.633L885.737 293.068C884.062 289.742 884.431 286.817 884.556 283.15Z"/><path fill="#0861FE" d="M751.682 283.373C754.067 283.39 757.201 283.303 759.37 284.196C759.919 285.764 759.039 287.944 758.481 289.775L758.282 290.42C759.338 291.725 759.154 291.166 759.514 292.658L758.34 293.242C757.137 291.948 756.049 290.5 754.548 289.74C754.04 291.024 753.666 291.833 753.069 293.052L752.242 293.003C751.271 291.446 751.654 285.592 751.682 283.373Z"/><path fill="#0B44F6" d="M801.482 283.364C804.406 283.326 805.762 283.231 808.506 284.138C809.87 285.99 807.961 287.963 807.954 289.92C807.951 290.59 809.179 290.67 809.054 293.225C807.218 292.433 806.005 291.307 804.475 290.037L802.554 292.867L801.859 292.981C801.344 291.115 801.487 285.567 801.482 283.364Z"/><path fill="#0B44F6" d="M913.473 283.338C916.109 283.34 918.773 283.159 920.954 284.742C921.312 287.422 919.28 288.16 919.431 290.324C919.481 291.052 920.732 290.772 920.605 293.33C919.161 292.652 917.701 291.168 916.471 290.057C915.657 291.443 915.322 292.263 914.037 293.248L913.667 292.904C913.404 291.618 913.48 285.057 913.473 283.338Z"/><path fill="#0B44F6" d="M831.903 283.186C834.04 283.936 837.718 290.535 837.058 292.734C835.28 292.386 835.748 292.37 834.212 290.778C830.717 290.736 829.775 292.686 827.575 292.45C827.219 290.554 830.775 285.165 831.903 283.186Z"/><path fill="#0B44F6" d="M903.181 283.131C906.006 284.115 909.006 289.927 908.341 292.621C906.811 292.503 906.913 292.102 905.474 290.76C902.171 290.912 901.912 292.343 899.635 292.464C899.14 290.934 902.319 284.984 903.181 283.131Z"/><path fill="#0861FE" d="M695.496 283.401C697.804 283.372 700.601 283.092 702.651 283.912L702.956 284.695C700.508 286.425 699.375 284.445 697.544 285.989C699.221 287.747 701.313 286.436 702.527 288.118C701.192 289.38 700.845 289.05 698.641 289.448C697.83 289.608 698.223 289.429 697.514 290.091C698.367 291.112 700.176 290.642 702.635 291.883L702.691 292.611C700.728 293.17 697.646 293.032 695.511 293.045L695.496 283.401Z"/><path fill="#0861FE" d="M775.996 283.061C776.427 283.237 777.03 283.62 777.453 283.865L778.183 286.715L779.114 287.161C781.343 286.614 781.968 284.972 783.955 283.738C784.784 285.229 784.36 291.418 784.051 293.338C782.906 292.931 783.276 293.141 782.377 292.365C782.173 290.952 782.178 290.417 781.619 289.098L780.376 288.867C778.656 289.535 778.248 290.385 777.1 291.862L776.651 292.449L776.181 292.146C775.803 288.533 775.863 286.711 775.996 283.061Z"/><path fill="#0861FE" d="M738.536 283.068L740.006 283.604C740.888 285.023 740.532 287.921 740.911 290.273C742.002 291.46 741.327 291.086 743.101 291.242C745.841 289.505 744.467 287.45 745.334 283.766L746.203 283.471L747.136 284.078C747.274 288.059 747.663 291.916 742.926 293.136C737.38 292.619 738.24 286.925 738.536 283.068Z"/><path fill="#0B44F6" d="M937.658 283.461C940.447 283.446 941.868 283.154 944.447 284.161C943.56 285.593 941.956 284.488 940.091 285.907C941.665 286.771 942.355 286.858 943.264 288.222C941.659 289.378 941.623 289.025 939.341 289.287C941.317 291.482 943.274 290.263 944.763 292.155C942.681 292.836 940.105 292.762 937.864 292.845L937.658 283.461Z"/><path fill="#0B44F6" d="M874.689 283.411C876.804 283.496 879.163 282.971 879.625 285.262C877.91 286.351 877.267 284.677 875.438 285.746C876.737 288.15 880.94 287.364 880.73 290.778C879.294 292.396 878.817 292.408 876.701 293.195C874.801 292.629 873.841 292.484 872.879 290.794C875.401 290.076 876.066 291.336 877.901 290.255C877.145 287.978 874.928 289.436 873.043 286.614C873.088 285.051 873.676 284.629 874.689 283.411Z"/><path fill="#0B44F6" d="M685.417 283.49C687.414 283.238 689.103 283.234 690.831 284.307L690.735 285.262C688.972 285.355 688.262 285.415 686.534 285.714C686.383 287.827 689.902 287.191 691.238 290.052C690.683 291.803 690.117 292.024 688.661 293.144C686.741 292.857 685.633 292.776 684.167 291.512L684.158 290.593C685.622 290.55 686.954 290.576 688.411 290.608L688.626 290.087C686.996 288.581 684.895 288.635 683.896 286.905C683.963 285.108 684.309 284.891 685.417 283.49Z"/><path fill="#0861FE" d="M707.469 283.347C710.861 283.333 711.794 283.043 714.761 284.5C714.062 286.059 712.355 283.978 710.077 286.14C711.1 286.787 713.408 287.379 714.686 287.771L714.776 288.267C713.506 289.104 711.857 289.153 710.296 289.379L709.594 290.443C709.025 291.861 709.076 292.17 707.8 292.988C707.378 290.501 707.483 286.052 707.469 283.347Z"/><path fill="#0861FE" d="M726.756 283.412C728.839 283.43 732.58 283.299 734.436 283.839L734.292 284.366C732.399 284.971 730.936 285.29 728.988 285.719L729.007 286.413C730.532 287.677 732.017 287.54 734.262 288C733.086 289.582 732.018 289.1 730.21 289.019C727.606 290.404 730.117 291.264 728.044 293.228L727.175 292.816C726.547 291.143 726.752 285.551 726.756 283.412Z"/><path fill="#0861FE" d="M843.929 283.447C846.64 283.321 847.21 283.044 849.154 284.645L849.137 285.257C846.759 285.373 845.02 285.013 843.679 287.077C843.638 288.678 843.729 288.603 844.48 290.056C845.901 291.136 846.549 291.037 848.32 291.211L848.717 290.866L849.369 290.993C848.972 292.512 849.373 291.839 847.807 292.862C841.066 293.406 839.568 287.807 843.929 283.447Z"/><path fill="#FEFEFE" d="M893.485 238.303C895.297 239.854 894.67 261.868 894.277 265.349C892.441 262.773 892.808 242.168 893.485 238.303Z"/><path fill="#0B44F6" d="M789.355 283.425C792.109 283.411 793.693 283.47 796.455 283.734L796.638 284.217C794.851 284.893 793.259 285.424 791.437 285.999C793.019 286.569 794.352 287.124 795.899 287.786L796.076 288.38C795.015 288.885 793.564 288.88 792.191 289.222L791.411 289.421C791.127 291.176 791.2 291.836 789.949 293.089C789.047 290.126 789.33 286.591 789.355 283.425Z"/><path fill="#0861FE" d="M927.715 285.501C925.81 284.886 926.257 285.415 925.248 284.199C926.997 283.23 932.104 283.328 933.665 284.356L933.708 284.67L932.473 284.499L931.863 285.266L930.308 285.186C930.326 287.165 930.599 291.605 929.497 292.908L928.587 292.651C927.48 290.518 928.433 288.028 927.715 285.501Z"/><path fill="#0861FE" d="M763.014 283.729C765.681 283.447 768.369 283.438 771.038 283.703L771.077 284.239C770.673 284.611 770.274 284.988 769.879 285.369C768.091 287.127 768.6 287.31 768.555 290.124C768.586 291.942 768.908 291.872 768.015 292.944L767.134 292.797C765.864 290.637 767.242 288.466 766.216 285.425C764.531 285.028 764.108 285.076 763.014 283.729Z"/><path fill="#0861FE" d="M853.575 283.738C856.045 283.566 858.389 283.671 860.861 283.73L861.122 284.141C860.705 284.526 860.293 284.917 859.885 285.312C858.021 287.144 858.544 287.205 858.51 290.124C858.638 291.519 858.659 291.436 858.279 292.778L857.338 292.796C856.242 290.743 857.424 287.477 856.24 285.439C854.786 284.947 854.555 284.918 853.575 283.738Z"/><path fill="#0B44F6" d="M789.949 293.089C791.2 291.836 791.127 291.176 791.411 289.421C793.168 291.505 796.389 291.116 799.842 292.15C795.996 292.891 793.896 292.946 789.949 293.089Z"/><path fill="#0B44F6" d="M709.594 290.443C712.113 291.114 712.666 290.669 714.85 292.267L714.937 292.465L713.546 292.776L714.668 292.268L714.419 292.151L714 292.808C711.7 292.987 710.109 293.023 707.8 292.988C709.076 292.17 709.025 291.861 709.594 290.443Z"/></svg>