<?xml version="1.0" encoding="utf-8" ?><svg xmlns="http://www.w3.org/2000/svg" xmlns:xlink="http://www.w3.org/1999/xlink" width="1024" height="1024" viewBox="0 0 1024 1024"><path fill="#52B788" d="M512.457 350.157L512.968 349.637C524.134 338.323 537.186 331.561 553.29 331.516C568.203 331.332 582.574 337.099 593.222 347.541C603.685 357.847 609.547 371.938 609.481 386.624C609.175 414.364 591.297 428.206 573.722 445.239L545.81 472.448C540.254 477.936 518.902 501.279 512.566 501.934C509.917 502.208 507.128 500.157 505.228 498.541C502.247 496.006 499.578 492.898 496.771 490.157L478.635 472.622L448.662 443.425C432.82 427.892 417.706 414.446 415.585 390.684C412.884 360.414 437.371 333.871 467.18 331.732C468.204 331.69 469.229 331.674 470.254 331.684C488.901 331.833 499.602 337.013 512.457 350.157ZM511.713 483.405C515.063 480.831 518.314 477.797 521.354 474.847C530.075 466.379 539.027 458.078 547.683 449.548L567.991 430.038C580.54 417.939 593.728 406.593 594.161 387.674C594.305 377.065 590.26 366.827 582.904 359.181C575.165 351.275 564.574 346.807 553.51 346.783C543.315 346.671 534.208 350.315 526.926 357.457C523.379 360.935 517.493 371.17 512.293 370.868C504.493 370.414 498.974 345.818 467.859 346.691C429.231 351.483 418.788 393.856 446.026 419.517C467.913 440.137 489.28 463.542 511.713 483.405Z"/><path fill="#52B788" d="M316.189 559.382C323.349 567.118 334.352 576.399 342.419 583.835L388.296 626.589C400.215 637.767 420.826 654.44 423.849 671.307C428.353 696.432 424.839 725.573 425.946 751.331C426.545 765.274 410.833 765.264 410.449 754.946C409.885 739.794 410.091 724.236 409.818 709.035C411.668 682.071 410.845 667.864 390.095 648.46C367.876 627.465 344.985 607.284 322.888 586.153C314.441 578.076 302.401 572.225 300.549 560.081C296.984 536.702 287.776 513.579 280.02 491.35L264.985 447.208C260.701 434.793 256.312 422.395 252.508 409.805C247.629 393.652 261.104 386.272 275.258 388.076C285.289 389.355 293.667 396.582 299.443 404.491C302.734 409.07 305.53 413.986 307.783 419.155C311.502 427.79 315.384 441.52 318.768 450.986L336.229 500.432C338.209 506.064 340.629 511.981 342.461 517.533C348.497 521.625 357.459 527.061 362.831 531.308C363.985 532.061 365.283 533.007 366.389 533.695L368.775 535.16C367.301 533.622 365.531 531.632 363.866 530.372C359.145 525.838 353.878 521.14 349.45 516.662C342.766 509.904 344.023 495.1 351.032 488.994C371.623 471.056 387.979 489.342 402.23 501.299C411.801 509.26 421.712 516.802 431.937 523.903C435.181 526.125 440.451 529.794 443.85 531.603C457.257 538.737 465.496 541.134 476.279 552.723C493.306 571.021 504.039 597.578 503.887 622.612C503.83 631.968 500.371 642.016 500.09 651.08C499.823 659.655 500.009 668.74 499.994 677.323L499.928 726.28C499.946 735.615 500.389 745.701 499.593 755.025C499.436 756.87 497.985 759.617 496.54 760.81C491.478 764.578 486.899 761.853 484.049 757.418L484.322 691.986C484.353 680.018 483.909 667.943 484.276 655.99C484.796 639.08 490.675 625.607 487.609 608.112C484.626 591.088 475.431 573.488 463.223 561.271C452.661 550.703 437.726 545.441 425.195 537.481C413.4 529.989 402.121 520.655 391.437 511.664C385.206 506.42 376.753 497.12 368.26 497.099C366.122 497.093 363.15 497.661 361.578 499.252C360.517 500.326 359.975 501.514 360.097 503.046C360.261 505.106 361.469 506.959 362.755 508.504C371.177 518.628 438.064 571.161 427.448 583.2C425.88 584.978 422.634 586.278 420.264 586.13C418.274 586.005 416.693 584.974 415.051 583.949C410.732 581.252 406.667 578.135 402.439 575.297L370.243 553.81L344.688 537.032C325.646 524.59 329.601 529.104 322.054 506.998L306.488 461.844C303.531 453.182 300.711 444.553 297.314 435.702C292.823 423.999 286.544 405.035 272.01 402.615C270.761 402.407 269.633 402.578 268.459 403.015C267.81 403.691 267.261 403.833 267.492 404.771C270.145 415.543 274.255 426.19 277.761 436.765C289.278 471.497 301.955 505.968 312.489 541.004C314.113 546.403 315.157 553.744 316.189 559.382Z"/><path fill="#52B788" d="M661.568 531.527C666.03 528.992 679.427 520.279 682.513 516.809C684.699 514.353 688.684 501.12 690.11 497.07L707.782 446.098C711.21 435.972 714.136 426.09 718.369 415.869C725.525 398.587 744.375 381.193 764.285 389.947C771.838 393.594 775.354 400.128 772.755 408.136C764.644 433.13 755.911 457.802 747.75 482.771C742.553 498.672 736.532 514.333 731.491 530.321C729.363 536.909 727.522 543.586 725.971 550.333C724.922 555.001 724.165 559.681 722.907 564.304C721.57 569.218 718.929 571.439 715.277 574.642C710.333 578.979 705.368 583.296 700.497 587.705C685.116 601.792 669.832 615.985 654.646 630.282C639.593 644.212 616.009 661.306 614.939 682.843C614.161 698.487 616.847 717.347 615.64 733.537C615.094 740.86 617.255 751.52 614.118 758.236C611.027 764.852 600.078 763.108 600.117 754.991C599.94 741.409 599.813 727.907 599.912 714.338C600.579 701.603 598.218 686.071 600.887 673.796C605.449 652.817 624.4 637.87 638.941 624.359L677.353 588.561C686.957 579.76 696.339 570.612 705.953 561.811C707.196 560.673 709.272 556.998 709.495 555.356C712.014 536.861 719.023 519.894 724.878 502.336L748.01 433.036C749.164 429.598 757.652 405.872 757.37 404.292C751.676 397.757 738.539 410.926 735.541 416.491C730.026 426.73 726.874 437.676 723.159 448.649C714.862 473.152 705.771 497.325 697.719 521.908C696.899 524.405 694.789 526.85 692.665 528.408C682.994 535.501 672.785 541.963 662.852 548.733C650.49 557.168 638.008 565.426 625.41 573.505C619.633 577.266 613.933 581.275 608.017 584.805C603.786 587.503 597.785 586.018 597.101 580.555C596.335 574.443 602.891 566.796 606.586 562.599C618.123 549.495 630.282 537.392 643.257 525.759C647.759 521.722 662.774 509.532 664.848 505.178C665.423 503.983 665.435 502.594 664.882 501.389C663.481 498.383 659.309 497.144 656.403 496.348C647.565 498.553 631.761 513.14 624.174 519.227C617.433 524.554 610.591 529.753 603.652 534.82C599.189 538.023 590.641 543.868 585.973 546.302C574.334 552.369 567.292 554.176 558.23 564.425C545.003 579.383 534.784 604.562 536.739 624.649C537.88 636.382 540.167 643.266 540.376 656.244L540.912 734.705C540.914 741.311 542.03 753.594 539.263 759.195C538.411 760.695 536.846 762.232 535.041 762.394C528.125 763.091 525.167 758.434 525.199 752.003C525.362 719.423 525.372 686.853 524.922 654.27C524.77 643.245 521.231 632.7 521.08 622.006C520.723 596.629 532.128 570.292 549.334 551.892C560.748 540.181 575.935 535.404 589.467 526.413C607.812 514.224 623.925 499.942 641.113 486.404C644.808 483.494 652.443 481.658 656.996 481.654C663.456 481.607 669.648 484.24 674.096 488.925C678.684 493.678 680.253 499.475 680.194 505.958C680.112 514.834 666.944 524.752 660.137 530.947C658.973 531.681 657.157 533.962 656.117 535.119C658.047 533.925 659.727 532.877 661.568 531.527Z"/><path fill="#52B788" d="M500.089 261.708C535.847 259.608 571.614 265.676 604.679 279.454C646.854 297.161 679.767 322.967 706.771 359.684C712.61 367.622 723.062 382.628 726.683 391.474C724.858 394.134 719.178 400.634 716.81 403.52C714.027 399.931 709.82 391.992 707.271 387.801C701.169 377.77 695.636 369.26 688.2 360.2C654.022 317.879 605.727 289.306 552.18 279.724C543.398 278.112 534.179 277.408 525.276 276.535C498.919 275.854 479.791 277.331 454.317 283.963C400.989 298.028 354.59 330.996 323.762 376.727C317.329 386.073 313.734 393.9 308.13 403.473C304.424 398.947 301.473 395.367 297.381 391.152C306.335 373.174 322.375 352.266 335.965 337.664C379.308 291.092 436.974 264.941 500.089 261.708Z"/><path fill="#52B788" d="M752.647 485.334C753.996 487.162 755.075 497.405 755.306 500.046C763.305 591.446 705.634 683.355 621.636 718.742C620.451 719.03 621.039 719.034 619.872 718.744C618.614 715.477 619.353 706.885 619.521 703.01C688.929 672.15 736.977 600.111 740.764 524.612C741.119 517.542 749.764 492.796 752.647 485.334Z"/><path fill="#52B788" d="M272.007 485.298C275.848 494.888 280.82 510.313 283.253 520.308C283.966 523.235 285.092 537.308 285.608 541.491C287.159 553.477 289.827 565.291 293.575 576.781C308.282 622.133 337.513 660.853 377.006 687.867C385.739 693.84 395.138 697.896 404.507 702.678C404.554 705.741 405.102 716.628 403.787 718.667L402.386 718.588C394.881 716.007 383.14 709.198 376.202 704.986C335.867 680.51 304.328 643.879 286.117 600.356C273.442 570.895 266.509 534.323 269.385 502.429C269.824 497.561 270.271 489.667 272.007 485.298Z"/><path fill="#F6FAF8" fill-opacity="0.070588239" d="M363.866 530.372C365.531 531.632 367.301 533.622 368.775 535.16L366.389 533.695C365.283 533.007 363.985 532.061 362.831 531.308L363.866 530.372Z"/><path fill="#F6FAF8" fill-opacity="0.25882354" d="M660.137 530.947L661.568 531.527C659.727 532.877 658.047 533.925 656.117 535.119C657.157 533.962 658.973 531.681 660.137 530.947Z"/><path fill="#F6FAF8" fill-opacity="0.11372549" d="M749.062 486.541C750.302 486.061 751.574 485.686 750.212 487.305C749.457 487.482 748.936 487.504 749.062 486.541Z"/></svg>